<?xml version="1.0" encoding="UTF-8" standalone="no"?>
<!DOCTYPE svg PUBLIC "-//W3C//DTD SVG 1.1//EN"
 "http://www.w3.org/Graphics/SVG/1.1/DTD/svg11.dtd">
<!-- Generated by graphviz version 2.43.0 (0)
 -->
<!-- Title: classes_models Pages: 1 -->
<svg width="2085pt" height="2122pt"
 viewBox="0.00 0.00 2084.50 2122.00" xmlns="http://www.w3.org/2000/svg" xmlns:xlink="http://www.w3.org/1999/xlink">
<g id="graph0" class="graph" transform="scale(1 1) rotate(0) translate(4 2118)">
<title>classes_models</title>
<polygon fill="white" stroke="transparent" points="-4,4 -4,-2118 2080.5,-2118 2080.5,4 -4,4"/>
<!-- models.cutting_layout.CuttingLayout -->
<g id="node1" class="node">
<title>models.cutting_layout.CuttingLayout</title>
<polygon fill="none" stroke="black" points="1143.5,-801 1143.5,-930 1382.5,-930 1382.5,-801 1143.5,-801"/>
<text text-anchor="start" x="1223.5" y="-914.8" font-family="Times,serif" font-size="14.00">CuttingLayout</text>
<polyline fill="none" stroke="black" points="1143.5,-907 1382.5,-907 "/>
<text text-anchor="start" x="1151.5" y="-891.8" font-family="Times,serif" font-size="14.00">master_rolls : Optional[list[MasterRoll]]</text>
<text text-anchor="start" x="1151.5" y="-876.8" font-family="Times,serif" font-size="14.00">rolls : Optional[list[SlittedRoll]]</text>
<text text-anchor="start" x="1151.5" y="-861.8" font-family="Times,serif" font-size="14.00">rolls_dict : dict[SlittedRoll, int]</text>
<text text-anchor="start" x="1151.5" y="-846.8" font-family="Times,serif" font-size="14.00">total_width : float</text>
<polyline fill="none" stroke="black" points="1143.5,-839 1382.5,-839 "/>
<text text-anchor="start" x="1165" y="-823.8" font-family="Times,serif" font-size="14.00">is_valid(sm: SlittingMachine): bool</text>
<text text-anchor="start" x="1165" y="-808.8" font-family="Times,serif" font-size="14.00">waste(sm: SlittingMachine): float</text>
</g>
<!-- models.cutting_plan.CuttingPlan -->
<g id="node2" class="node">
<title>models.cutting_plan.CuttingPlan</title>
<polygon fill="none" stroke="black" points="1439,-1042 1439,-1186 1813,-1186 1813,-1042 1439,-1042"/>
<text text-anchor="start" x="1593.5" y="-1170.8" font-family="Times,serif" font-size="14.00">CuttingPlan</text>
<polyline fill="none" stroke="black" points="1439,-1163 1813,-1163 "/>
<text text-anchor="start" x="1540" y="-1147.8" font-family="Times,serif" font-size="14.00">knife_rearrangements : int</text>
<text text-anchor="start" x="1540" y="-1132.8" font-family="Times,serif" font-size="14.00">layouts : list[CuttingLayout]</text>
<text text-anchor="start" x="1540" y="-1117.8" font-family="Times,serif" font-size="14.00">rolls_dict : dict[SlittedRoll, int]</text>
<polyline fill="none" stroke="black" points="1439,-1110 1813,-1110 "/>
<text text-anchor="start" x="1447" y="-1094.8" font-family="Times,serif" font-size="14.00">is_valid(sm: SlittingMachine): bool</text>
<text text-anchor="start" x="1447" y="-1079.8" font-family="Times,serif" font-size="14.00">layout_change_time(sm: SlittingMachine, layout_num: int): float</text>
<text text-anchor="start" x="1447" y="-1064.8" font-family="Times,serif" font-size="14.00">total_time(sm: SlittingMachine): timedelta</text>
<text text-anchor="start" x="1447" y="-1049.8" font-family="Times,serif" font-size="14.00">total_waste(sm: SlittingMachine)</text>
</g>
<!-- models.cutting_layout.CuttingLayout&#45;&gt;models.cutting_plan.CuttingPlan -->
<g id="edge14" class="edge">
<title>models.cutting_layout.CuttingLayout&#45;&gt;models.cutting_plan.CuttingPlan</title>
<path fill="none" stroke="black" d="M1292.91,-930.21C1307.07,-954.95 1325.97,-981.88 1349,-1001 1372.53,-1020.54 1399.92,-1037.02 1428.14,-1050.82"/>
<polygon fill="none" stroke="black" points="1428.15,-1050.82 1435.28,-1049.79 1438.99,-1055.98 1431.85,-1057.01 1428.15,-1050.82"/>
<text text-anchor="middle" x="1369" y="-989.8" font-family="Times,serif" font-size="14.00" fill="green">layouts</text>
</g>
<!-- models.event_queue.CuttingPlanCompletion -->
<g id="node3" class="node">
<title>models.event_queue.CuttingPlanCompletion</title>
<polygon fill="none" stroke="black" points="1532.5,-1380.5 1532.5,-1479.5 1995.5,-1479.5 1995.5,-1380.5 1532.5,-1380.5"/>
<text text-anchor="start" x="1699" y="-1464.3" font-family="Times,serif" font-size="14.00">CuttingPlanCompletion</text>
<polyline fill="none" stroke="black" points="1532.5,-1456.5 1995.5,-1456.5 "/>
<text text-anchor="start" x="1740.5" y="-1441.3" font-family="Times,serif" font-size="14.00">sm</text>
<text text-anchor="start" x="1740.5" y="-1426.3" font-family="Times,serif" font-size="14.00">sm_plan</text>
<polyline fill="none" stroke="black" points="1532.5,-1418.5 1995.5,-1418.5 "/>
<text text-anchor="start" x="1540.5" y="-1403.3" font-family="Times,serif" font-size="14.00">cut_one(current_time: datetime)</text>
<text text-anchor="start" x="1540.5" y="-1388.3" font-family="Times,serif" font-size="14.00">has_supply(storage_state: StorageState, allowed_storages: list[RollStorage]): bool</text>
</g>
<!-- models.cutting_plan.CuttingPlan&#45;&gt;models.event_queue.CuttingPlanCompletion -->
<g id="edge15" class="edge">
<title>models.cutting_plan.CuttingPlan&#45;&gt;models.event_queue.CuttingPlanCompletion</title>
<path fill="none" stroke="black" d="M1657.31,-1186.25C1681.61,-1241.54 1714.91,-1317.3 1737.81,-1369.41"/>
<polygon fill="none" stroke="black" points="1737.85,-1369.49 1743.92,-1373.37 1742.67,-1380.48 1736.6,-1376.59 1737.85,-1369.49"/>
<text text-anchor="middle" x="1702.5" y="-1230.8" font-family="Times,serif" font-size="14.00" fill="green">sm_plan</text>
</g>
<!-- models.global_plan.GlobalPlan -->
<g id="node5" class="node">
<title>models.global_plan.GlobalPlan</title>
<polygon fill="none" stroke="black" points="1169.5,-1260.5 1169.5,-1599.5 1468.5,-1599.5 1468.5,-1260.5 1169.5,-1260.5"/>
<text text-anchor="start" x="1288.5" y="-1584.3" font-family="Times,serif" font-size="14.00">GlobalPlan</text>
<polyline fill="none" stroke="black" points="1169.5,-1576.5 1468.5,-1576.5 "/>
<text text-anchor="start" x="1195.5" y="-1561.3" font-family="Times,serif" font-size="14.00">event_queue : list[GlobalPlanEvent]</text>
<text text-anchor="start" x="1195.5" y="-1546.3" font-family="Times,serif" font-size="14.00">knife_rearrangements</text>
<text text-anchor="start" x="1195.5" y="-1531.3" font-family="Times,serif" font-size="14.00">orders_dict : dict[RollOrder, int]</text>
<text text-anchor="start" x="1195.5" y="-1516.3" font-family="Times,serif" font-size="14.00">planned_event_queue : list[GlobalPlanEvent]</text>
<text text-anchor="start" x="1195.5" y="-1501.3" font-family="Times,serif" font-size="14.00">pm_plans : list[MakingPlan]</text>
<text text-anchor="start" x="1195.5" y="-1486.3" font-family="Times,serif" font-size="14.00">pms_available</text>
<text text-anchor="start" x="1195.5" y="-1471.3" font-family="Times,serif" font-size="14.00">problem</text>
<text text-anchor="start" x="1195.5" y="-1456.3" font-family="Times,serif" font-size="14.00">sm_count</text>
<text text-anchor="start" x="1195.5" y="-1441.3" font-family="Times,serif" font-size="14.00">sm_plans : list[CuttingPlan]</text>
<text text-anchor="start" x="1195.5" y="-1426.3" font-family="Times,serif" font-size="14.00">sm_plans_dict</text>
<polyline fill="none" stroke="black" points="1169.5,-1418.5 1468.5,-1418.5 "/>
<text text-anchor="start" x="1177.5" y="-1403.3" font-family="Times,serif" font-size="14.00">constaints_satisfied(): bool</text>
<text text-anchor="start" x="1177.5" y="-1388.3" font-family="Times,serif" font-size="14.00">has_compatible_pm(master_roll: MasterRoll): bool</text>
<text text-anchor="start" x="1177.5" y="-1373.3" font-family="Times,serif" font-size="14.00">is_valid(): bool</text>
<text text-anchor="start" x="1177.5" y="-1358.3" font-family="Times,serif" font-size="14.00">max_sm_time(): int</text>
<text text-anchor="start" x="1177.5" y="-1343.3" font-family="Times,serif" font-size="14.00">operation_ids(): set[str]</text>
<text text-anchor="start" x="1177.5" y="-1328.3" font-family="Times,serif" font-size="14.00">orders_completed(): bool</text>
<text text-anchor="start" x="1177.5" y="-1313.3" font-family="Times,serif" font-size="14.00">scores(): tuple</text>
<text text-anchor="start" x="1177.5" y="-1298.3" font-family="Times,serif" font-size="14.00">total_time(): timedelta</text>
<text text-anchor="start" x="1177.5" y="-1283.3" font-family="Times,serif" font-size="14.00">total_waste()</text>
<text text-anchor="start" x="1177.5" y="-1268.3" font-family="Times,serif" font-size="14.00">width_constraint_satisified(): bool</text>
</g>
<!-- models.cutting_plan.CuttingPlan&#45;&gt;models.global_plan.GlobalPlan -->
<g id="edge16" class="edge">
<title>models.cutting_plan.CuttingPlan&#45;&gt;models.global_plan.GlobalPlan</title>
<path fill="none" stroke="black" d="M1556.34,-1186.25C1532.61,-1210.52 1505.03,-1238.73 1477.23,-1267.16"/>
<polygon fill="none" stroke="black" points="1477,-1267.4 1475.66,-1274.49 1468.61,-1275.98 1469.94,-1268.89 1477,-1267.4"/>
<text text-anchor="middle" x="1536" y="-1230.8" font-family="Times,serif" font-size="14.00" fill="green">sm_plans</text>
</g>
<!-- models.event_queue.PlanCompletion -->
<g id="node13" class="node">
<title>models.event_queue.PlanCompletion</title>
<polygon fill="none" stroke="black" points="1516,-1984.5 1516,-2113.5 1762,-2113.5 1762,-1984.5 1516,-1984.5"/>
<text text-anchor="start" x="1594.5" y="-2098.3" font-family="Times,serif" font-size="14.00">PlanCompletion</text>
<polyline fill="none" stroke="black" points="1516,-2090.5 1762,-2090.5 "/>
<text text-anchor="start" x="1532.5" y="-2075.3" font-family="Times,serif" font-size="14.00">last_process_time : Optional[datetime]</text>
<text text-anchor="start" x="1532.5" y="-2060.3" font-family="Times,serif" font-size="14.00">plan : int</text>
<text text-anchor="start" x="1532.5" y="-2045.3" font-family="Times,serif" font-size="14.00">processed</text>
<text text-anchor="start" x="1532.5" y="-2030.3" font-family="Times,serif" font-size="14.00">processed_master_rolls : int</text>
<polyline fill="none" stroke="black" points="1516,-2022.5 1762,-2022.5 "/>
<text text-anchor="start" x="1524" y="-2007.3" font-family="Times,serif" font-size="14.00">is_available(current_time: datetime): bool</text>
<text text-anchor="start" x="1524" y="-1992.3" font-family="Times,serif" font-size="14.00">is_completed(): bool</text>
</g>
<!-- models.event_queue.CuttingPlanCompletion&#45;&gt;models.event_queue.PlanCompletion -->
<g id="edge1" class="edge">
<title>models.event_queue.CuttingPlanCompletion&#45;&gt;models.event_queue.PlanCompletion</title>
<path fill="none" stroke="black" d="M1773.83,-1479.6C1790.57,-1574.42 1816.33,-1788.64 1745,-1947 1740.32,-1957.4 1734.02,-1967.25 1726.82,-1976.43"/>
<polygon fill="none" stroke="black" points="1723.96,-1974.4 1720.28,-1984.33 1729.35,-1978.86 1723.96,-1974.4"/>
</g>
<!-- models.format.Format -->
<g id="node4" class="node">
<title>models.format.Format</title>
<polygon fill="none" stroke="black" points="1189.5,-1079.5 1189.5,-1148.5 1272.5,-1148.5 1272.5,-1079.5 1189.5,-1079.5"/>
<text text-anchor="start" x="1211" y="-1133.3" font-family="Times,serif" font-size="14.00">Format</text>
<polyline fill="none" stroke="black" points="1189.5,-1125.5 1272.5,-1125.5 "/>
<text text-anchor="start" x="1197.5" y="-1110.3" font-family="Times,serif" font-size="14.00">width : float</text>
<polyline fill="none" stroke="black" points="1189.5,-1102.5 1272.5,-1102.5 "/>
<text text-anchor="start" x="1229" y="-1087.3" font-family="Times,serif" font-size="14.00"> </text>
</g>
<!-- models.making_plan.MakingPlan -->
<g id="node9" class="node">
<title>models.making_plan.MakingPlan</title>
<polygon fill="none" stroke="black" points="1111,-1674 1111,-1788 1371,-1788 1371,-1674 1111,-1674"/>
<text text-anchor="start" x="1207.5" y="-1772.8" font-family="Times,serif" font-size="14.00">MakingPlan</text>
<polyline fill="none" stroke="black" points="1111,-1765 1371,-1765 "/>
<text text-anchor="start" x="1158" y="-1749.8" font-family="Times,serif" font-size="14.00">master_rolls : list[MasterRoll]</text>
<text text-anchor="start" x="1158" y="-1734.8" font-family="Times,serif" font-size="14.00">master_rolls_count : int</text>
<polyline fill="none" stroke="black" points="1111,-1727 1371,-1727 "/>
<text text-anchor="start" x="1119" y="-1711.8" font-family="Times,serif" font-size="14.00">add_master_roll(master_roll: MasterRoll)</text>
<text text-anchor="start" x="1119" y="-1696.8" font-family="Times,serif" font-size="14.00">is_valid(brands_ordered: list[str])</text>
<text text-anchor="start" x="1119" y="-1681.8" font-family="Times,serif" font-size="14.00">total_time(pm: PaperMakingMachine): float</text>
</g>
<!-- models.global_plan.GlobalPlan&#45;&gt;models.making_plan.MakingPlan -->
<g id="edge11" class="edge">
<title>models.global_plan.GlobalPlan&#45;&gt;models.making_plan.MakingPlan</title>
<path fill="none" stroke="black" d="M1274.99,-1599.72C1269.04,-1622.51 1263.25,-1644.69 1258.19,-1664.1"/>
<polygon fill="black" stroke="black" points="1255.61,-1673.99 1253.78,-1663.17 1256.87,-1669.15 1258.14,-1664.31 1258.14,-1664.31 1258.14,-1664.31 1256.87,-1669.15 1262.49,-1665.44 1255.61,-1673.99 1255.61,-1673.99"/>
<text text-anchor="middle" x="1296" y="-1621.8" font-family="Times,serif" font-size="14.00" fill="green">pm_plans</text>
</g>
<!-- models.event_queue.GlobalPlanEvent -->
<g id="node6" class="node">
<title>models.event_queue.GlobalPlanEvent</title>
<polygon fill="none" stroke="black" points="594,-763.5 594,-967.5 758,-967.5 758,-763.5 594,-763.5"/>
<text text-anchor="start" x="629.5" y="-952.3" font-family="Times,serif" font-size="14.00">GlobalPlanEvent</text>
<polyline fill="none" stroke="black" points="594,-944.5 758,-944.5 "/>
<text text-anchor="start" x="602" y="-929.3" font-family="Times,serif" font-size="14.00">actual_duration</text>
<text text-anchor="start" x="602" y="-914.3" font-family="Times,serif" font-size="14.00">delay_reason : str | None</text>
<text text-anchor="start" x="602" y="-899.3" font-family="Times,serif" font-size="14.00">end_time : datetime</text>
<text text-anchor="start" x="602" y="-884.3" font-family="Times,serif" font-size="14.00">event_id : str | None</text>
<text text-anchor="start" x="602" y="-869.3" font-family="Times,serif" font-size="14.00">machine_name : str | None</text>
<text text-anchor="start" x="602" y="-854.3" font-family="Times,serif" font-size="14.00">operation_type : str | None</text>
<text text-anchor="start" x="602" y="-839.3" font-family="Times,serif" font-size="14.00">plan_index : int | None</text>
<text text-anchor="start" x="602" y="-824.3" font-family="Times,serif" font-size="14.00">planned_duration</text>
<text text-anchor="start" x="602" y="-809.3" font-family="Times,serif" font-size="14.00">start_time : datetime</text>
<text text-anchor="start" x="602" y="-794.3" font-family="Times,serif" font-size="14.00">storage_state</text>
<polyline fill="none" stroke="black" points="594,-786.5 758,-786.5 "/>
<text text-anchor="start" x="674" y="-771.3" font-family="Times,serif" font-size="14.00"> </text>
</g>
<!-- models.event_queue.GlobalPlanEvent&#45;&gt;models.global_plan.GlobalPlan -->
<g id="edge17" class="edge">
<title>models.event_queue.GlobalPlanEvent&#45;&gt;models.global_plan.GlobalPlan</title>
<path fill="none" stroke="black" d="M758.36,-880.73C837.71,-898.87 955.14,-938.14 1021,-1019 1075.56,-1085.98 1017.76,-1134.8 1062,-1209 1087.03,-1250.97 1122.93,-1288.9 1160,-1320.98"/>
<polygon fill="none" stroke="black" points="1160.3,-1321.23 1167.46,-1322.07 1169.44,-1329.01 1162.28,-1328.17 1160.3,-1321.23"/>
<text text-anchor="middle" x="1121" y="-1110.3" font-family="Times,serif" font-size="14.00" fill="green">planned_event_queue</text>
</g>
<!-- models.event_queue.GlobalPlanPaperMakingMachineEvent -->
<g id="node7" class="node">
<title>models.event_queue.GlobalPlanPaperMakingMachineEvent</title>
<polygon fill="none" stroke="black" points="0,-370 0,-484 230,-484 230,-370 0,-370"/>
<text text-anchor="start" x="8" y="-468.8" font-family="Times,serif" font-size="14.00">GlobalPlanPaperMakingMachineEvent</text>
<polyline fill="none" stroke="black" points="0,-461 230,-461 "/>
<text text-anchor="start" x="83.5" y="-445.8" font-family="Times,serif" font-size="14.00">master_roll</text>
<text text-anchor="start" x="83.5" y="-430.8" font-family="Times,serif" font-size="14.00">plan</text>
<text text-anchor="start" x="83.5" y="-415.8" font-family="Times,serif" font-size="14.00">pm</text>
<text text-anchor="start" x="83.5" y="-400.8" font-family="Times,serif" font-size="14.00">processed</text>
<polyline fill="none" stroke="black" points="0,-393 230,-393 "/>
<text text-anchor="start" x="113" y="-377.8" font-family="Times,serif" font-size="14.00"> </text>
</g>
<!-- models.event_queue.GlobalPlanPaperMakingMachineEvent&#45;&gt;models.event_queue.GlobalPlanEvent -->
<g id="edge2" class="edge">
<title>models.event_queue.GlobalPlanPaperMakingMachineEvent&#45;&gt;models.event_queue.GlobalPlanEvent</title>
<path fill="none" stroke="black" d="M187.19,-484.17C288.96,-563.36 474.54,-707.75 585.43,-794.03"/>
<polygon fill="none" stroke="black" points="583.57,-797.02 593.61,-800.4 587.87,-791.49 583.57,-797.02"/>
</g>
<!-- models.event_queue.GlobalPlanSlittingMachineEvent -->
<g id="node8" class="node">
<title>models.event_queue.GlobalPlanSlittingMachineEvent</title>
<polygon fill="none" stroke="black" points="796.5,-347.5 796.5,-506.5 993.5,-506.5 993.5,-347.5 796.5,-347.5"/>
<text text-anchor="start" x="804.5" y="-491.3" font-family="Times,serif" font-size="14.00">GlobalPlanSlittingMachineEvent</text>
<polyline fill="none" stroke="black" points="796.5,-483.5 993.5,-483.5 "/>
<text text-anchor="start" x="835.5" y="-468.3" font-family="Times,serif" font-size="14.00">knife_rearrangements</text>
<text text-anchor="start" x="835.5" y="-453.3" font-family="Times,serif" font-size="14.00">layout</text>
<text text-anchor="start" x="835.5" y="-438.3" font-family="Times,serif" font-size="14.00">layout_num</text>
<text text-anchor="start" x="835.5" y="-423.3" font-family="Times,serif" font-size="14.00">plan</text>
<text text-anchor="start" x="835.5" y="-408.3" font-family="Times,serif" font-size="14.00">processed</text>
<text text-anchor="start" x="835.5" y="-393.3" font-family="Times,serif" font-size="14.00">sm</text>
<text text-anchor="start" x="835.5" y="-378.3" font-family="Times,serif" font-size="14.00">waste</text>
<polyline fill="none" stroke="black" points="796.5,-370.5 993.5,-370.5 "/>
<text text-anchor="start" x="893" y="-355.3" font-family="Times,serif" font-size="14.00"> </text>
</g>
<!-- models.event_queue.GlobalPlanSlittingMachineEvent&#45;&gt;models.event_queue.GlobalPlanEvent -->
<g id="edge3" class="edge">
<title>models.event_queue.GlobalPlanSlittingMachineEvent&#45;&gt;models.event_queue.GlobalPlanEvent</title>
<path fill="none" stroke="black" d="M855.59,-506.54C820.98,-575.53 770.25,-676.65 731.52,-753.84"/>
<polygon fill="none" stroke="black" points="728.22,-752.62 726.86,-763.13 734.47,-755.76 728.22,-752.62"/>
</g>
<!-- models.event_queue.MakingPlanCompletion -->
<g id="node10" class="node">
<title>models.event_queue.MakingPlanCompletion</title>
<polygon fill="none" stroke="black" points="1294,-1862.5 1294,-1946.5 1736,-1946.5 1736,-1862.5 1294,-1862.5"/>
<text text-anchor="start" x="1449" y="-1931.3" font-family="Times,serif" font-size="14.00">MakingPlanCompletion</text>
<polyline fill="none" stroke="black" points="1294,-1923.5 1736,-1923.5 "/>
<text text-anchor="start" x="1490.5" y="-1908.3" font-family="Times,serif" font-size="14.00">pm</text>
<text text-anchor="start" x="1490.5" y="-1893.3" font-family="Times,serif" font-size="14.00">pm_plan</text>
<polyline fill="none" stroke="black" points="1294,-1885.5 1736,-1885.5 "/>
<text text-anchor="start" x="1302" y="-1870.3" font-family="Times,serif" font-size="14.00">produce_one(current_time: datetime, brand_chage_speed: dict[str, timedelta])</text>
</g>
<!-- models.making_plan.MakingPlan&#45;&gt;models.event_queue.MakingPlanCompletion -->
<g id="edge18" class="edge">
<title>models.making_plan.MakingPlan&#45;&gt;models.event_queue.MakingPlanCompletion</title>
<path fill="none" stroke="black" d="M1330.72,-1788.16C1365.8,-1810.11 1405.59,-1835.02 1439.19,-1856.05"/>
<polygon fill="none" stroke="black" points="1439.24,-1856.08 1446.45,-1855.87 1449.41,-1862.45 1442.21,-1862.66 1439.24,-1856.08"/>
<text text-anchor="middle" x="1443.5" y="-1832.8" font-family="Times,serif" font-size="14.00" fill="green">pm_plan</text>
</g>
<!-- models.event_queue.MakingPlanCompletion&#45;&gt;models.event_queue.PlanCompletion -->
<g id="edge4" class="edge">
<title>models.event_queue.MakingPlanCompletion&#45;&gt;models.event_queue.PlanCompletion</title>
<path fill="none" stroke="black" d="M1550.87,-1946.72C1559.02,-1956.08 1567.91,-1966.3 1576.8,-1976.52"/>
<polygon fill="none" stroke="black" points="1574.38,-1979.08 1583.59,-1984.32 1579.66,-1974.48 1574.38,-1979.08"/>
</g>
<!-- models.roll.MasterRoll -->
<g id="node11" class="node">
<title>models.roll.MasterRoll</title>
<polygon fill="none" stroke="black" points="1012,-385 1012,-469 1090,-469 1090,-385 1012,-385"/>
<text text-anchor="start" x="1020" y="-453.8" font-family="Times,serif" font-size="14.00">MasterRoll</text>
<polyline fill="none" stroke="black" points="1012,-446 1090,-446 "/>
<text text-anchor="start" x="1020" y="-430.8" font-family="Times,serif" font-size="14.00">edge : float</text>
<text text-anchor="start" x="1020" y="-415.8" font-family="Times,serif" font-size="14.00">full_width</text>
<polyline fill="none" stroke="black" points="1012,-408 1090,-408 "/>
<text text-anchor="start" x="1049" y="-392.8" font-family="Times,serif" font-size="14.00"> </text>
</g>
<!-- models.roll.MasterRoll&#45;&gt;models.cutting_layout.CuttingLayout -->
<g id="edge22" class="edge">
<title>models.roll.MasterRoll&#45;&gt;models.cutting_layout.CuttingLayout</title>
<path fill="none" stroke="black" d="M1063.01,-469.09C1081.99,-531.08 1122.15,-651.24 1174,-745 1182.54,-760.45 1192.86,-776.16 1203.39,-790.88"/>
<polygon fill="none" stroke="black" points="1203.63,-791.21 1210.4,-793.7 1210.7,-800.91 1203.93,-798.41 1203.63,-791.21"/>
<text text-anchor="middle" x="1208" y="-631.3" font-family="Times,serif" font-size="14.00" fill="green">master_rolls</text>
</g>
<!-- models.roll.MasterRoll&#45;&gt;models.making_plan.MakingPlan -->
<g id="edge23" class="edge">
<title>models.roll.MasterRoll&#45;&gt;models.making_plan.MakingPlan</title>
<path fill="none" stroke="black" d="M1034.73,-469.08C1005.93,-545.59 949,-715.66 949,-864.5 949,-864.5 949,-864.5 949,-1431 949,-1534.85 1040.28,-1616.04 1120.76,-1667.45"/>
<polygon fill="none" stroke="black" points="1120.86,-1667.5 1128.06,-1667.3 1131.02,-1673.88 1123.82,-1674.08 1120.86,-1667.5"/>
<text text-anchor="middle" x="983" y="-1110.3" font-family="Times,serif" font-size="14.00" fill="green">master_rolls</text>
</g>
<!-- models.roll.Roll -->
<g id="node15" class="node">
<title>models.roll.Roll</title>
<polygon fill="none" stroke="black" points="977,-801 977,-930 1125,-930 1125,-801 977,-801"/>
<text text-anchor="start" x="1039" y="-914.8" font-family="Times,serif" font-size="14.00">Roll</text>
<polyline fill="none" stroke="black" points="977,-907 1125,-907 "/>
<text text-anchor="start" x="985" y="-891.8" font-family="Times,serif" font-size="14.00">brand : Optional[str]</text>
<text text-anchor="start" x="985" y="-876.8" font-family="Times,serif" font-size="14.00">density : Optional[float]</text>
<text text-anchor="start" x="985" y="-861.8" font-family="Times,serif" font-size="14.00">layers : int</text>
<text text-anchor="start" x="985" y="-846.8" font-family="Times,serif" font-size="14.00">small : bool</text>
<text text-anchor="start" x="985" y="-831.8" font-family="Times,serif" font-size="14.00">width : float</text>
<polyline fill="none" stroke="black" points="977,-824 1125,-824 "/>
<text text-anchor="start" x="1049" y="-808.8" font-family="Times,serif" font-size="14.00"> </text>
</g>
<!-- models.roll.MasterRoll&#45;&gt;models.roll.Roll -->
<g id="edge6" class="edge">
<title>models.roll.MasterRoll&#45;&gt;models.roll.Roll</title>
<path fill="none" stroke="black" d="M1051,-469.06C1051,-542.71 1051,-698.16 1051,-790.7"/>
<polygon fill="none" stroke="black" points="1047.5,-790.84 1051,-800.84 1054.5,-790.84 1047.5,-790.84"/>
</g>
<!-- models.pm_machine.PaperMakingMachine -->
<g id="node12" class="node">
<title>models.pm_machine.PaperMakingMachine</title>
<polygon fill="none" stroke="black" points="1389,-1651.5 1389,-1810.5 1705,-1810.5 1705,-1651.5 1389,-1651.5"/>
<text text-anchor="start" x="1486" y="-1795.3" font-family="Times,serif" font-size="14.00">PaperMakingMachine</text>
<polyline fill="none" stroke="black" points="1389,-1787.5 1705,-1787.5 "/>
<text text-anchor="start" x="1397" y="-1772.3" font-family="Times,serif" font-size="14.00">density_change_speed_per_gram : Optional[timedelta]</text>
<text text-anchor="start" x="1397" y="-1757.3" font-family="Times,serif" font-size="14.00">edge : float</text>
<text text-anchor="start" x="1397" y="-1742.3" font-family="Times,serif" font-size="14.00">full_width</text>
<text text-anchor="start" x="1397" y="-1727.3" font-family="Times,serif" font-size="14.00">name</text>
<text text-anchor="start" x="1397" y="-1712.3" font-family="Times,serif" font-size="14.00">production_speed : Optional[timedelta]</text>
<text text-anchor="start" x="1397" y="-1697.3" font-family="Times,serif" font-size="14.00">width : float</text>
<polyline fill="none" stroke="black" points="1389,-1689.5 1705,-1689.5 "/>
<text text-anchor="start" x="1476" y="-1674.3" font-family="Times,serif" font-size="14.00">get_equipment_type(): str</text>
<text text-anchor="start" x="1476" y="-1659.3" font-family="Times,serif" font-size="14.00">to_dict(): dict</text>
</g>
<!-- models.pm_machine.PaperMakingMachine&#45;&gt;models.event_queue.MakingPlanCompletion -->
<g id="edge20" class="edge">
<title>models.pm_machine.PaperMakingMachine&#45;&gt;models.event_queue.MakingPlanCompletion</title>
<path fill="none" stroke="black" d="M1532.31,-1810.72C1529.82,-1824.06 1527.29,-1837.63 1524.96,-1850.13"/>
<polygon fill="none" stroke="black" points="1524.9,-1850.42 1527.74,-1857.05 1522.7,-1862.21 1519.87,-1855.58 1524.9,-1850.42"/>
<text text-anchor="middle" x="1538.5" y="-1832.8" font-family="Times,serif" font-size="14.00" fill="green">pm</text>
</g>
<!-- models.problem.Problem -->
<g id="node14" class="node">
<title>models.problem.Problem</title>
<polygon fill="none" stroke="black" points="1283.5,-525.5 1283.5,-744.5 1594.5,-744.5 1594.5,-525.5 1283.5,-525.5"/>
<text text-anchor="start" x="1415.5" y="-729.3" font-family="Times,serif" font-size="14.00">Problem</text>
<polyline fill="none" stroke="black" points="1283.5,-721.5 1594.5,-721.5 "/>
<text text-anchor="start" x="1291.5" y="-706.3" font-family="Times,serif" font-size="14.00">brand_change_speeds : Optional[list[timedelta]]</text>
<text text-anchor="start" x="1291.5" y="-691.3" font-family="Times,serif" font-size="14.00">brands_ordered : Optional[list[str]]</text>
<text text-anchor="start" x="1291.5" y="-676.3" font-family="Times,serif" font-size="14.00">has_time_limit</text>
<text text-anchor="start" x="1291.5" y="-661.3" font-family="Times,serif" font-size="14.00">master_roll_edge_width : float</text>
<text text-anchor="start" x="1291.5" y="-646.3" font-family="Times,serif" font-size="14.00">orders : list[RollOrder]</text>
<text text-anchor="start" x="1291.5" y="-631.3" font-family="Times,serif" font-size="14.00">orders_dict : dict[RollOrder, int]</text>
<text text-anchor="start" x="1291.5" y="-616.3" font-family="Times,serif" font-size="14.00">paper_making_machines : list[PaperMakingMachine]</text>
<text text-anchor="start" x="1291.5" y="-601.3" font-family="Times,serif" font-size="14.00">slitting_machines : list[SlittingMachine]</text>
<text text-anchor="start" x="1291.5" y="-586.3" font-family="Times,serif" font-size="14.00">start_time : datetime</text>
<text text-anchor="start" x="1291.5" y="-571.3" font-family="Times,serif" font-size="14.00">storage : Storage | None</text>
<text text-anchor="start" x="1291.5" y="-556.3" font-family="Times,serif" font-size="14.00">workshops : list</text>
<polyline fill="none" stroke="black" points="1283.5,-548.5 1594.5,-548.5 "/>
<text text-anchor="start" x="1437" y="-533.3" font-family="Times,serif" font-size="14.00"> </text>
</g>
<!-- models.problem.Problem&#45;&gt;models.global_plan.GlobalPlan -->
<g id="edge21" class="edge">
<title>models.problem.Problem&#45;&gt;models.global_plan.GlobalPlan</title>
<path fill="none" stroke="black" d="M1424.86,-744.71C1415.23,-817.34 1401.92,-914.98 1389,-1001 1376.79,-1082.28 1362.26,-1172.06 1349.62,-1248.32"/>
<polygon fill="none" stroke="black" points="1349.57,-1248.6 1352.53,-1255.17 1347.61,-1260.44 1344.64,-1253.86 1349.57,-1248.6"/>
<text text-anchor="middle" x="1414" y="-989.8" font-family="Times,serif" font-size="14.00" fill="green">problem</text>
</g>
<!-- models.roll.Roll&#45;&gt;models.format.Format -->
<g id="edge7" class="edge">
<title>models.roll.Roll&#45;&gt;models.format.Format</title>
<path fill="none" stroke="black" d="M1103.25,-930.33C1135.6,-969.92 1171.62,-1014.16 1175,-1019 1186.39,-1035.29 1197.82,-1053.97 1207.36,-1070.36"/>
<polygon fill="none" stroke="black" points="1204.43,-1072.28 1212.45,-1079.2 1210.49,-1068.78 1204.43,-1072.28"/>
</g>
<!-- models.order.RollOrder -->
<g id="node16" class="node">
<title>models.order.RollOrder</title>
<polygon fill="none" stroke="black" points="1298.5,-181.5 1298.5,-280.5 1475.5,-280.5 1475.5,-181.5 1298.5,-181.5"/>
<text text-anchor="start" x="1359.5" y="-265.3" font-family="Times,serif" font-size="14.00">RollOrder</text>
<polyline fill="none" stroke="black" points="1298.5,-257.5 1475.5,-257.5 "/>
<text text-anchor="start" x="1306.5" y="-242.3" font-family="Times,serif" font-size="14.00">deadline : Optional[datetime]</text>
<text text-anchor="start" x="1306.5" y="-227.3" font-family="Times,serif" font-size="14.00">name : Optional[str]</text>
<text text-anchor="start" x="1306.5" y="-212.3" font-family="Times,serif" font-size="14.00">quantity : int</text>
<polyline fill="none" stroke="black" points="1298.5,-204.5 1475.5,-204.5 "/>
<text text-anchor="start" x="1352" y="-189.3" font-family="Times,serif" font-size="14.00">roll_str(): str</text>
</g>
<!-- models.order.RollOrder&#45;&gt;models.problem.Problem -->
<g id="edge19" class="edge">
<title>models.order.RollOrder&#45;&gt;models.problem.Problem</title>
<path fill="none" stroke="black" d="M1399.5,-280.69C1404.34,-301.06 1409.54,-325.06 1413,-347 1421.55,-401.22 1427.54,-461.67 1431.6,-513.06"/>
<polygon fill="none" stroke="black" points="1431.62,-513.27 1436.07,-518.95 1432.54,-525.24 1428.09,-519.56 1431.62,-513.27"/>
<text text-anchor="middle" x="1427" y="-317.8" font-family="Times,serif" font-size="14.00" fill="green">orders</text>
</g>
<!-- models.roll.SlittedRoll -->
<g id="node20" class="node">
<title>models.roll.SlittedRoll</title>
<polygon fill="none" stroke="black" points="1108,-391.6 1108,-462.4 1404,-462.4 1404,-391.6 1108,-391.6"/>
<text text-anchor="start" x="1226.5" y="-447.2" font-family="Times,serif" font-size="14.00">SlittedRoll</text>
<polyline fill="none" stroke="black" points="1108,-439.4 1404,-439.4 "/>
<polyline fill="none" stroke="black" points="1108,-414.6 1404,-414.6 "/>
<text text-anchor="start" x="1116" y="-399.4" font-family="Times,serif" font-size="14.00">is_compatible(master_rolls: list[MasterRoll]): bool</text>
</g>
<!-- models.order.RollOrder&#45;&gt;models.roll.SlittedRoll -->
<g id="edge5" class="edge">
<title>models.order.RollOrder&#45;&gt;models.roll.SlittedRoll</title>
<path fill="none" stroke="black" d="M1353.94,-280.95C1332.76,-312.32 1305.53,-352.65 1285.16,-382.82"/>
<polygon fill="none" stroke="black" points="1282.04,-381.19 1279.34,-391.44 1287.84,-385.11 1282.04,-381.19"/>
</g>
<!-- models.storage.RollStorage -->
<g id="node17" class="node">
<title>models.storage.RollStorage</title>
<polygon fill="none" stroke="black" points="780.5,-8 780.5,-107 893.5,-107 893.5,-8 780.5,-8"/>
<text text-anchor="start" x="804.5" y="-91.8" font-family="Times,serif" font-size="14.00">RollStorage</text>
<polyline fill="none" stroke="black" points="780.5,-84 893.5,-84 "/>
<text text-anchor="start" x="788.5" y="-68.8" font-family="Times,serif" font-size="14.00">name : str</text>
<text text-anchor="start" x="788.5" y="-53.8" font-family="Times,serif" font-size="14.00">roll_capacity : int</text>
<text text-anchor="start" x="788.5" y="-38.8" font-family="Times,serif" font-size="14.00">roll_width : float</text>
<polyline fill="none" stroke="black" points="780.5,-31 893.5,-31 "/>
<text text-anchor="start" x="835" y="-15.8" font-family="Times,serif" font-size="14.00"> </text>
</g>
<!-- models.storage.RollStorageState -->
<g id="node18" class="node">
<title>models.storage.RollStorageState</title>
<polygon fill="none" stroke="black" points="624.5,-166.5 624.5,-295.5 1049.5,-295.5 1049.5,-166.5 624.5,-166.5"/>
<text text-anchor="start" x="791" y="-280.3" font-family="Times,serif" font-size="14.00">RollStorageState</text>
<polyline fill="none" stroke="black" points="624.5,-272.5 1049.5,-272.5 "/>
<text text-anchor="start" x="754" y="-257.3" font-family="Times,serif" font-size="14.00">master_rolls : list[MasterRoll]</text>
<text text-anchor="start" x="754" y="-242.3" font-family="Times,serif" font-size="14.00">storage</text>
<polyline fill="none" stroke="black" points="624.5,-234.5 1049.5,-234.5 "/>
<text text-anchor="start" x="632.5" y="-219.3" font-family="Times,serif" font-size="14.00">can_store(roll: MasterRoll): bool</text>
<text text-anchor="start" x="632.5" y="-204.3" font-family="Times,serif" font-size="14.00">get_supply(master_roll: MasterRoll, used_master_rolls_indexes: set): bool</text>
<text text-anchor="start" x="632.5" y="-189.3" font-family="Times,serif" font-size="14.00">pop(master_roll: MasterRoll): MasterRoll</text>
<text text-anchor="start" x="632.5" y="-174.3" font-family="Times,serif" font-size="14.00">store(roll: MasterRoll)</text>
</g>
<!-- models.storage.RollStorage&#45;&gt;models.storage.RollStorageState -->
<g id="edge26" class="edge">
<title>models.storage.RollStorage&#45;&gt;models.storage.RollStorageState</title>
<path fill="none" stroke="black" d="M837,-107.19C837,-121.86 837,-138.34 837,-154.33"/>
<polygon fill="none" stroke="black" points="837,-154.44 841,-160.44 837,-166.44 833,-160.44 837,-154.44"/>
<text text-anchor="middle" x="857" y="-136.8" font-family="Times,serif" font-size="14.00" fill="green">storage</text>
</g>
<!-- models.storage.RollStorageState&#45;&gt;models.roll.MasterRoll -->
<g id="edge12" class="edge">
<title>models.storage.RollStorageState&#45;&gt;models.roll.MasterRoll</title>
<path fill="none" stroke="black" d="M942.09,-295.61C963.23,-310.96 984.34,-328.37 1002,-347 1010.24,-355.69 1017.82,-365.99 1024.43,-376.22"/>
<polygon fill="black" stroke="black" points="1029.75,-384.77 1020.65,-378.65 1027.11,-380.52 1024.47,-376.28 1024.47,-376.28 1024.47,-376.28 1027.11,-380.52 1028.29,-373.9 1029.75,-384.77 1029.75,-384.77"/>
<text text-anchor="middle" x="1017" y="-317.8" font-family="Times,serif" font-size="14.00" fill="green">master_rolls</text>
</g>
<!-- models.storage.StorageState -->
<g id="node23" class="node">
<title>models.storage.StorageState</title>
<polygon fill="none" stroke="black" points="248,-355 248,-499 778,-499 778,-355 248,-355"/>
<text text-anchor="start" x="478.5" y="-483.8" font-family="Times,serif" font-size="14.00">StorageState</text>
<polyline fill="none" stroke="black" points="248,-476 778,-476 "/>
<text text-anchor="start" x="414.5" y="-460.8" font-family="Times,serif" font-size="14.00">rolls : list</text>
<text text-anchor="start" x="414.5" y="-445.8" font-family="Times,serif" font-size="14.00">storage : Optional[Storage]</text>
<text text-anchor="start" x="414.5" y="-430.8" font-family="Times,serif" font-size="14.00">storages : dict[str, RollStorageState]</text>
<polyline fill="none" stroke="black" points="248,-423 778,-423 "/>
<text text-anchor="start" x="256" y="-407.8" font-family="Times,serif" font-size="14.00">can_store(roll: MasterRoll): bool</text>
<text text-anchor="start" x="256" y="-392.8" font-family="Times,serif" font-size="14.00">has_supply(required_master_rolls: list[MasterRoll], allowed_storages: list[RollStorage]): bool</text>
<text text-anchor="start" x="256" y="-377.8" font-family="Times,serif" font-size="14.00">pop(master_roll: MasterRoll, allowed_storages: list[RollStorage]): MasterRoll</text>
<text text-anchor="start" x="256" y="-362.8" font-family="Times,serif" font-size="14.00">store(roll: MasterRoll, allowed_storages: list[RollStorage])</text>
</g>
<!-- models.storage.RollStorageState&#45;&gt;models.storage.StorageState -->
<g id="edge13" class="edge">
<title>models.storage.RollStorageState&#45;&gt;models.storage.StorageState</title>
<path fill="none" stroke="black" d="M730.91,-295.52C702.51,-312.53 671.51,-331.09 642.02,-348.75"/>
<polygon fill="black" stroke="black" points="641.96,-348.78 638.87,-355.3 631.66,-354.95 634.76,-348.43 641.96,-348.78"/>
<text text-anchor="middle" x="717.5" y="-317.8" font-family="Times,serif" font-size="14.00" fill="green">storages</text>
</g>
<!-- models.roll.SlittedMasterRoll -->
<g id="node19" class="node">
<title>models.roll.SlittedMasterRoll</title>
<polygon fill="none" stroke="black" points="1141.5,-195.6 1141.5,-266.4 1254.5,-266.4 1254.5,-195.6 1141.5,-195.6"/>
<text text-anchor="start" x="1149.5" y="-251.2" font-family="Times,serif" font-size="14.00">SlittedMasterRoll</text>
<polyline fill="none" stroke="black" points="1141.5,-243.4 1254.5,-243.4 "/>
<polyline fill="none" stroke="black" points="1141.5,-218.6 1254.5,-218.6 "/>
<text text-anchor="start" x="1196" y="-203.4" font-family="Times,serif" font-size="14.00"> </text>
</g>
<!-- models.roll.SlittedMasterRoll&#45;&gt;models.roll.MasterRoll -->
<g id="edge8" class="edge">
<title>models.roll.SlittedMasterRoll&#45;&gt;models.roll.MasterRoll</title>
<path fill="none" stroke="black" d="M1165.66,-266.5C1145.51,-288.72 1119.6,-318.65 1099,-347 1092.29,-356.24 1085.6,-366.44 1079.44,-376.37"/>
<polygon fill="none" stroke="black" points="1076.4,-374.62 1074.17,-384.98 1082.37,-378.27 1076.4,-374.62"/>
</g>
<!-- models.roll.SlittedMasterRoll&#45;&gt;models.roll.SlittedRoll -->
<g id="edge9" class="edge">
<title>models.roll.SlittedMasterRoll&#45;&gt;models.roll.SlittedRoll</title>
<path fill="none" stroke="black" d="M1208.37,-266.68C1217.95,-298.72 1232.23,-346.49 1242.66,-381.37"/>
<polygon fill="none" stroke="black" points="1239.41,-382.71 1245.62,-391.29 1246.11,-380.71 1239.41,-382.71"/>
</g>
<!-- models.roll.SlittedRoll&#45;&gt;models.cutting_layout.CuttingLayout -->
<g id="edge24" class="edge">
<title>models.roll.SlittedRoll&#45;&gt;models.cutting_layout.CuttingLayout</title>
<path fill="none" stroke="black" d="M1252.9,-462.54C1251.39,-481.04 1249.75,-504.25 1249,-525 1245.48,-622.71 1243.3,-647.39 1249,-745 1249.83,-759.17 1251.2,-774.24 1252.78,-788.74"/>
<polygon fill="none" stroke="black" points="1252.78,-788.82 1257.44,-794.33 1254.14,-800.74 1249.49,-795.23 1252.78,-788.82"/>
<text text-anchor="middle" x="1261.5" y="-631.3" font-family="Times,serif" font-size="14.00" fill="green">rolls</text>
</g>
<!-- models.roll.SlittedRoll&#45;&gt;models.roll.Roll -->
<g id="edge10" class="edge">
<title>models.roll.SlittedRoll&#45;&gt;models.roll.Roll</title>
<path fill="none" stroke="black" d="M1191.24,-462.49C1167.03,-478.46 1141.44,-499.57 1125,-525 1097.04,-568.25 1073.46,-704.82 1060.85,-791"/>
<polygon fill="none" stroke="black" points="1057.37,-790.59 1059.41,-800.99 1064.3,-791.6 1057.37,-790.59"/>
</g>
<!-- models.slitting_machine.SlittingMachine -->
<g id="node21" class="node">
<title>models.slitting_machine.SlittingMachine</title>
<polygon fill="none" stroke="black" points="1831.5,-1019.5 1831.5,-1208.5 2076.5,-1208.5 2076.5,-1019.5 1831.5,-1019.5"/>
<text text-anchor="start" x="1910" y="-1193.3" font-family="Times,serif" font-size="14.00">SlittingMachine</text>
<polyline fill="none" stroke="black" points="1831.5,-1185.5 2076.5,-1185.5 "/>
<text text-anchor="start" x="1839.5" y="-1170.3" font-family="Times,serif" font-size="14.00">edge : float</text>
<text text-anchor="start" x="1839.5" y="-1155.3" font-family="Times,serif" font-size="14.00">full_width</text>
<text text-anchor="start" x="1839.5" y="-1140.3" font-family="Times,serif" font-size="14.00">knife_change_speed : Optional[timedelta]</text>
<text text-anchor="start" x="1839.5" y="-1125.3" font-family="Times,serif" font-size="14.00">knives : Optional[int]</text>
<text text-anchor="start" x="1839.5" y="-1110.3" font-family="Times,serif" font-size="14.00">name</text>
<text text-anchor="start" x="1839.5" y="-1095.3" font-family="Times,serif" font-size="14.00">production_speed : Optional[timedelta]</text>
<text text-anchor="start" x="1839.5" y="-1080.3" font-family="Times,serif" font-size="14.00">small : bool</text>
<text text-anchor="start" x="1839.5" y="-1065.3" font-family="Times,serif" font-size="14.00">width : float</text>
<polyline fill="none" stroke="black" points="1831.5,-1057.5 2076.5,-1057.5 "/>
<text text-anchor="start" x="1883" y="-1042.3" font-family="Times,serif" font-size="14.00">get_equipment_type(): str</text>
<text text-anchor="start" x="1883" y="-1027.3" font-family="Times,serif" font-size="14.00">to_dict(): dict</text>
</g>
<!-- models.slitting_machine.SlittingMachine&#45;&gt;models.event_queue.CuttingPlanCompletion -->
<g id="edge25" class="edge">
<title>models.slitting_machine.SlittingMachine&#45;&gt;models.event_queue.CuttingPlanCompletion</title>
<path fill="none" stroke="black" d="M1897.25,-1208.79C1865.67,-1260.98 1827.31,-1324.37 1799.87,-1369.71"/>
<polygon fill="none" stroke="black" points="1799.71,-1369.99 1800.02,-1377.19 1793.5,-1380.26 1793.18,-1373.05 1799.71,-1369.99"/>
<text text-anchor="middle" x="1890.5" y="-1230.8" font-family="Times,serif" font-size="14.00" fill="green">sm</text>
</g>
<!-- models.storage.Storage -->
<g id="node22" class="node">
<title>models.storage.Storage</title>
<polygon fill="none" stroke="black" points="911.5,-23 911.5,-92 972.5,-92 972.5,-23 911.5,-23"/>
<text text-anchor="start" x="921" y="-76.8" font-family="Times,serif" font-size="14.00">Storage</text>
<polyline fill="none" stroke="black" points="911.5,-69 972.5,-69 "/>
<text text-anchor="start" x="919.5" y="-53.8" font-family="Times,serif" font-size="14.00">storages</text>
<polyline fill="none" stroke="black" points="911.5,-46 972.5,-46 "/>
<text text-anchor="start" x="940" y="-30.8" font-family="Times,serif" font-size="14.00"> </text>
</g>
<!-- models.storage.StorageState&#45;&gt;models.event_queue.GlobalPlanEvent -->
<g id="edge27" class="edge">
<title>models.storage.StorageState&#45;&gt;models.event_queue.GlobalPlanEvent</title>
<path fill="none" stroke="black" d="M539.55,-499.1C565.09,-567.49 604.1,-671.95 633.88,-751.69"/>
<polygon fill="none" stroke="black" points="634,-752.03 639.85,-756.25 638.2,-763.27 632.35,-759.05 634,-752.03"/>
<text text-anchor="middle" x="663.5" y="-631.3" font-family="Times,serif" font-size="14.00" fill="green">storage_state</text>
</g>
<!-- models.workshop.Workshop -->
<g id="node24" class="node">
<title>models.workshop.Workshop</title>
<polygon fill="none" stroke="black" points="990.5,-0.5 990.5,-114.5 1171.5,-114.5 1171.5,-0.5 990.5,-0.5"/>
<text text-anchor="start" x="1052.5" y="-99.3" font-family="Times,serif" font-size="14.00">Workshop</text>
<polyline fill="none" stroke="black" points="990.5,-91.5 1171.5,-91.5 "/>
<text text-anchor="start" x="998.5" y="-76.3" font-family="Times,serif" font-size="14.00">name : str</text>
<text text-anchor="start" x="998.5" y="-61.3" font-family="Times,serif" font-size="14.00">paper_making_machines : list</text>
<text text-anchor="start" x="998.5" y="-46.3" font-family="Times,serif" font-size="14.00">slitting_machines : list</text>
<text text-anchor="start" x="998.5" y="-31.3" font-family="Times,serif" font-size="14.00">storages : list</text>
<polyline fill="none" stroke="black" points="990.5,-23.5 1171.5,-23.5 "/>
<text text-anchor="start" x="1079" y="-8.3" font-family="Times,serif" font-size="14.00"> </text>
</g>
</g>
</svg>
