<?xml version="1.0" encoding="UTF-8" standalone="no"?>
<!DOCTYPE svg PUBLIC "-//W3C//DTD SVG 1.1//EN"
 "http://www.w3.org/Graphics/SVG/1.1/DTD/svg11.dtd">
<!-- Generated by graphviz version 2.43.0 (0)
 -->
<!-- Title: classes_simulation Pages: 1 -->
<svg width="3664pt" height="499pt"
 viewBox="0.00 0.00 3664.00 499.00" xmlns="http://www.w3.org/2000/svg" xmlns:xlink="http://www.w3.org/1999/xlink">
<g id="graph0" class="graph" transform="scale(1 1) rotate(0) translate(4 495)">
<title>classes_simulation</title>
<polygon fill="white" stroke="transparent" points="-4,4 -4,-495 3660,-495 3660,4 -4,4"/>
<!-- simulation.duration.DurationModel -->
<g id="node1" class="node">
<title>simulation.duration.DurationModel</title>
<polygon fill="none" stroke="black" points="0,-89.6 0,-160.4 401,-160.4 401,-89.6 0,-89.6"/>
<text text-anchor="start" x="158" y="-145.2" font-family="Times,serif" font-size="14.00">DurationModel</text>
<polyline fill="none" stroke="black" points="0,-137.4 401,-137.4 "/>
<polyline fill="none" stroke="black" points="0,-112.6 401,-112.6 "/>
<text text-anchor="start" x="8" y="-97.4" font-family="Times,serif" font-size="14.00">sample(planned_duration: timedelta, rng: random.Random): timedelta</text>
</g>
<!-- simulation.result.ExecutedOperation -->
<g id="node2" class="node">
<title>simulation.result.ExecutedOperation</title>
<polygon fill="none" stroke="black" points="418.5,-0.5 418.5,-249.5 594.5,-249.5 594.5,-0.5 418.5,-0.5"/>
<text text-anchor="start" x="454" y="-234.3" font-family="Times,serif" font-size="14.00">ExecutedOperation</text>
<polyline fill="none" stroke="black" points="418.5,-226.5 594.5,-226.5 "/>
<text text-anchor="start" x="426.5" y="-211.3" font-family="Times,serif" font-size="14.00">actual_duration : timedelta</text>
<text text-anchor="start" x="426.5" y="-196.3" font-family="Times,serif" font-size="14.00">actual_end : datetime</text>
<text text-anchor="start" x="426.5" y="-181.3" font-family="Times,serif" font-size="14.00">actual_start : datetime</text>
<text text-anchor="start" x="426.5" y="-166.3" font-family="Times,serif" font-size="14.00">completion_delay : timedelta</text>
<text text-anchor="start" x="426.5" y="-151.3" font-family="Times,serif" font-size="14.00">failure_time : timedelta</text>
<text text-anchor="start" x="426.5" y="-136.3" font-family="Times,serif" font-size="14.00">failures_count : int</text>
<text text-anchor="start" x="426.5" y="-121.3" font-family="Times,serif" font-size="14.00">machine_name : str</text>
<text text-anchor="start" x="426.5" y="-106.3" font-family="Times,serif" font-size="14.00">operation_id : str</text>
<text text-anchor="start" x="426.5" y="-91.3" font-family="Times,serif" font-size="14.00">operation_type : str</text>
<text text-anchor="start" x="426.5" y="-76.3" font-family="Times,serif" font-size="14.00">planned_duration : timedelta</text>
<text text-anchor="start" x="426.5" y="-61.3" font-family="Times,serif" font-size="14.00">planned_end : datetime</text>
<text text-anchor="start" x="426.5" y="-46.3" font-family="Times,serif" font-size="14.00">planned_start : datetime</text>
<text text-anchor="start" x="426.5" y="-31.3" font-family="Times,serif" font-size="14.00">start_delay : timedelta</text>
<polyline fill="none" stroke="black" points="418.5,-23.5 594.5,-23.5 "/>
<text text-anchor="start" x="504.5" y="-8.3" font-family="Times,serif" font-size="14.00"> </text>
</g>
<!-- simulation.experiment.ExperimentResult -->
<g id="node3" class="node">
<title>simulation.experiment.ExperimentResult</title>
<polygon fill="none" stroke="black" points="613,-30.5 613,-219.5 1136,-219.5 1136,-30.5 613,-30.5"/>
<text text-anchor="start" x="825" y="-204.3" font-family="Times,serif" font-size="14.00">ExperimentResult</text>
<polyline fill="none" stroke="black" points="613,-196.5 1136,-196.5 "/>
<text text-anchor="start" x="791" y="-181.3" font-family="Times,serif" font-size="14.00">base_seed : int</text>
<text text-anchor="start" x="791" y="-166.3" font-family="Times,serif" font-size="14.00">deadlock_fraction : float</text>
<text text-anchor="start" x="791" y="-151.3" font-family="Times,serif" font-size="14.00">late_orders_count</text>
<text text-anchor="start" x="791" y="-136.3" font-family="Times,serif" font-size="14.00">makespan_seconds</text>
<text text-anchor="start" x="791" y="-121.3" font-family="Times,serif" font-size="14.00">max_tardiness_seconds</text>
<text text-anchor="start" x="791" y="-106.3" font-family="Times,serif" font-size="14.00">no_late_fraction : float</text>
<text text-anchor="start" x="791" y="-91.3" font-family="Times,serif" font-size="14.00">results : list[SimulationResult]</text>
<text text-anchor="start" x="791" y="-76.3" font-family="Times,serif" font-size="14.00">runs : int</text>
<text text-anchor="start" x="791" y="-61.3" font-family="Times,serif" font-size="14.00">total_tardiness_seconds</text>
<polyline fill="none" stroke="black" points="613,-53.5 1136,-53.5 "/>
<text text-anchor="start" x="621" y="-38.3" font-family="Times,serif" font-size="14.00">from_runs(scenario: SimulationScenario, results: list[SimulationResult]): &#39;ExperimentResult&#39;</text>
</g>
<!-- simulation.experiment.SummaryStatistics -->
<g id="node17" class="node">
<title>simulation.experiment.SummaryStatistics</title>
<polygon fill="none" stroke="black" points="815,-301.5 815,-490.5 934,-490.5 934,-301.5 815,-301.5"/>
<text text-anchor="start" x="823" y="-475.3" font-family="Times,serif" font-size="14.00">SummaryStatistics</text>
<polyline fill="none" stroke="black" points="815,-467.5 934,-467.5 "/>
<text text-anchor="start" x="836" y="-452.3" font-family="Times,serif" font-size="14.00">ci_high : float</text>
<text text-anchor="start" x="836" y="-437.3" font-family="Times,serif" font-size="14.00">ci_low : float</text>
<text text-anchor="start" x="836" y="-422.3" font-family="Times,serif" font-size="14.00">max : float</text>
<text text-anchor="start" x="836" y="-407.3" font-family="Times,serif" font-size="14.00">mean : float</text>
<text text-anchor="start" x="836" y="-392.3" font-family="Times,serif" font-size="14.00">median : float</text>
<text text-anchor="start" x="836" y="-377.3" font-family="Times,serif" font-size="14.00">min : float</text>
<text text-anchor="start" x="836" y="-362.3" font-family="Times,serif" font-size="14.00">q05 : float</text>
<text text-anchor="start" x="836" y="-347.3" font-family="Times,serif" font-size="14.00">q95 : float</text>
<text text-anchor="start" x="836" y="-332.3" font-family="Times,serif" font-size="14.00">stdev : float</text>
<polyline fill="none" stroke="black" points="815,-324.5 934,-324.5 "/>
<text text-anchor="start" x="872.5" y="-309.3" font-family="Times,serif" font-size="14.00"> </text>
</g>
<!-- simulation.experiment.ExperimentResult&#45;&gt;simulation.experiment.SummaryStatistics -->
<g id="edge2" class="edge">
<title>simulation.experiment.ExperimentResult&#45;&gt;simulation.experiment.SummaryStatistics</title>
<path fill="none" stroke="black" d="M693.45,-219.54C678.97,-238.46 674.33,-259.77 687.5,-283 712.65,-327.38 763.17,-356.08 805.36,-373.3"/>
<polygon fill="black" stroke="black" points="814.78,-377.02 803.82,-377.53 810.12,-375.18 805.47,-373.35 805.47,-373.35 805.47,-373.35 810.12,-375.18 807.12,-369.16 814.78,-377.02 814.78,-377.02"/>
<text text-anchor="middle" x="740" y="-271.8" font-family="Times,serif" font-size="14.00" fill="green">makespan_seconds</text>
</g>
<!-- simulation.experiment.ExperimentResult&#45;&gt;simulation.experiment.SummaryStatistics -->
<g id="edge3" class="edge">
<title>simulation.experiment.ExperimentResult&#45;&gt;simulation.experiment.SummaryStatistics</title>
<path fill="none" stroke="black" d="M819.6,-219.51C813.08,-240.14 810.33,-262.08 815.5,-283 816.2,-285.85 817,-288.71 817.86,-291.56"/>
<polygon fill="black" stroke="black" points="821.09,-301.26 813.66,-293.19 819.51,-296.52 817.93,-291.77 817.93,-291.77 817.93,-291.77 819.51,-296.52 822.2,-290.35 821.09,-301.26 821.09,-301.26"/>
<text text-anchor="middle" x="864" y="-271.8" font-family="Times,serif" font-size="14.00" fill="green">late_orders_count</text>
</g>
<!-- simulation.experiment.ExperimentResult&#45;&gt;simulation.experiment.SummaryStatistics -->
<g id="edge4" class="edge">
<title>simulation.experiment.ExperimentResult&#45;&gt;simulation.experiment.SummaryStatistics</title>
<path fill="none" stroke="black" d="M909.85,-219.76C914.11,-240.47 915.9,-262.39 912.5,-283 912.03,-285.85 911.5,-288.72 910.91,-291.61"/>
<polygon fill="black" stroke="black" points="908.71,-301.46 906.5,-290.72 909.8,-296.58 910.89,-291.7 910.89,-291.7 910.89,-291.7 909.8,-296.58 915.28,-292.68 908.71,-301.46 908.71,-301.46"/>
<text text-anchor="middle" x="979" y="-271.8" font-family="Times,serif" font-size="14.00" fill="green">total_tardiness_seconds</text>
</g>
<!-- simulation.experiment.ExperimentResult&#45;&gt;simulation.experiment.SummaryStatistics -->
<g id="edge5" class="edge">
<title>simulation.experiment.ExperimentResult&#45;&gt;simulation.experiment.SummaryStatistics</title>
<path fill="none" stroke="black" d="M1041.07,-219.54C1055.22,-238.65 1060,-260.02 1047.5,-283 1025.44,-323.57 981.65,-351.7 943.65,-369.62"/>
<polygon fill="black" stroke="black" points="934.13,-373.96 941.36,-365.72 938.68,-371.88 943.23,-369.81 943.23,-369.81 943.23,-369.81 938.68,-371.88 945.1,-373.91 934.13,-373.96 934.13,-373.96"/>
<text text-anchor="middle" x="1117" y="-271.8" font-family="Times,serif" font-size="14.00" fill="green">max_tardiness_seconds</text>
</g>
<!-- simulation.metrics.MachineMetrics -->
<g id="node4" class="node">
<title>simulation.metrics.MachineMetrics</title>
<polygon fill="none" stroke="black" points="1154.5,-53 1154.5,-197 1300.5,-197 1300.5,-53 1154.5,-53"/>
<text text-anchor="start" x="1182" y="-181.8" font-family="Times,serif" font-size="14.00">MachineMetrics</text>
<polyline fill="none" stroke="black" points="1154.5,-174 1300.5,-174 "/>
<text text-anchor="start" x="1162.5" y="-158.8" font-family="Times,serif" font-size="14.00">busy_time : timedelta</text>
<text text-anchor="start" x="1162.5" y="-143.8" font-family="Times,serif" font-size="14.00">failure_time : timedelta</text>
<text text-anchor="start" x="1162.5" y="-128.8" font-family="Times,serif" font-size="14.00">failures_count : int</text>
<text text-anchor="start" x="1162.5" y="-113.8" font-family="Times,serif" font-size="14.00">idle_time : timedelta</text>
<text text-anchor="start" x="1162.5" y="-98.8" font-family="Times,serif" font-size="14.00">machine_name : str</text>
<text text-anchor="start" x="1162.5" y="-83.8" font-family="Times,serif" font-size="14.00">operations_count : int</text>
<polyline fill="none" stroke="black" points="1154.5,-76 1300.5,-76 "/>
<text text-anchor="start" x="1225.5" y="-60.8" font-family="Times,serif" font-size="14.00"> </text>
</g>
<!-- simulation.state.MachineState -->
<g id="node5" class="node">
<title>simulation.state.MachineState</title>
<polygon fill="none" stroke="black" points="1319,-45.5 1319,-204.5 1540,-204.5 1540,-45.5 1319,-45.5"/>
<text text-anchor="start" x="1391.5" y="-189.3" font-family="Times,serif" font-size="14.00">MachineState</text>
<polyline fill="none" stroke="black" points="1319,-181.5 1540,-181.5 "/>
<text text-anchor="start" x="1327" y="-166.3" font-family="Times,serif" font-size="14.00">accumulated_busy_time : timedelta</text>
<text text-anchor="start" x="1327" y="-151.3" font-family="Times,serif" font-size="14.00">accumulated_failure_time : timedelta</text>
<text text-anchor="start" x="1327" y="-136.3" font-family="Times,serif" font-size="14.00">accumulated_idle_time : timedelta</text>
<text text-anchor="start" x="1327" y="-121.3" font-family="Times,serif" font-size="14.00">available_at : datetime</text>
<text text-anchor="start" x="1327" y="-106.3" font-family="Times,serif" font-size="14.00">current_operation_id : str | None</text>
<text text-anchor="start" x="1327" y="-91.3" font-family="Times,serif" font-size="14.00">machine_name : str</text>
<text text-anchor="start" x="1327" y="-76.3" font-family="Times,serif" font-size="14.00">status</text>
<polyline fill="none" stroke="black" points="1319,-68.5 1540,-68.5 "/>
<text text-anchor="start" x="1427.5" y="-53.3" font-family="Times,serif" font-size="14.00"> </text>
</g>
<!-- simulation.state.MachineStatus -->
<g id="node6" class="node">
<title>simulation.state.MachineStatus</title>
<polygon fill="none" stroke="black" points="1380.5,-361.5 1380.5,-430.5 1478.5,-430.5 1478.5,-361.5 1380.5,-361.5"/>
<text text-anchor="start" x="1388.5" y="-415.3" font-family="Times,serif" font-size="14.00">MachineStatus</text>
<polyline fill="none" stroke="black" points="1380.5,-407.5 1478.5,-407.5 "/>
<text text-anchor="start" x="1414" y="-392.3" font-family="Times,serif" font-size="14.00">name</text>
<polyline fill="none" stroke="black" points="1380.5,-384.5 1478.5,-384.5 "/>
<text text-anchor="start" x="1427.5" y="-369.3" font-family="Times,serif" font-size="14.00"> </text>
</g>
<!-- simulation.state.MachineState&#45;&gt;simulation.state.MachineStatus -->
<g id="edge6" class="edge">
<title>simulation.state.MachineState&#45;&gt;simulation.state.MachineStatus</title>
<path fill="none" stroke="black" d="M1429.5,-204.53C1429.5,-252.36 1429.5,-311.69 1429.5,-351.3"/>
<polygon fill="black" stroke="black" points="1429.5,-361.42 1425,-351.42 1429.5,-356.42 1429.5,-351.42 1429.5,-351.42 1429.5,-351.42 1429.5,-356.42 1434,-351.42 1429.5,-361.42 1429.5,-361.42"/>
<text text-anchor="middle" x="1445" y="-271.8" font-family="Times,serif" font-size="14.00" fill="green">status</text>
</g>
<!-- simulation.metrics.OrderMetrics -->
<g id="node7" class="node">
<title>simulation.metrics.OrderMetrics</title>
<polygon fill="none" stroke="black" points="1558,-75.5 1558,-174.5 1685,-174.5 1685,-75.5 1558,-75.5"/>
<text text-anchor="start" x="1584.5" y="-159.3" font-family="Times,serif" font-size="14.00">OrderMetrics</text>
<polyline fill="none" stroke="black" points="1558,-151.5 1685,-151.5 "/>
<text text-anchor="start" x="1566" y="-136.3" font-family="Times,serif" font-size="14.00">deadline_met : bool</text>
<text text-anchor="start" x="1566" y="-121.3" font-family="Times,serif" font-size="14.00">order_id : str</text>
<text text-anchor="start" x="1566" y="-106.3" font-family="Times,serif" font-size="14.00">tardiness : timedelta</text>
<polyline fill="none" stroke="black" points="1558,-98.5 1685,-98.5 "/>
<text text-anchor="start" x="1619.5" y="-83.3" font-family="Times,serif" font-size="14.00"> </text>
</g>
<!-- simulation.state.ProductionSystemState -->
<g id="node8" class="node">
<title>simulation.state.ProductionSystemState</title>
<polygon fill="none" stroke="black" points="1703.5,-45.5 1703.5,-204.5 1939.5,-204.5 1939.5,-45.5 1703.5,-45.5"/>
<text text-anchor="start" x="1758" y="-189.3" font-family="Times,serif" font-size="14.00">ProductionSystemState</text>
<polyline fill="none" stroke="black" points="1703.5,-181.5 1939.5,-181.5 "/>
<text text-anchor="start" x="1711.5" y="-166.3" font-family="Times,serif" font-size="14.00">active_events : dict[str, object]</text>
<text text-anchor="start" x="1711.5" y="-151.3" font-family="Times,serif" font-size="14.00">completed_events : list[object]</text>
<text text-anchor="start" x="1711.5" y="-136.3" font-family="Times,serif" font-size="14.00">current_time : datetime</text>
<text text-anchor="start" x="1711.5" y="-121.3" font-family="Times,serif" font-size="14.00">future_storage_state : object</text>
<text text-anchor="start" x="1711.5" y="-106.3" font-family="Times,serif" font-size="14.00">machine_states : dict[str, MachineState]</text>
<text text-anchor="start" x="1711.5" y="-91.3" font-family="Times,serif" font-size="14.00">order_states : dict[str, object]</text>
<text text-anchor="start" x="1711.5" y="-76.3" font-family="Times,serif" font-size="14.00">storage_state : object</text>
<polyline fill="none" stroke="black" points="1703.5,-68.5 1939.5,-68.5 "/>
<text text-anchor="start" x="1819.5" y="-53.3" font-family="Times,serif" font-size="14.00"> </text>
</g>
<!-- simulation.exceptions.SimulationDeadlockError -->
<g id="node9" class="node">
<title>simulation.exceptions.SimulationDeadlockError</title>
<polygon fill="none" stroke="black" points="1958,-75.5 1958,-174.5 2133,-174.5 2133,-75.5 1958,-75.5"/>
<text text-anchor="start" x="1975" y="-159.3" font-family="Times,serif" font-size="14.00" fill="red">SimulationDeadlockError</text>
<polyline fill="none" stroke="black" points="1958,-151.5 2133,-151.5 "/>
<text text-anchor="start" x="1966" y="-136.3" font-family="Times,serif" font-size="14.00" fill="red">current_time : datetime</text>
<text text-anchor="start" x="1966" y="-121.3" font-family="Times,serif" font-size="14.00" fill="red">details : dict[str, Any] | None</text>
<text text-anchor="start" x="1966" y="-106.3" font-family="Times,serif" font-size="14.00" fill="red">message : str</text>
<polyline fill="none" stroke="black" points="1958,-98.5 2133,-98.5 "/>
<text text-anchor="start" x="2043.5" y="-83.3" font-family="Times,serif" font-size="14.00" fill="red"> </text>
</g>
<!-- simulation.engine.SimulationEngine -->
<g id="node10" class="node">
<title>simulation.engine.SimulationEngine</title>
<polygon fill="none" stroke="black" points="1834,-331.5 1834,-460.5 2231,-460.5 2231,-331.5 1834,-331.5"/>
<text text-anchor="start" x="1983" y="-445.3" font-family="Times,serif" font-size="14.00">SimulationEngine</text>
<polyline fill="none" stroke="black" points="1834,-437.5 2231,-437.5 "/>
<text text-anchor="start" x="1984.5" y="-422.3" font-family="Times,serif" font-size="14.00">plan : GlobalPlan</text>
<text text-anchor="start" x="1984.5" y="-407.3" font-family="Times,serif" font-size="14.00">scenario</text>
<text text-anchor="start" x="1984.5" y="-392.3" font-family="Times,serif" font-size="14.00">seed : int</text>
<polyline fill="none" stroke="black" points="1834,-384.5 2231,-384.5 "/>
<text text-anchor="start" x="1842" y="-369.3" font-family="Times,serif" font-size="14.00">detect_deadlock(current_time: datetime, details: dict[str, Any]): None</text>
<text text-anchor="start" x="1842" y="-354.3" font-family="Times,serif" font-size="14.00">run(): SimulationResult</text>
<text text-anchor="start" x="1842" y="-339.3" font-family="Times,serif" font-size="14.00">schedule_event(event: SimulationEvent): None</text>
</g>
<!-- simulation.events.SimulationEvent -->
<g id="node11" class="node">
<title>simulation.events.SimulationEvent</title>
<polygon fill="none" stroke="black" points="2450,-53 2450,-197 2599,-197 2599,-53 2450,-53"/>
<text text-anchor="start" x="2478.5" y="-181.8" font-family="Times,serif" font-size="14.00">SimulationEvent</text>
<polyline fill="none" stroke="black" points="2450,-174 2599,-174 "/>
<text text-anchor="start" x="2458" y="-158.8" font-family="Times,serif" font-size="14.00">event_time : datetime</text>
<text text-anchor="start" x="2458" y="-143.8" font-family="Times,serif" font-size="14.00">event_type</text>
<text text-anchor="start" x="2458" y="-128.8" font-family="Times,serif" font-size="14.00">machine_name : str</text>
<text text-anchor="start" x="2458" y="-113.8" font-family="Times,serif" font-size="14.00">operation_id : str | None</text>
<text text-anchor="start" x="2458" y="-98.8" font-family="Times,serif" font-size="14.00">payload : dict</text>
<text text-anchor="start" x="2458" y="-83.8" font-family="Times,serif" font-size="14.00">sequence_number : int</text>
<polyline fill="none" stroke="black" points="2450,-76 2599,-76 "/>
<text text-anchor="start" x="2522.5" y="-60.8" font-family="Times,serif" font-size="14.00"> </text>
</g>
<!-- simulation.events.SimulationEventType -->
<g id="node12" class="node">
<title>simulation.events.SimulationEventType</title>
<polygon fill="none" stroke="black" points="2456.5,-361.5 2456.5,-430.5 2592.5,-430.5 2592.5,-361.5 2456.5,-361.5"/>
<text text-anchor="start" x="2464.5" y="-415.3" font-family="Times,serif" font-size="14.00">SimulationEventType</text>
<polyline fill="none" stroke="black" points="2456.5,-407.5 2592.5,-407.5 "/>
<text text-anchor="start" x="2509" y="-392.3" font-family="Times,serif" font-size="14.00">name</text>
<polyline fill="none" stroke="black" points="2456.5,-384.5 2592.5,-384.5 "/>
<text text-anchor="start" x="2522.5" y="-369.3" font-family="Times,serif" font-size="14.00"> </text>
</g>
<!-- simulation.events.SimulationEvent&#45;&gt;simulation.events.SimulationEventType -->
<g id="edge1" class="edge">
<title>simulation.events.SimulationEvent&#45;&gt;simulation.events.SimulationEventType</title>
<path fill="none" stroke="black" d="M2524.5,-197.03C2524.5,-245.96 2524.5,-309.44 2524.5,-351.15"/>
<polygon fill="black" stroke="black" points="2524.5,-361.26 2520,-351.26 2524.5,-356.26 2524.5,-351.26 2524.5,-351.26 2524.5,-351.26 2524.5,-356.26 2529,-351.26 2524.5,-361.26 2524.5,-361.26"/>
<text text-anchor="middle" x="2554.5" y="-271.8" font-family="Times,serif" font-size="14.00" fill="green">event_type</text>
</g>
<!-- simulation.experiment.SimulationExperiment -->
<g id="node13" class="node">
<title>simulation.experiment.SimulationExperiment</title>
<polygon fill="none" stroke="black" points="2249.5,-354 2249.5,-438 2403.5,-438 2403.5,-354 2249.5,-354"/>
<text text-anchor="start" x="2264.5" y="-422.8" font-family="Times,serif" font-size="14.00">SimulationExperiment</text>
<polyline fill="none" stroke="black" points="2249.5,-415 2403.5,-415 "/>
<text text-anchor="start" x="2278.5" y="-399.8" font-family="Times,serif" font-size="14.00">plan : GlobalPlan</text>
<text text-anchor="start" x="2278.5" y="-384.8" font-family="Times,serif" font-size="14.00">scenario</text>
<polyline fill="none" stroke="black" points="2249.5,-377 2403.5,-377 "/>
<text text-anchor="start" x="2257.5" y="-361.8" font-family="Times,serif" font-size="14.00">run(): &#39;ExperimentResult&#39;</text>
</g>
<!-- simulation.result.SimulationResult -->
<g id="node14" class="node">
<title>simulation.result.SimulationResult</title>
<polygon fill="none" stroke="black" points="2617,-0.5 2617,-249.5 2878,-249.5 2878,-0.5 2617,-0.5"/>
<text text-anchor="start" x="2700" y="-234.3" font-family="Times,serif" font-size="14.00">SimulationResult</text>
<polyline fill="none" stroke="black" points="2617,-226.5 2878,-226.5 "/>
<text text-anchor="start" x="2625" y="-211.3" font-family="Times,serif" font-size="14.00">completed_at : datetime</text>
<text text-anchor="start" x="2625" y="-196.3" font-family="Times,serif" font-size="14.00">completed_successfully : bool</text>
<text text-anchor="start" x="2625" y="-181.3" font-family="Times,serif" font-size="14.00">deadlock : bool</text>
<text text-anchor="start" x="2625" y="-166.3" font-family="Times,serif" font-size="14.00">events : list[ExecutedOperation]</text>
<text text-anchor="start" x="2625" y="-151.3" font-family="Times,serif" font-size="14.00">late_orders_count : int</text>
<text text-anchor="start" x="2625" y="-136.3" font-family="Times,serif" font-size="14.00">machine_metrics : dict[str, MachineMetrics]</text>
<text text-anchor="start" x="2625" y="-121.3" font-family="Times,serif" font-size="14.00">makespan : timedelta</text>
<text text-anchor="start" x="2625" y="-106.3" font-family="Times,serif" font-size="14.00">max_tardiness : timedelta</text>
<text text-anchor="start" x="2625" y="-91.3" font-family="Times,serif" font-size="14.00">order_metrics : dict[str, OrderMetrics]</text>
<text text-anchor="start" x="2625" y="-76.3" font-family="Times,serif" font-size="14.00">seed : int</text>
<text text-anchor="start" x="2625" y="-61.3" font-family="Times,serif" font-size="14.00">started_at : datetime</text>
<text text-anchor="start" x="2625" y="-46.3" font-family="Times,serif" font-size="14.00">storage_metrics : dict[str, StorageMetrics]</text>
<text text-anchor="start" x="2625" y="-31.3" font-family="Times,serif" font-size="14.00">total_tardiness : timedelta</text>
<polyline fill="none" stroke="black" points="2617,-23.5 2878,-23.5 "/>
<text text-anchor="start" x="2745.5" y="-8.3" font-family="Times,serif" font-size="14.00"> </text>
</g>
<!-- simulation.scenario.SimulationScenario -->
<g id="node15" class="node">
<title>simulation.scenario.SimulationScenario</title>
<polygon fill="none" stroke="black" points="2151.5,-30.5 2151.5,-219.5 2431.5,-219.5 2431.5,-30.5 2151.5,-30.5"/>
<text text-anchor="start" x="2237.5" y="-204.3" font-family="Times,serif" font-size="14.00">SimulationScenario</text>
<polyline fill="none" stroke="black" points="2151.5,-196.5 2431.5,-196.5 "/>
<text text-anchor="start" x="2198" y="-181.3" font-family="Times,serif" font-size="14.00">cutting_failure_rate : float</text>
<text text-anchor="start" x="2198" y="-166.3" font-family="Times,serif" font-size="14.00">cutting_time_deviation : float</text>
<text text-anchor="start" x="2198" y="-151.3" font-family="Times,serif" font-size="14.00">is_baseline : bool</text>
<text text-anchor="start" x="2198" y="-136.3" font-family="Times,serif" font-size="14.00">making_failure_rate : float</text>
<text text-anchor="start" x="2198" y="-121.3" font-family="Times,serif" font-size="14.00">making_time_deviation : float</text>
<text text-anchor="start" x="2198" y="-106.3" font-family="Times,serif" font-size="14.00">mean_repair_time_minutes : float</text>
<text text-anchor="start" x="2198" y="-91.3" font-family="Times,serif" font-size="14.00">runs : int</text>
<text text-anchor="start" x="2198" y="-76.3" font-family="Times,serif" font-size="14.00">seed : int</text>
<text text-anchor="start" x="2198" y="-61.3" font-family="Times,serif" font-size="14.00">setup_time_deviation : float</text>
<polyline fill="none" stroke="black" points="2151.5,-53.5 2431.5,-53.5 "/>
<text text-anchor="start" x="2159.5" y="-38.3" font-family="Times,serif" font-size="14.00">from_json(path: str | Path): &#39;SimulationScenario&#39;</text>
</g>
<!-- simulation.scenario.SimulationScenario&#45;&gt;simulation.engine.SimulationEngine -->
<g id="edge7" class="edge">
<title>simulation.scenario.SimulationScenario&#45;&gt;simulation.engine.SimulationEngine</title>
<path fill="none" stroke="black" d="M2201.28,-219.71C2168.85,-253.38 2132.79,-290.83 2102.36,-322.44"/>
<polygon fill="none" stroke="black" points="2102.26,-322.55 2100.98,-329.65 2093.93,-331.19 2095.21,-324.1 2102.26,-322.55"/>
<text text-anchor="middle" x="2177.5" y="-271.8" font-family="Times,serif" font-size="14.00" fill="green">scenario</text>
</g>
<!-- simulation.scenario.SimulationScenario&#45;&gt;simulation.experiment.SimulationExperiment -->
<g id="edge8" class="edge">
<title>simulation.scenario.SimulationScenario&#45;&gt;simulation.experiment.SimulationExperiment</title>
<path fill="none" stroke="black" d="M2303.69,-219.71C2309,-260.49 2315.02,-306.8 2319.55,-341.57"/>
<polygon fill="none" stroke="black" points="2319.6,-341.93 2324.34,-347.37 2321.14,-353.83 2316.4,-348.4 2319.6,-341.93"/>
<text text-anchor="middle" x="2334.5" y="-271.8" font-family="Times,serif" font-size="14.00" fill="green">scenario</text>
</g>
<!-- simulation.metrics.StorageMetrics -->
<g id="node16" class="node">
<title>simulation.metrics.StorageMetrics</title>
<polygon fill="none" stroke="black" points="2896.5,-60.5 2896.5,-189.5 3046.5,-189.5 3046.5,-60.5 2896.5,-60.5"/>
<text text-anchor="start" x="2929.5" y="-174.3" font-family="Times,serif" font-size="14.00">StorageMetrics</text>
<polyline fill="none" stroke="black" points="2896.5,-166.5 3046.5,-166.5 "/>
<text text-anchor="start" x="2904.5" y="-151.3" font-family="Times,serif" font-size="14.00">average_load : float</text>
<text text-anchor="start" x="2904.5" y="-136.3" font-family="Times,serif" font-size="14.00">capacity : int</text>
<text text-anchor="start" x="2904.5" y="-121.3" font-family="Times,serif" font-size="14.00">full_load_fraction : float</text>
<text text-anchor="start" x="2904.5" y="-106.3" font-family="Times,serif" font-size="14.00">max_load : int</text>
<text text-anchor="start" x="2904.5" y="-91.3" font-family="Times,serif" font-size="14.00">storage_name : str</text>
<polyline fill="none" stroke="black" points="2896.5,-83.5 3046.5,-83.5 "/>
<text text-anchor="start" x="2969.5" y="-68.3" font-family="Times,serif" font-size="14.00"> </text>
</g>
<!-- simulation.duration.UniformRelativeDurationModel -->
<g id="node18" class="node">
<title>simulation.duration.UniformRelativeDurationModel</title>
<polygon fill="none" stroke="black" points="3064,-90.5 3064,-159.5 3465,-159.5 3465,-90.5 3064,-90.5"/>
<text text-anchor="start" x="3176" y="-144.3" font-family="Times,serif" font-size="14.00">UniformRelativeDurationModel</text>
<polyline fill="none" stroke="black" points="3064,-136.5 3465,-136.5 "/>
<text text-anchor="start" x="3221" y="-121.3" font-family="Times,serif" font-size="14.00">deviation : float</text>
<polyline fill="none" stroke="black" points="3064,-113.5 3465,-113.5 "/>
<text text-anchor="start" x="3072" y="-98.3" font-family="Times,serif" font-size="14.00">sample(planned_duration: timedelta, rng: random.Random): timedelta</text>
</g>
<!-- simulation.engine.SimulationEngine._PlannedOperation -->
<g id="node19" class="node">
<title>simulation.engine.SimulationEngine._PlannedOperation</title>
<polygon fill="none" stroke="black" points="3483,-38 3483,-212 3656,-212 3656,-38 3483,-38"/>
<text text-anchor="start" x="3517" y="-196.8" font-family="Times,serif" font-size="14.00">_PlannedOperation</text>
<polyline fill="none" stroke="black" points="3483,-189 3656,-189 "/>
<text text-anchor="start" x="3491" y="-173.8" font-family="Times,serif" font-size="14.00">machine_name : str</text>
<text text-anchor="start" x="3491" y="-158.8" font-family="Times,serif" font-size="14.00">operation_id : str</text>
<text text-anchor="start" x="3491" y="-143.8" font-family="Times,serif" font-size="14.00">operation_type : str</text>
<text text-anchor="start" x="3491" y="-128.8" font-family="Times,serif" font-size="14.00">plan_index : int</text>
<text text-anchor="start" x="3491" y="-113.8" font-family="Times,serif" font-size="14.00">planned_duration : timedelta</text>
<text text-anchor="start" x="3491" y="-98.8" font-family="Times,serif" font-size="14.00">planned_end : datetime</text>
<text text-anchor="start" x="3491" y="-83.8" font-family="Times,serif" font-size="14.00">planned_event : Any</text>
<text text-anchor="start" x="3491" y="-68.8" font-family="Times,serif" font-size="14.00">planned_start : datetime</text>
<polyline fill="none" stroke="black" points="3483,-61 3656,-61 "/>
<text text-anchor="start" x="3567.5" y="-45.8" font-family="Times,serif" font-size="14.00"> </text>
</g>
</g>
</svg>
