<?xml version="1.0" encoding="UTF-8" standalone="no"?>
<!DOCTYPE svg PUBLIC "-//W3C//DTD SVG 1.1//EN"
 "http://www.w3.org/Graphics/SVG/1.1/DTD/svg11.dtd">
<!-- Generated by graphviz version 2.43.0 (0)
 -->
<!-- Title: classes_models Pages: 1 -->
<svg width="1321pt" height="1897pt"
 viewBox="0.00 0.00 1321.00 1897.00" xmlns="http://www.w3.org/2000/svg" xmlns:xlink="http://www.w3.org/1999/xlink">
<g id="graph0" class="graph" transform="scale(1 1) rotate(0) translate(4 1893)">
<title>classes_models</title>
<polygon fill="white" stroke="transparent" points="-4,4 -4,-1893 1317,-1893 1317,4 -4,4"/>
<!-- models.cutting_layout.CuttingLayout -->
<g id="node1" class="node">
<title>models.cutting_layout.CuttingLayout</title>
<polygon fill="none" stroke="black" points="306.5,-621 306.5,-750 545.5,-750 545.5,-621 306.5,-621"/>
<text text-anchor="start" x="386.5" y="-734.8" font-family="Times,serif" font-size="14.00">CuttingLayout</text>
<polyline fill="none" stroke="black" points="306.5,-727 545.5,-727 "/>
<text text-anchor="start" x="314.5" y="-711.8" font-family="Times,serif" font-size="14.00">master_rolls : Optional[list[MasterRoll]]</text>
<text text-anchor="start" x="314.5" y="-696.8" font-family="Times,serif" font-size="14.00">rolls : Optional[list[SlittedRoll]]</text>
<text text-anchor="start" x="314.5" y="-681.8" font-family="Times,serif" font-size="14.00">rolls_dict : dict[SlittedRoll, int]</text>
<text text-anchor="start" x="314.5" y="-666.8" font-family="Times,serif" font-size="14.00">total_width : float</text>
<polyline fill="none" stroke="black" points="306.5,-659 545.5,-659 "/>
<text text-anchor="start" x="328" y="-643.8" font-family="Times,serif" font-size="14.00">is_valid(sm: SlittingMachine): bool</text>
<text text-anchor="start" x="328" y="-628.8" font-family="Times,serif" font-size="14.00">waste(sm: SlittingMachine): float</text>
</g>
<!-- models.cutting_plan.CuttingPlan -->
<g id="node2" class="node">
<title>models.cutting_plan.CuttingPlan</title>
<polygon fill="none" stroke="black" points="330,-854.5 330,-998.5 704,-998.5 704,-854.5 330,-854.5"/>
<text text-anchor="start" x="484.5" y="-983.3" font-family="Times,serif" font-size="14.00">CuttingPlan</text>
<polyline fill="none" stroke="black" points="330,-975.5 704,-975.5 "/>
<text text-anchor="start" x="431" y="-960.3" font-family="Times,serif" font-size="14.00">knife_rearrangements : int</text>
<text text-anchor="start" x="431" y="-945.3" font-family="Times,serif" font-size="14.00">layouts : list[CuttingLayout]</text>
<text text-anchor="start" x="431" y="-930.3" font-family="Times,serif" font-size="14.00">rolls_dict : dict[SlittedRoll, int]</text>
<polyline fill="none" stroke="black" points="330,-922.5 704,-922.5 "/>
<text text-anchor="start" x="338" y="-907.3" font-family="Times,serif" font-size="14.00">is_valid(sm: SlittingMachine): bool</text>
<text text-anchor="start" x="338" y="-892.3" font-family="Times,serif" font-size="14.00">layout_change_time(sm: SlittingMachine, layout_num: int): float</text>
<text text-anchor="start" x="338" y="-877.3" font-family="Times,serif" font-size="14.00">total_time(sm: SlittingMachine): timedelta</text>
<text text-anchor="start" x="338" y="-862.3" font-family="Times,serif" font-size="14.00">total_waste(sm: SlittingMachine)</text>
</g>
<!-- models.cutting_layout.CuttingLayout&#45;&gt;models.cutting_plan.CuttingPlan -->
<g id="edge15" class="edge">
<title>models.cutting_layout.CuttingLayout&#45;&gt;models.cutting_plan.CuttingPlan</title>
<path fill="none" stroke="black" d="M450.27,-750.23C461.1,-778.68 474,-812.56 485.56,-842.92"/>
<polygon fill="none" stroke="black" points="485.64,-843.15 491.52,-847.33 489.91,-854.36 484.04,-850.18 485.64,-843.15"/>
<text text-anchor="middle" x="491" y="-794.8" font-family="Times,serif" font-size="14.00" fill="green">layouts</text>
</g>
<!-- models.event_queue.CuttingPlanCompletion -->
<g id="node3" class="node">
<title>models.event_queue.CuttingPlanCompletion</title>
<polygon fill="none" stroke="black" points="163,-1185.5 163,-1284.5 427,-1284.5 427,-1185.5 163,-1185.5"/>
<text text-anchor="start" x="230" y="-1269.3" font-family="Times,serif" font-size="14.00">CuttingPlanCompletion</text>
<polyline fill="none" stroke="black" points="163,-1261.5 427,-1261.5 "/>
<text text-anchor="start" x="271.5" y="-1246.3" font-family="Times,serif" font-size="14.00">sm</text>
<text text-anchor="start" x="271.5" y="-1231.3" font-family="Times,serif" font-size="14.00">sm_plan</text>
<polyline fill="none" stroke="black" points="163,-1223.5 427,-1223.5 "/>
<text text-anchor="start" x="171" y="-1208.3" font-family="Times,serif" font-size="14.00">cut_one(current_time: datetime)</text>
<text text-anchor="start" x="171" y="-1193.3" font-family="Times,serif" font-size="14.00">has_supply(storage_state: StorageState): bool</text>
</g>
<!-- models.cutting_plan.CuttingPlan&#45;&gt;models.event_queue.CuttingPlanCompletion -->
<g id="edge16" class="edge">
<title>models.cutting_plan.CuttingPlan&#45;&gt;models.event_queue.CuttingPlanCompletion</title>
<path fill="none" stroke="black" d="M465.51,-998.59C426.6,-1052.3 373.85,-1125.14 337.37,-1175.5"/>
<polygon fill="none" stroke="black" points="337.34,-1175.55 337.06,-1182.75 330.3,-1185.26 330.58,-1178.06 337.34,-1175.55"/>
<text text-anchor="middle" x="448.5" y="-1050.8" font-family="Times,serif" font-size="14.00" fill="green">sm_plan</text>
</g>
<!-- models.global_plan.GlobalPlan -->
<g id="node5" class="node">
<title>models.global_plan.GlobalPlan</title>
<polygon fill="none" stroke="black" points="450.5,-1080.5 450.5,-1389.5 749.5,-1389.5 749.5,-1080.5 450.5,-1080.5"/>
<text text-anchor="start" x="569.5" y="-1374.3" font-family="Times,serif" font-size="14.00">GlobalPlan</text>
<polyline fill="none" stroke="black" points="450.5,-1366.5 749.5,-1366.5 "/>
<text text-anchor="start" x="501" y="-1351.3" font-family="Times,serif" font-size="14.00">event_queue : list[GlobalPlanEvent]</text>
<text text-anchor="start" x="501" y="-1336.3" font-family="Times,serif" font-size="14.00">knife_rearrangements</text>
<text text-anchor="start" x="501" y="-1321.3" font-family="Times,serif" font-size="14.00">orders_dict : dict[RollOrder, int]</text>
<text text-anchor="start" x="501" y="-1306.3" font-family="Times,serif" font-size="14.00">pm_plans : list[MakingPlan]</text>
<text text-anchor="start" x="501" y="-1291.3" font-family="Times,serif" font-size="14.00">pms_available</text>
<text text-anchor="start" x="501" y="-1276.3" font-family="Times,serif" font-size="14.00">problem</text>
<text text-anchor="start" x="501" y="-1261.3" font-family="Times,serif" font-size="14.00">sm_count</text>
<text text-anchor="start" x="501" y="-1246.3" font-family="Times,serif" font-size="14.00">sm_plans : list[CuttingPlan]</text>
<text text-anchor="start" x="501" y="-1231.3" font-family="Times,serif" font-size="14.00">sm_plans_dict</text>
<polyline fill="none" stroke="black" points="450.5,-1223.5 749.5,-1223.5 "/>
<text text-anchor="start" x="458.5" y="-1208.3" font-family="Times,serif" font-size="14.00">constaints_satisfied(): bool</text>
<text text-anchor="start" x="458.5" y="-1193.3" font-family="Times,serif" font-size="14.00">has_compatible_pm(master_roll: MasterRoll): bool</text>
<text text-anchor="start" x="458.5" y="-1178.3" font-family="Times,serif" font-size="14.00">is_valid(): bool</text>
<text text-anchor="start" x="458.5" y="-1163.3" font-family="Times,serif" font-size="14.00">max_sm_time(): int</text>
<text text-anchor="start" x="458.5" y="-1148.3" font-family="Times,serif" font-size="14.00">orders_completed(): bool</text>
<text text-anchor="start" x="458.5" y="-1133.3" font-family="Times,serif" font-size="14.00">scores(): tuple</text>
<text text-anchor="start" x="458.5" y="-1118.3" font-family="Times,serif" font-size="14.00">total_time(): timedelta</text>
<text text-anchor="start" x="458.5" y="-1103.3" font-family="Times,serif" font-size="14.00">total_waste()</text>
<text text-anchor="start" x="458.5" y="-1088.3" font-family="Times,serif" font-size="14.00">width_constraint_satisified(): bool</text>
</g>
<!-- models.cutting_plan.CuttingPlan&#45;&gt;models.global_plan.GlobalPlan -->
<g id="edge17" class="edge">
<title>models.cutting_plan.CuttingPlan&#45;&gt;models.global_plan.GlobalPlan</title>
<path fill="none" stroke="black" d="M536.25,-998.59C542,-1019.81 548.55,-1044.01 555.22,-1068.64"/>
<polygon fill="none" stroke="black" points="555.26,-1068.77 560.69,-1073.52 558.39,-1080.36 552.96,-1075.61 555.26,-1068.77"/>
<text text-anchor="middle" x="577" y="-1050.8" font-family="Times,serif" font-size="14.00" fill="green">sm_plans</text>
</g>
<!-- models.event_queue.PlanCompletion -->
<g id="node13" class="node">
<title>models.event_queue.PlanCompletion</title>
<polygon fill="none" stroke="black" points="0,-1759.5 0,-1888.5 246,-1888.5 246,-1759.5 0,-1759.5"/>
<text text-anchor="start" x="78.5" y="-1873.3" font-family="Times,serif" font-size="14.00">PlanCompletion</text>
<polyline fill="none" stroke="black" points="0,-1865.5 246,-1865.5 "/>
<text text-anchor="start" x="16.5" y="-1850.3" font-family="Times,serif" font-size="14.00">last_process_time : Optional[datetime]</text>
<text text-anchor="start" x="16.5" y="-1835.3" font-family="Times,serif" font-size="14.00">plan : int</text>
<text text-anchor="start" x="16.5" y="-1820.3" font-family="Times,serif" font-size="14.00">processed</text>
<text text-anchor="start" x="16.5" y="-1805.3" font-family="Times,serif" font-size="14.00">processed_master_rolls : int</text>
<polyline fill="none" stroke="black" points="0,-1797.5 246,-1797.5 "/>
<text text-anchor="start" x="8" y="-1782.3" font-family="Times,serif" font-size="14.00">is_available(current_time: datetime): bool</text>
<text text-anchor="start" x="8" y="-1767.3" font-family="Times,serif" font-size="14.00">is_completed(): bool</text>
</g>
<!-- models.event_queue.CuttingPlanCompletion&#45;&gt;models.event_queue.PlanCompletion -->
<g id="edge1" class="edge">
<title>models.event_queue.CuttingPlanCompletion&#45;&gt;models.event_queue.PlanCompletion</title>
<path fill="none" stroke="black" d="M239.96,-1284.67C201.15,-1322.82 152.28,-1379.58 130,-1441 93.09,-1542.75 100.39,-1669.98 110.53,-1748.88"/>
<polygon fill="none" stroke="black" points="107.12,-1749.76 111.91,-1759.21 114.06,-1748.83 107.12,-1749.76"/>
</g>
<!-- models.format.Format -->
<g id="node4" class="node">
<title>models.format.Format</title>
<polygon fill="none" stroke="black" points="172.5,-892 172.5,-961 255.5,-961 255.5,-892 172.5,-892"/>
<text text-anchor="start" x="194" y="-945.8" font-family="Times,serif" font-size="14.00">Format</text>
<polyline fill="none" stroke="black" points="172.5,-938 255.5,-938 "/>
<text text-anchor="start" x="180.5" y="-922.8" font-family="Times,serif" font-size="14.00">width : float</text>
<polyline fill="none" stroke="black" points="172.5,-915 255.5,-915 "/>
<text text-anchor="start" x="212" y="-899.8" font-family="Times,serif" font-size="14.00"> </text>
</g>
<!-- models.event_queue.GlobalPlanEvent -->
<g id="node6" class="node">
<title>models.event_queue.GlobalPlanEvent</title>
<polygon fill="none" stroke="black" points="934,-1464 934,-1563 1064,-1563 1064,-1464 934,-1464"/>
<text text-anchor="start" x="952.5" y="-1547.8" font-family="Times,serif" font-size="14.00">GlobalPlanEvent</text>
<polyline fill="none" stroke="black" points="934,-1540 1064,-1540 "/>
<text text-anchor="start" x="942" y="-1524.8" font-family="Times,serif" font-size="14.00">end_time : datetime</text>
<text text-anchor="start" x="942" y="-1509.8" font-family="Times,serif" font-size="14.00">start_time : datetime</text>
<text text-anchor="start" x="942" y="-1494.8" font-family="Times,serif" font-size="14.00">storage_state</text>
<polyline fill="none" stroke="black" points="934,-1487 1064,-1487 "/>
<text text-anchor="start" x="997" y="-1471.8" font-family="Times,serif" font-size="14.00"> </text>
</g>
<!-- models.global_plan.GlobalPlan&#45;&gt;models.event_queue.GlobalPlanEvent -->
<g id="edge11" class="edge">
<title>models.global_plan.GlobalPlan&#45;&gt;models.event_queue.GlobalPlanEvent</title>
<path fill="none" stroke="black" d="M749.63,-1383.12C752.75,-1385.47 755.87,-1387.76 759,-1390 810.84,-1427.06 875.46,-1459.37 924.59,-1481.48"/>
<polygon fill="black" stroke="black" points="933.89,-1485.63 922.92,-1485.67 929.32,-1483.59 924.76,-1481.56 924.76,-1481.56 924.76,-1481.56 929.32,-1483.59 926.59,-1477.45 933.89,-1485.63 933.89,-1485.63"/>
<text text-anchor="middle" x="842.5" y="-1411.8" font-family="Times,serif" font-size="14.00" fill="green">event_queue</text>
</g>
<!-- models.making_plan.MakingPlan -->
<g id="node9" class="node">
<title>models.making_plan.MakingPlan</title>
<polygon fill="none" stroke="black" points="473,-1456.5 473,-1570.5 733,-1570.5 733,-1456.5 473,-1456.5"/>
<text text-anchor="start" x="569.5" y="-1555.3" font-family="Times,serif" font-size="14.00">MakingPlan</text>
<polyline fill="none" stroke="black" points="473,-1547.5 733,-1547.5 "/>
<text text-anchor="start" x="520" y="-1532.3" font-family="Times,serif" font-size="14.00">master_rolls : list[MasterRoll]</text>
<text text-anchor="start" x="520" y="-1517.3" font-family="Times,serif" font-size="14.00">master_rolls_count : int</text>
<polyline fill="none" stroke="black" points="473,-1509.5 733,-1509.5 "/>
<text text-anchor="start" x="481" y="-1494.3" font-family="Times,serif" font-size="14.00">add_master_roll(master_roll: MasterRoll)</text>
<text text-anchor="start" x="481" y="-1479.3" font-family="Times,serif" font-size="14.00">is_valid(brands_ordered: list[str])</text>
<text text-anchor="start" x="481" y="-1464.3" font-family="Times,serif" font-size="14.00">total_time(pm: PaperMakingMachine): float</text>
</g>
<!-- models.global_plan.GlobalPlan&#45;&gt;models.making_plan.MakingPlan -->
<g id="edge12" class="edge">
<title>models.global_plan.GlobalPlan&#45;&gt;models.making_plan.MakingPlan</title>
<path fill="none" stroke="black" d="M601.67,-1389.61C601.88,-1409.38 602.09,-1428.72 602.28,-1445.99"/>
<polygon fill="black" stroke="black" points="602.39,-1456.46 597.78,-1446.51 602.34,-1451.46 602.28,-1446.46 602.28,-1446.46 602.28,-1446.46 602.34,-1451.46 606.78,-1446.41 602.39,-1456.46 602.39,-1456.46"/>
<text text-anchor="middle" x="628" y="-1411.8" font-family="Times,serif" font-size="14.00" fill="green">pm_plans</text>
</g>
<!-- models.event_queue.GlobalPlanPaperMakingMachineEvent -->
<g id="node7" class="node">
<title>models.event_queue.GlobalPlanPaperMakingMachineEvent</title>
<polygon fill="none" stroke="black" points="768,-1178 768,-1292 998,-1292 998,-1178 768,-1178"/>
<text text-anchor="start" x="776" y="-1276.8" font-family="Times,serif" font-size="14.00">GlobalPlanPaperMakingMachineEvent</text>
<polyline fill="none" stroke="black" points="768,-1269 998,-1269 "/>
<text text-anchor="start" x="851.5" y="-1253.8" font-family="Times,serif" font-size="14.00">master_roll</text>
<text text-anchor="start" x="851.5" y="-1238.8" font-family="Times,serif" font-size="14.00">plan</text>
<text text-anchor="start" x="851.5" y="-1223.8" font-family="Times,serif" font-size="14.00">pm</text>
<text text-anchor="start" x="851.5" y="-1208.8" font-family="Times,serif" font-size="14.00">processed</text>
<polyline fill="none" stroke="black" points="768,-1201 998,-1201 "/>
<text text-anchor="start" x="881" y="-1185.8" font-family="Times,serif" font-size="14.00"> </text>
</g>
<!-- models.event_queue.GlobalPlanPaperMakingMachineEvent&#45;&gt;models.event_queue.GlobalPlanEvent -->
<g id="edge2" class="edge">
<title>models.event_queue.GlobalPlanPaperMakingMachineEvent&#45;&gt;models.event_queue.GlobalPlanEvent</title>
<path fill="none" stroke="black" d="M906.61,-1292.29C926.43,-1339.51 954.61,-1406.7 974.63,-1454.42"/>
<polygon fill="none" stroke="black" points="971.43,-1455.82 978.52,-1463.69 977.88,-1453.11 971.43,-1455.82"/>
</g>
<!-- models.event_queue.GlobalPlanSlittingMachineEvent -->
<g id="node8" class="node">
<title>models.event_queue.GlobalPlanSlittingMachineEvent</title>
<polygon fill="none" stroke="black" points="1016.5,-1155.5 1016.5,-1314.5 1213.5,-1314.5 1213.5,-1155.5 1016.5,-1155.5"/>
<text text-anchor="start" x="1024.5" y="-1299.3" font-family="Times,serif" font-size="14.00">GlobalPlanSlittingMachineEvent</text>
<polyline fill="none" stroke="black" points="1016.5,-1291.5 1213.5,-1291.5 "/>
<text text-anchor="start" x="1055.5" y="-1276.3" font-family="Times,serif" font-size="14.00">knife_rearrangements</text>
<text text-anchor="start" x="1055.5" y="-1261.3" font-family="Times,serif" font-size="14.00">layout</text>
<text text-anchor="start" x="1055.5" y="-1246.3" font-family="Times,serif" font-size="14.00">layout_num</text>
<text text-anchor="start" x="1055.5" y="-1231.3" font-family="Times,serif" font-size="14.00">plan</text>
<text text-anchor="start" x="1055.5" y="-1216.3" font-family="Times,serif" font-size="14.00">processed</text>
<text text-anchor="start" x="1055.5" y="-1201.3" font-family="Times,serif" font-size="14.00">sm</text>
<text text-anchor="start" x="1055.5" y="-1186.3" font-family="Times,serif" font-size="14.00">waste</text>
<polyline fill="none" stroke="black" points="1016.5,-1178.5 1213.5,-1178.5 "/>
<text text-anchor="start" x="1113" y="-1163.3" font-family="Times,serif" font-size="14.00"> </text>
</g>
<!-- models.event_queue.GlobalPlanSlittingMachineEvent&#45;&gt;models.event_queue.GlobalPlanEvent -->
<g id="edge3" class="edge">
<title>models.event_queue.GlobalPlanSlittingMachineEvent&#45;&gt;models.event_queue.GlobalPlanEvent</title>
<path fill="none" stroke="black" d="M1081.91,-1314.86C1063.25,-1359.34 1040.34,-1413.95 1023.34,-1454.48"/>
<polygon fill="none" stroke="black" points="1020.01,-1453.37 1019.37,-1463.95 1026.46,-1456.08 1020.01,-1453.37"/>
</g>
<!-- models.event_queue.MakingPlanCompletion -->
<g id="node10" class="node">
<title>models.event_queue.MakingPlanCompletion</title>
<polygon fill="none" stroke="black" points="139,-1637.5 139,-1721.5 581,-1721.5 581,-1637.5 139,-1637.5"/>
<text text-anchor="start" x="294" y="-1706.3" font-family="Times,serif" font-size="14.00">MakingPlanCompletion</text>
<polyline fill="none" stroke="black" points="139,-1698.5 581,-1698.5 "/>
<text text-anchor="start" x="335.5" y="-1683.3" font-family="Times,serif" font-size="14.00">pm</text>
<text text-anchor="start" x="335.5" y="-1668.3" font-family="Times,serif" font-size="14.00">pm_plan</text>
<polyline fill="none" stroke="black" points="139,-1660.5 581,-1660.5 "/>
<text text-anchor="start" x="147" y="-1645.3" font-family="Times,serif" font-size="14.00">produce_one(current_time: datetime, brand_chage_speed: dict[str, timedelta])</text>
</g>
<!-- models.making_plan.MakingPlan&#45;&gt;models.event_queue.MakingPlanCompletion -->
<g id="edge18" class="edge">
<title>models.making_plan.MakingPlan&#45;&gt;models.event_queue.MakingPlanCompletion</title>
<path fill="none" stroke="black" d="M519.71,-1570.71C490.84,-1590.2 458.75,-1611.85 430.96,-1630.61"/>
<polygon fill="none" stroke="black" points="430.88,-1630.67 428.14,-1637.34 420.93,-1637.38 423.67,-1630.71 430.88,-1630.67"/>
<text text-anchor="middle" x="490.5" y="-1607.8" font-family="Times,serif" font-size="14.00" fill="green">pm_plan</text>
</g>
<!-- models.event_queue.MakingPlanCompletion&#45;&gt;models.event_queue.PlanCompletion -->
<g id="edge4" class="edge">
<title>models.event_queue.MakingPlanCompletion&#45;&gt;models.event_queue.PlanCompletion</title>
<path fill="none" stroke="black" d="M291.77,-1721.53C274.77,-1731.75 256.07,-1742.99 237.51,-1754.15"/>
<polygon fill="none" stroke="black" points="235.48,-1751.29 228.71,-1759.44 239.08,-1757.29 235.48,-1751.29"/>
</g>
<!-- models.roll.MasterRoll -->
<g id="node11" class="node">
<title>models.roll.MasterRoll</title>
<polygon fill="none" stroke="black" points="182,-332.5 182,-416.5 260,-416.5 260,-332.5 182,-332.5"/>
<text text-anchor="start" x="190" y="-401.3" font-family="Times,serif" font-size="14.00">MasterRoll</text>
<polyline fill="none" stroke="black" points="182,-393.5 260,-393.5 "/>
<text text-anchor="start" x="190" y="-378.3" font-family="Times,serif" font-size="14.00">edge : float</text>
<text text-anchor="start" x="190" y="-363.3" font-family="Times,serif" font-size="14.00">full_width</text>
<polyline fill="none" stroke="black" points="182,-355.5 260,-355.5 "/>
<text text-anchor="start" x="219" y="-340.3" font-family="Times,serif" font-size="14.00"> </text>
</g>
<!-- models.roll.MasterRoll&#45;&gt;models.cutting_layout.CuttingLayout -->
<g id="edge22" class="edge">
<title>models.roll.MasterRoll&#45;&gt;models.cutting_layout.CuttingLayout</title>
<path fill="none" stroke="black" d="M247.43,-416.84C274.04,-458.3 316.42,-523.87 354,-580 360.66,-589.95 367.75,-600.4 374.77,-610.67"/>
<polygon fill="none" stroke="black" points="374.97,-610.96 381.66,-613.64 381.75,-620.86 375.06,-618.17 374.97,-610.96"/>
<text text-anchor="middle" x="388" y="-503.8" font-family="Times,serif" font-size="14.00" fill="green">master_rolls</text>
</g>
<!-- models.roll.MasterRoll&#45;&gt;models.making_plan.MakingPlan -->
<g id="edge23" class="edge">
<title>models.roll.MasterRoll&#45;&gt;models.making_plan.MakingPlan</title>
<path fill="none" stroke="black" d="M189.69,-416.98C149.81,-474.05 86,-581.47 86,-684.5 86,-684.5 86,-684.5 86,-1236 86,-1310.82 94.85,-1344.18 154,-1390 264.39,-1475.5 331.42,-1397.2 464,-1441 473.16,-1444.03 482.46,-1447.59 491.67,-1451.48"/>
<polygon fill="none" stroke="black" points="491.87,-1451.57 498.97,-1450.31 502.86,-1456.39 495.76,-1457.64 491.87,-1451.57"/>
<text text-anchor="middle" x="120" y="-922.8" font-family="Times,serif" font-size="14.00" fill="green">master_rolls</text>
</g>
<!-- models.roll.Roll -->
<g id="node15" class="node">
<title>models.roll.Roll</title>
<polygon fill="none" stroke="black" points="140,-621 140,-750 288,-750 288,-621 140,-621"/>
<text text-anchor="start" x="202" y="-734.8" font-family="Times,serif" font-size="14.00">Roll</text>
<polyline fill="none" stroke="black" points="140,-727 288,-727 "/>
<text text-anchor="start" x="148" y="-711.8" font-family="Times,serif" font-size="14.00">brand : Optional[str]</text>
<text text-anchor="start" x="148" y="-696.8" font-family="Times,serif" font-size="14.00">density : Optional[float]</text>
<text text-anchor="start" x="148" y="-681.8" font-family="Times,serif" font-size="14.00">layers : int</text>
<text text-anchor="start" x="148" y="-666.8" font-family="Times,serif" font-size="14.00">small : bool</text>
<text text-anchor="start" x="148" y="-651.8" font-family="Times,serif" font-size="14.00">width : float</text>
<polyline fill="none" stroke="black" points="140,-644 288,-644 "/>
<text text-anchor="start" x="212" y="-628.8" font-family="Times,serif" font-size="14.00"> </text>
</g>
<!-- models.roll.MasterRoll&#45;&gt;models.roll.Roll -->
<g id="edge6" class="edge">
<title>models.roll.MasterRoll&#45;&gt;models.roll.Roll</title>
<path fill="none" stroke="black" d="M220.07,-416.53C218.95,-465.88 217.05,-549.66 215.68,-610.42"/>
<polygon fill="none" stroke="black" points="212.17,-610.65 215.44,-620.72 219.17,-610.81 212.17,-610.65"/>
</g>
<!-- models.pm_machine.PaperMakingMachine -->
<g id="node12" class="node">
<title>models.pm_machine.PaperMakingMachine</title>
<polygon fill="none" stroke="black" points="139,-1441.5 139,-1585.5 455,-1585.5 455,-1441.5 139,-1441.5"/>
<text text-anchor="start" x="236" y="-1570.3" font-family="Times,serif" font-size="14.00">PaperMakingMachine</text>
<polyline fill="none" stroke="black" points="139,-1562.5 455,-1562.5 "/>
<text text-anchor="start" x="147" y="-1547.3" font-family="Times,serif" font-size="14.00">density_change_speed_per_gram : Optional[timedelta]</text>
<text text-anchor="start" x="147" y="-1532.3" font-family="Times,serif" font-size="14.00">edge : float</text>
<text text-anchor="start" x="147" y="-1517.3" font-family="Times,serif" font-size="14.00">full_width</text>
<text text-anchor="start" x="147" y="-1502.3" font-family="Times,serif" font-size="14.00">name</text>
<text text-anchor="start" x="147" y="-1487.3" font-family="Times,serif" font-size="14.00">production_speed : Optional[timedelta]</text>
<text text-anchor="start" x="147" y="-1472.3" font-family="Times,serif" font-size="14.00">width : float</text>
<polyline fill="none" stroke="black" points="139,-1464.5 455,-1464.5 "/>
<text text-anchor="start" x="259.5" y="-1449.3" font-family="Times,serif" font-size="14.00">to_dict(): dict</text>
</g>
<!-- models.pm_machine.PaperMakingMachine&#45;&gt;models.event_queue.MakingPlanCompletion -->
<g id="edge20" class="edge">
<title>models.pm_machine.PaperMakingMachine&#45;&gt;models.event_queue.MakingPlanCompletion</title>
<path fill="none" stroke="black" d="M324.45,-1585.96C329.63,-1599.44 334.96,-1613.31 339.86,-1626.07"/>
<polygon fill="none" stroke="black" points="339.92,-1626.24 345.81,-1630.4 344.23,-1637.44 338.34,-1633.27 339.92,-1626.24"/>
<text text-anchor="middle" x="344.5" y="-1607.8" font-family="Times,serif" font-size="14.00" fill="green">pm</text>
</g>
<!-- models.problem.Problem -->
<g id="node14" class="node">
<title>models.problem.Problem</title>
<polygon fill="none" stroke="black" points="722.5,-824.5 722.5,-1028.5 1001.5,-1028.5 1001.5,-824.5 722.5,-824.5"/>
<text text-anchor="start" x="838.5" y="-1013.3" font-family="Times,serif" font-size="14.00">Problem</text>
<polyline fill="none" stroke="black" points="722.5,-1005.5 1001.5,-1005.5 "/>
<text text-anchor="start" x="730.5" y="-990.3" font-family="Times,serif" font-size="14.00">brand_change_speeds : Optional[list[timedelta]]</text>
<text text-anchor="start" x="730.5" y="-975.3" font-family="Times,serif" font-size="14.00">brands_ordered : Optional[list[str]]</text>
<text text-anchor="start" x="730.5" y="-960.3" font-family="Times,serif" font-size="14.00">has_time_limit</text>
<text text-anchor="start" x="730.5" y="-945.3" font-family="Times,serif" font-size="14.00">master_roll_edge_width : float</text>
<text text-anchor="start" x="730.5" y="-930.3" font-family="Times,serif" font-size="14.00">orders : list[RollOrder]</text>
<text text-anchor="start" x="730.5" y="-915.3" font-family="Times,serif" font-size="14.00">orders_dict : dict[RollOrder, int]</text>
<text text-anchor="start" x="730.5" y="-900.3" font-family="Times,serif" font-size="14.00">paper_making_machines : list</text>
<text text-anchor="start" x="730.5" y="-885.3" font-family="Times,serif" font-size="14.00">slitting_machines : list[SlittingMachine]</text>
<text text-anchor="start" x="730.5" y="-870.3" font-family="Times,serif" font-size="14.00">start_time : datetime</text>
<text text-anchor="start" x="730.5" y="-855.3" font-family="Times,serif" font-size="14.00">storage : Optional[Storage]</text>
<polyline fill="none" stroke="black" points="722.5,-847.5 1001.5,-847.5 "/>
<text text-anchor="start" x="860" y="-832.3" font-family="Times,serif" font-size="14.00"> </text>
</g>
<!-- models.problem.Problem&#45;&gt;models.global_plan.GlobalPlan -->
<g id="edge21" class="edge">
<title>models.problem.Problem&#45;&gt;models.global_plan.GlobalPlan</title>
<path fill="none" stroke="black" d="M775.49,-1028.71C763.87,-1042.3 751.72,-1056.51 739.48,-1070.83"/>
<polygon fill="none" stroke="black" points="739.22,-1071.13 738.36,-1078.29 731.42,-1080.25 732.28,-1073.09 739.22,-1071.13"/>
<text text-anchor="middle" x="777" y="-1050.8" font-family="Times,serif" font-size="14.00" fill="green">problem</text>
</g>
<!-- models.roll.Roll&#45;&gt;models.format.Format -->
<g id="edge7" class="edge">
<title>models.roll.Roll&#45;&gt;models.format.Format</title>
<path fill="none" stroke="black" d="M214,-750.23C214,-791.64 214,-844.56 214,-881.37"/>
<polygon fill="none" stroke="black" points="210.5,-881.77 214,-891.77 217.5,-881.77 210.5,-881.77"/>
</g>
<!-- models.order.RollOrder -->
<g id="node16" class="node">
<title>models.order.RollOrder</title>
<polygon fill="none" stroke="black" points="747.5,-166.5 747.5,-265.5 924.5,-265.5 924.5,-166.5 747.5,-166.5"/>
<text text-anchor="start" x="808.5" y="-250.3" font-family="Times,serif" font-size="14.00">RollOrder</text>
<polyline fill="none" stroke="black" points="747.5,-242.5 924.5,-242.5 "/>
<text text-anchor="start" x="755.5" y="-227.3" font-family="Times,serif" font-size="14.00">deadline : Optional[datetime]</text>
<text text-anchor="start" x="755.5" y="-212.3" font-family="Times,serif" font-size="14.00">name : Optional[str]</text>
<text text-anchor="start" x="755.5" y="-197.3" font-family="Times,serif" font-size="14.00">quantity : int</text>
<polyline fill="none" stroke="black" points="747.5,-189.5 924.5,-189.5 "/>
<text text-anchor="start" x="801" y="-174.3" font-family="Times,serif" font-size="14.00">roll_str(): str</text>
</g>
<!-- models.order.RollOrder&#45;&gt;models.problem.Problem -->
<g id="edge19" class="edge">
<title>models.order.RollOrder&#45;&gt;models.problem.Problem</title>
<path fill="none" stroke="black" d="M837.79,-265.7C841.89,-377.52 852.08,-655.11 857.85,-812.29"/>
<polygon fill="none" stroke="black" points="857.85,-812.33 862.06,-818.18 858.29,-824.32 854.07,-818.48 857.85,-812.33"/>
<text text-anchor="middle" x="866" y="-503.8" font-family="Times,serif" font-size="14.00" fill="green">orders</text>
</g>
<!-- models.roll.SlittedRoll -->
<g id="node20" class="node">
<title>models.roll.SlittedRoll</title>
<polygon fill="none" stroke="black" points="278,-339.1 278,-409.9 574,-409.9 574,-339.1 278,-339.1"/>
<text text-anchor="start" x="396.5" y="-394.7" font-family="Times,serif" font-size="14.00">SlittedRoll</text>
<polyline fill="none" stroke="black" points="278,-386.9 574,-386.9 "/>
<polyline fill="none" stroke="black" points="278,-362.1 574,-362.1 "/>
<text text-anchor="start" x="286" y="-346.9" font-family="Times,serif" font-size="14.00">is_compatible(master_rolls: list[MasterRoll]): bool</text>
</g>
<!-- models.order.RollOrder&#45;&gt;models.roll.SlittedRoll -->
<g id="edge5" class="edge">
<title>models.order.RollOrder&#45;&gt;models.roll.SlittedRoll</title>
<path fill="none" stroke="black" d="M763.53,-265.65C755.01,-270.97 746.37,-276.19 738,-281 709.56,-297.33 702.8,-302.74 672,-314 644.1,-324.2 613.78,-333.16 584.26,-340.83"/>
<polygon fill="none" stroke="black" points="583.11,-337.51 574.29,-343.38 584.84,-344.29 583.11,-337.51"/>
</g>
<!-- models.storage.RollStorage -->
<g id="node17" class="node">
<title>models.storage.RollStorage</title>
<polygon fill="none" stroke="black" points="459.5,-0.5 459.5,-99.5 572.5,-99.5 572.5,-0.5 459.5,-0.5"/>
<text text-anchor="start" x="483.5" y="-84.3" font-family="Times,serif" font-size="14.00">RollStorage</text>
<polyline fill="none" stroke="black" points="459.5,-76.5 572.5,-76.5 "/>
<text text-anchor="start" x="467.5" y="-61.3" font-family="Times,serif" font-size="14.00">name : str</text>
<text text-anchor="start" x="467.5" y="-46.3" font-family="Times,serif" font-size="14.00">roll_capacity : int</text>
<text text-anchor="start" x="467.5" y="-31.3" font-family="Times,serif" font-size="14.00">roll_width : float</text>
<polyline fill="none" stroke="black" points="459.5,-23.5 572.5,-23.5 "/>
<text text-anchor="start" x="514" y="-8.3" font-family="Times,serif" font-size="14.00"> </text>
</g>
<!-- models.storage.RollStorageState -->
<g id="node18" class="node">
<title>models.storage.RollStorageState</title>
<polygon fill="none" stroke="black" points="303.5,-151.5 303.5,-280.5 728.5,-280.5 728.5,-151.5 303.5,-151.5"/>
<text text-anchor="start" x="470" y="-265.3" font-family="Times,serif" font-size="14.00">RollStorageState</text>
<polyline fill="none" stroke="black" points="303.5,-257.5 728.5,-257.5 "/>
<text text-anchor="start" x="433" y="-242.3" font-family="Times,serif" font-size="14.00">master_rolls : list[MasterRoll]</text>
<text text-anchor="start" x="433" y="-227.3" font-family="Times,serif" font-size="14.00">storage</text>
<polyline fill="none" stroke="black" points="303.5,-219.5 728.5,-219.5 "/>
<text text-anchor="start" x="311.5" y="-204.3" font-family="Times,serif" font-size="14.00">can_store(roll: MasterRoll): bool</text>
<text text-anchor="start" x="311.5" y="-189.3" font-family="Times,serif" font-size="14.00">get_supply(master_roll: MasterRoll, used_master_rolls_indexes: set): bool</text>
<text text-anchor="start" x="311.5" y="-174.3" font-family="Times,serif" font-size="14.00">pop(master_roll: MasterRoll): MasterRoll</text>
<text text-anchor="start" x="311.5" y="-159.3" font-family="Times,serif" font-size="14.00">store(roll: MasterRoll)</text>
</g>
<!-- models.storage.RollStorage&#45;&gt;models.storage.RollStorageState -->
<g id="edge27" class="edge">
<title>models.storage.RollStorage&#45;&gt;models.storage.RollStorageState</title>
<path fill="none" stroke="black" d="M516,-99.76C516,-112.12 516,-125.7 516,-139.06"/>
<polygon fill="none" stroke="black" points="516,-139.22 520,-145.22 516,-151.22 512,-145.22 516,-139.22"/>
<text text-anchor="middle" x="536" y="-121.8" font-family="Times,serif" font-size="14.00" fill="green">storage</text>
</g>
<!-- models.storage.RollStorageState&#45;&gt;models.roll.MasterRoll -->
<g id="edge13" class="edge">
<title>models.storage.RollStorageState&#45;&gt;models.roll.MasterRoll</title>
<path fill="none" stroke="black" d="M362.24,-280.52C330.53,-295.83 297.99,-313.24 269,-332 268.82,-332.12 268.63,-332.24 268.44,-332.36"/>
<polygon fill="black" stroke="black" points="260.14,-338.18 265.75,-328.76 264.23,-335.31 268.33,-332.44 268.33,-332.44 268.33,-332.44 264.23,-335.31 270.91,-336.13 260.14,-338.18 260.14,-338.18"/>
<text text-anchor="middle" x="354" y="-302.8" font-family="Times,serif" font-size="14.00" fill="green">master_rolls</text>
</g>
<!-- models.storage.StorageState -->
<g id="node23" class="node">
<title>models.storage.StorageState</title>
<polygon fill="none" stroke="black" points="478,-435.5 478,-579.5 810,-579.5 810,-435.5 478,-435.5"/>
<text text-anchor="start" x="609.5" y="-564.3" font-family="Times,serif" font-size="14.00">StorageState</text>
<polyline fill="none" stroke="black" points="478,-556.5 810,-556.5 "/>
<text text-anchor="start" x="545.5" y="-541.3" font-family="Times,serif" font-size="14.00">rolls : list</text>
<text text-anchor="start" x="545.5" y="-526.3" font-family="Times,serif" font-size="14.00">storage : Optional[Storage]</text>
<text text-anchor="start" x="545.5" y="-511.3" font-family="Times,serif" font-size="14.00">storages : dict[str, RollStorageState]</text>
<polyline fill="none" stroke="black" points="478,-503.5 810,-503.5 "/>
<text text-anchor="start" x="486" y="-488.3" font-family="Times,serif" font-size="14.00">can_store(roll: MasterRoll): bool</text>
<text text-anchor="start" x="486" y="-473.3" font-family="Times,serif" font-size="14.00">has_supply(required_master_rolls: list[MasterRoll]): bool</text>
<text text-anchor="start" x="486" y="-458.3" font-family="Times,serif" font-size="14.00">pop(master_roll: MasterRoll): MasterRoll</text>
<text text-anchor="start" x="486" y="-443.3" font-family="Times,serif" font-size="14.00">store(roll: MasterRoll)</text>
</g>
<!-- models.storage.RollStorageState&#45;&gt;models.storage.StorageState -->
<g id="edge14" class="edge">
<title>models.storage.RollStorageState&#45;&gt;models.storage.StorageState</title>
<path fill="none" stroke="black" d="M555.96,-280.62C565.46,-297.03 575.12,-314.9 583,-332 596.46,-361.2 608.73,-394.28 618.68,-423.72"/>
<polygon fill="black" stroke="black" points="618.72,-423.85 624.41,-428.28 622.51,-435.24 616.82,-430.81 618.72,-423.85"/>
<text text-anchor="middle" x="595.5" y="-302.8" font-family="Times,serif" font-size="14.00" fill="green">storages</text>
</g>
<!-- models.roll.SlittedMasterRoll -->
<g id="node19" class="node">
<title>models.roll.SlittedMasterRoll</title>
<polygon fill="none" stroke="black" points="171.5,-180.6 171.5,-251.4 284.5,-251.4 284.5,-180.6 171.5,-180.6"/>
<text text-anchor="start" x="179.5" y="-236.2" font-family="Times,serif" font-size="14.00">SlittedMasterRoll</text>
<polyline fill="none" stroke="black" points="171.5,-228.4 284.5,-228.4 "/>
<polyline fill="none" stroke="black" points="171.5,-203.6 284.5,-203.6 "/>
<text text-anchor="start" x="226" y="-188.4" font-family="Times,serif" font-size="14.00"> </text>
</g>
<!-- models.roll.SlittedMasterRoll&#45;&gt;models.roll.MasterRoll -->
<g id="edge8" class="edge">
<title>models.roll.SlittedMasterRoll&#45;&gt;models.roll.MasterRoll</title>
<path fill="none" stroke="black" d="M226.45,-251.73C225.52,-272.52 224.32,-299.32 223.28,-322.48"/>
<polygon fill="none" stroke="black" points="219.78,-322.34 222.83,-332.49 226.78,-322.65 219.78,-322.34"/>
</g>
<!-- models.roll.SlittedMasterRoll&#45;&gt;models.roll.SlittedRoll -->
<g id="edge9" class="edge">
<title>models.roll.SlittedMasterRoll&#45;&gt;models.roll.SlittedRoll</title>
<path fill="none" stroke="black" d="M261.64,-251.62C271.74,-261.46 283.05,-271.95 294,-281 316,-299.18 341.41,-317.55 364.04,-333.08"/>
<polygon fill="none" stroke="black" points="362.32,-336.15 372.56,-338.88 366.26,-330.36 362.32,-336.15"/>
</g>
<!-- models.roll.SlittedRoll&#45;&gt;models.cutting_layout.CuttingLayout -->
<g id="edge24" class="edge">
<title>models.roll.SlittedRoll&#45;&gt;models.cutting_layout.CuttingLayout</title>
<path fill="none" stroke="black" d="M426,-410.05C426,-457.74 426,-545.02 426,-608.38"/>
<polygon fill="none" stroke="black" points="426,-608.71 430,-614.71 426,-620.71 422,-614.71 426,-608.71"/>
<text text-anchor="middle" x="438.5" y="-503.8" font-family="Times,serif" font-size="14.00" fill="green">rolls</text>
</g>
<!-- models.roll.SlittedRoll&#45;&gt;models.roll.Roll -->
<g id="edge10" class="edge">
<title>models.roll.SlittedRoll&#45;&gt;models.roll.Roll</title>
<path fill="none" stroke="black" d="M419.5,-410.12C409.1,-461.99 387.38,-556.31 363,-580 341.5,-600.89 323.79,-582.71 298,-598 290.2,-602.63 282.63,-608.16 275.44,-614.17"/>
<polygon fill="none" stroke="black" points="273.02,-611.64 267.8,-620.85 277.63,-616.91 273.02,-611.64"/>
</g>
<!-- models.slitting_machine.SlittingMachine -->
<g id="node21" class="node">
<title>models.slitting_machine.SlittingMachine</title>
<polygon fill="none" stroke="black" points="575.5,-598.5 575.5,-772.5 820.5,-772.5 820.5,-598.5 575.5,-598.5"/>
<text text-anchor="start" x="654" y="-757.3" font-family="Times,serif" font-size="14.00">SlittingMachine</text>
<polyline fill="none" stroke="black" points="575.5,-749.5 820.5,-749.5 "/>
<text text-anchor="start" x="583.5" y="-734.3" font-family="Times,serif" font-size="14.00">edge : float</text>
<text text-anchor="start" x="583.5" y="-719.3" font-family="Times,serif" font-size="14.00">full_width</text>
<text text-anchor="start" x="583.5" y="-704.3" font-family="Times,serif" font-size="14.00">knife_change_speed : Optional[timedelta]</text>
<text text-anchor="start" x="583.5" y="-689.3" font-family="Times,serif" font-size="14.00">knives : Optional[int]</text>
<text text-anchor="start" x="583.5" y="-674.3" font-family="Times,serif" font-size="14.00">name</text>
<text text-anchor="start" x="583.5" y="-659.3" font-family="Times,serif" font-size="14.00">production_speed : Optional[timedelta]</text>
<text text-anchor="start" x="583.5" y="-644.3" font-family="Times,serif" font-size="14.00">small : bool</text>
<text text-anchor="start" x="583.5" y="-629.3" font-family="Times,serif" font-size="14.00">width : float</text>
<polyline fill="none" stroke="black" points="575.5,-621.5 820.5,-621.5 "/>
<text text-anchor="start" x="660.5" y="-606.3" font-family="Times,serif" font-size="14.00">to_dict(): dict</text>
</g>
<!-- models.slitting_machine.SlittingMachine&#45;&gt;models.event_queue.CuttingPlanCompletion -->
<g id="edge25" class="edge">
<title>models.slitting_machine.SlittingMachine&#45;&gt;models.event_queue.CuttingPlanCompletion</title>
<path fill="none" stroke="black" d="M575.33,-764.24C568.56,-767.41 561.76,-770.36 555,-773 448.96,-814.4 377,-736.65 304,-824 261.1,-875.33 276.33,-1072.21 287.47,-1173.31"/>
<polygon fill="none" stroke="black" points="287.49,-1173.52 292.14,-1179.03 288.84,-1185.44 284.19,-1179.93 287.49,-1173.52"/>
<text text-anchor="middle" x="312.5" y="-922.8" font-family="Times,serif" font-size="14.00" fill="green">sm</text>
</g>
<!-- models.slitting_machine.SlittingMachine&#45;&gt;models.problem.Problem -->
<g id="edge26" class="edge">
<title>models.slitting_machine.SlittingMachine&#45;&gt;models.problem.Problem</title>
<path fill="none" stroke="black" d="M726.14,-772.51C731.36,-784.15 737.31,-795.63 744,-806 745.79,-808.77 747.66,-811.54 749.58,-814.29"/>
<polygon fill="none" stroke="black" points="749.72,-814.48 756.49,-816.95 756.81,-824.15 750.04,-821.68 749.72,-814.48"/>
<text text-anchor="middle" x="792.5" y="-794.8" font-family="Times,serif" font-size="14.00" fill="green">slitting_machines</text>
</g>
<!-- models.storage.Storage -->
<g id="node22" class="node">
<title>models.storage.Storage</title>
<polygon fill="none" stroke="black" points="590.5,-15.5 590.5,-84.5 651.5,-84.5 651.5,-15.5 590.5,-15.5"/>
<text text-anchor="start" x="600" y="-69.3" font-family="Times,serif" font-size="14.00">Storage</text>
<polyline fill="none" stroke="black" points="590.5,-61.5 651.5,-61.5 "/>
<text text-anchor="start" x="598.5" y="-46.3" font-family="Times,serif" font-size="14.00">storages</text>
<polyline fill="none" stroke="black" points="590.5,-38.5 651.5,-38.5 "/>
<text text-anchor="start" x="619" y="-23.3" font-family="Times,serif" font-size="14.00"> </text>
</g>
<!-- models.storage.StorageState&#45;&gt;models.event_queue.GlobalPlanEvent -->
<g id="edge28" class="edge">
<title>models.storage.StorageState&#45;&gt;models.event_queue.GlobalPlanEvent</title>
<path fill="none" stroke="black" d="M810.18,-571.39C987.14,-640.88 1242,-749.32 1242,-797.5 1242,-797.5 1242,-797.5 1242,-1236 1242,-1304.96 1261.74,-1332.95 1223,-1390 1188.58,-1440.69 1126.02,-1472.35 1075.74,-1490.76"/>
<polygon fill="none" stroke="black" points="1075.55,-1490.83 1071.23,-1496.6 1064.24,-1494.82 1068.57,-1489.05 1075.55,-1490.83"/>
<text text-anchor="middle" x="1277.5" y="-922.8" font-family="Times,serif" font-size="14.00" fill="green">storage_state</text>
</g>
</g>
</svg>
