<?xml version="1.0" encoding="UTF-8" standalone="no"?>
<!DOCTYPE svg PUBLIC "-//W3C//DTD SVG 1.1//EN"
 "http://www.w3.org/Graphics/SVG/1.1/DTD/svg11.dtd">
<!-- Generated by graphviz version 2.43.0 (0)
 -->
<!-- Title: classes_algo Pages: 1 -->
<svg width="836pt" height="228pt"
 viewBox="0.00 0.00 835.50 228.00" xmlns="http://www.w3.org/2000/svg" xmlns:xlink="http://www.w3.org/1999/xlink">
<g id="graph0" class="graph" transform="scale(1 1) rotate(0) translate(4 224)">
<title>classes_algo</title>
<polygon fill="white" stroke="transparent" points="-4,4 -4,-224 831.5,-224 831.5,4 -4,4"/>
<!-- algo.sm_plans_builder.CuttingPlansBuilder -->
<g id="node1" class="node">
<title>algo.sm_plans_builder.CuttingPlansBuilder</title>
<polygon fill="none" stroke="black" points="0,-60.5 0,-159.5 288,-159.5 288,-60.5 0,-60.5"/>
<text text-anchor="start" x="88.5" y="-144.3" font-family="Times,serif" font-size="14.00">CuttingPlansBuilder</text>
<polyline fill="none" stroke="black" points="0,-136.5 288,-136.5 "/>
<text text-anchor="start" x="50.5" y="-121.3" font-family="Times,serif" font-size="14.00">plans : Optional[list[CuttingPlan]]</text>
<text text-anchor="start" x="50.5" y="-106.3" font-family="Times,serif" font-size="14.00">problem : Problem</text>
<polyline fill="none" stroke="black" points="0,-98.5 288,-98.5 "/>
<text text-anchor="start" x="8" y="-83.3" font-family="Times,serif" font-size="14.00">add_plan_roll(sm_pos: int, roll: SlittedRoll): bool</text>
<text text-anchor="start" x="8" y="-68.3" font-family="Times,serif" font-size="14.00">get_plans(): list[CuttingPlan]</text>
</g>
<!-- algo.event_queue_builder.GlobalPlanEventQueueBuilder -->
<g id="node2" class="node">
<title>algo.event_queue_builder.GlobalPlanEventQueueBuilder</title>
<polygon fill="none" stroke="black" points="306,-0.5 306,-219.5 578,-219.5 578,-0.5 306,-0.5"/>
<text text-anchor="start" x="357.5" y="-204.3" font-family="Times,serif" font-size="14.00">GlobalPlanEventQueueBuilder</text>
<polyline fill="none" stroke="black" points="306,-196.5 578,-196.5 "/>
<text text-anchor="start" x="347" y="-181.3" font-family="Times,serif" font-size="14.00">current_time</text>
<text text-anchor="start" x="347" y="-166.3" font-family="Times,serif" font-size="14.00">event_queue : list</text>
<text text-anchor="start" x="347" y="-151.3" font-family="Times,serif" font-size="14.00">future_storage_state : StorageState</text>
<text text-anchor="start" x="347" y="-136.3" font-family="Times,serif" font-size="14.00">history_event_queue : list</text>
<text text-anchor="start" x="347" y="-121.3" font-family="Times,serif" font-size="14.00">pm_completions : tuple</text>
<text text-anchor="start" x="347" y="-106.3" font-family="Times,serif" font-size="14.00">pm_plans : list[MakingPlan]</text>
<text text-anchor="start" x="347" y="-91.3" font-family="Times,serif" font-size="14.00">pms_available : bool</text>
<text text-anchor="start" x="347" y="-76.3" font-family="Times,serif" font-size="14.00">problem : Problem</text>
<text text-anchor="start" x="347" y="-61.3" font-family="Times,serif" font-size="14.00">sm_completions</text>
<text text-anchor="start" x="347" y="-46.3" font-family="Times,serif" font-size="14.00">sm_plans : list[CuttingPlan]</text>
<text text-anchor="start" x="347" y="-31.3" font-family="Times,serif" font-size="14.00">storage_state : StorageState</text>
<polyline fill="none" stroke="black" points="306,-23.5 578,-23.5 "/>
<text text-anchor="start" x="314" y="-8.3" font-family="Times,serif" font-size="14.00">generate_event_queue(): list[GlobalPlanEvent]</text>
</g>
<!-- algo.pmm_plans_builder.GlobalPlanPMPlansBuilder -->
<g id="node3" class="node">
<title>algo.pmm_plans_builder.GlobalPlanPMPlansBuilder</title>
<polygon fill="none" stroke="black" points="596.5,-68 596.5,-152 827.5,-152 827.5,-68 596.5,-68"/>
<text text-anchor="start" x="636.5" y="-136.8" font-family="Times,serif" font-size="14.00">GlobalPlanPMPlansBuilder</text>
<polyline fill="none" stroke="black" points="596.5,-129 827.5,-129 "/>
<text text-anchor="start" x="635" y="-113.8" font-family="Times,serif" font-size="14.00">problem : Problem</text>
<text text-anchor="start" x="635" y="-98.8" font-family="Times,serif" font-size="14.00">sm_plans : list[CuttingPlan]</text>
<polyline fill="none" stroke="black" points="596.5,-91 827.5,-91 "/>
<text text-anchor="start" x="604.5" y="-75.8" font-family="Times,serif" font-size="14.00">generate_pm_plans(): list[MakingPlan]</text>
</g>
</g>
</svg>
