<?xml version="1.0" encoding="UTF-8" standalone="no"?>
<!DOCTYPE svg PUBLIC "-//W3C//DTD SVG 1.1//EN"
 "http://www.w3.org/Graphics/SVG/1.1/DTD/svg11.dtd">
<!-- Generated by graphviz version 2.43.0 (0)
 -->
<!-- Title: packages_algo Pages: 1 -->
<svg width="1313pt" height="404pt"
 viewBox="0.00 0.00 1313.21 404.00" xmlns="http://www.w3.org/2000/svg" xmlns:xlink="http://www.w3.org/1999/xlink">
<g id="graph0" class="graph" transform="scale(1 1) rotate(0) translate(4 400)">
<title>packages_algo</title>
<polygon fill="white" stroke="transparent" points="-4,4 -4,-400 1309.21,-400 1309.21,4 -4,4"/>
<!-- algo -->
<g id="node1" class="node">
<title>algo</title>
<polygon fill="none" stroke="black" points="607.71,-180 553.71,-180 553.71,-144 607.71,-144 607.71,-180"/>
<text text-anchor="middle" x="580.71" y="-158.3" font-family="Times,serif" font-size="14.00">algo</text>
</g>
<!-- algo.crossingover -->
<g id="node2" class="node">
<title>algo.crossingover</title>
<polygon fill="none" stroke="black" points="512.21,-324 399.21,-324 399.21,-288 512.21,-288 512.21,-324"/>
<text text-anchor="middle" x="455.71" y="-302.3" font-family="Times,serif" font-size="14.00">algo.crossingover</text>
</g>
<!-- algo&#45;&gt;algo.crossingover -->
<g id="edge1" class="edge">
<title>algo&#45;&gt;algo.crossingover</title>
<path fill="none" stroke="black" d="M565.63,-180.13C543.67,-205.08 502.76,-251.55 477.52,-280.23"/>
<polygon fill="black" stroke="black" points="470.84,-287.81 474.07,-277.33 474.15,-284.06 477.45,-280.3 477.45,-280.3 477.45,-280.3 474.15,-284.06 480.83,-283.28 470.84,-287.81 470.84,-287.81"/>
</g>
<!-- algo.event_queue_builder -->
<g id="node3" class="node">
<title>algo.event_queue_builder</title>
<polygon fill="none" stroke="black" points="497.21,-396 340.21,-396 340.21,-360 497.21,-360 497.21,-396"/>
<text text-anchor="middle" x="418.71" y="-374.3" font-family="Times,serif" font-size="14.00">algo.event_queue_builder</text>
</g>
<!-- algo&#45;&gt;algo.event_queue_builder -->
<g id="edge2" class="edge">
<title>algo&#45;&gt;algo.event_queue_builder</title>
<path fill="none" stroke="black" d="M553.69,-162.97C485.71,-164.56 307.8,-179.37 234.71,-288 205.77,-331.02 269.81,-353.92 330.11,-365.66"/>
<polygon fill="black" stroke="black" points="340.14,-367.52 329.48,-370.12 335.22,-366.61 330.3,-365.7 330.3,-365.7 330.3,-365.7 335.22,-366.61 331.12,-361.27 340.14,-367.52 340.14,-367.52"/>
</g>
<!-- algo.full_enumeration -->
<g id="node4" class="node">
<title>algo.full_enumeration</title>
<polygon fill="none" stroke="black" points="381.21,-324 244.21,-324 244.21,-288 381.21,-288 381.21,-324"/>
<text text-anchor="middle" x="312.71" y="-302.3" font-family="Times,serif" font-size="14.00">algo.full_enumeration</text>
</g>
<!-- algo&#45;&gt;algo.full_enumeration -->
<g id="edge3" class="edge">
<title>algo&#45;&gt;algo.full_enumeration</title>
<path fill="none" stroke="black" d="M553.54,-177.4C506.39,-202.38 409.19,-253.88 353.77,-283.24"/>
<polygon fill="black" stroke="black" points="344.92,-287.93 351.65,-279.28 349.34,-285.59 353.76,-283.25 353.76,-283.25 353.76,-283.25 349.34,-285.59 355.86,-287.23 344.92,-287.93 344.92,-287.93"/>
</g>
<!-- algo.genetic_search -->
<g id="node5" class="node">
<title>algo.genetic_search</title>
<polygon fill="none" stroke="black" points="687.71,-252 563.71,-252 563.71,-216 687.71,-216 687.71,-252"/>
<text text-anchor="middle" x="625.71" y="-230.3" font-family="Times,serif" font-size="14.00">algo.genetic_search</text>
</g>
<!-- algo&#45;&gt;algo.genetic_search -->
<g id="edge4" class="edge">
<title>algo&#45;&gt;algo.genetic_search</title>
<path fill="none" stroke="black" d="M591.83,-180.3C597.07,-188.44 603.41,-198.31 609.19,-207.3"/>
<polygon fill="black" stroke="black" points="614.72,-215.9 605.52,-209.92 612.01,-211.69 609.31,-207.48 609.31,-207.48 609.31,-207.48 612.01,-211.69 613.09,-205.05 614.72,-215.9 614.72,-215.9"/>
</g>
<!-- algo.global_mutate -->
<g id="node6" class="node">
<title>algo.global_mutate</title>
<polygon fill="none" stroke="black" points="826.71,-324 704.71,-324 704.71,-288 826.71,-288 826.71,-324"/>
<text text-anchor="middle" x="765.71" y="-302.3" font-family="Times,serif" font-size="14.00">algo.global_mutate</text>
</g>
<!-- algo&#45;&gt;algo.global_mutate -->
<g id="edge5" class="edge">
<title>algo&#45;&gt;algo.global_mutate</title>
<path fill="none" stroke="black" d="M608.07,-171.29C632.96,-179.76 669.81,-194.69 696.71,-216 718.94,-233.61 738.13,-259.83 750.59,-279.25"/>
<polygon fill="black" stroke="black" points="755.98,-287.91 746.87,-281.81 753.34,-283.67 750.69,-279.43 750.69,-279.43 750.69,-279.43 753.34,-283.67 754.51,-277.04 755.98,-287.91 755.98,-287.91"/>
</g>
<!-- algo.mutate -->
<g id="node7" class="node">
<title>algo.mutate</title>
<polygon fill="none" stroke="black" points="869.21,-396 788.21,-396 788.21,-360 869.21,-360 869.21,-396"/>
<text text-anchor="middle" x="828.71" y="-374.3" font-family="Times,serif" font-size="14.00">algo.mutate</text>
</g>
<!-- algo&#45;&gt;algo.mutate -->
<g id="edge6" class="edge">
<title>algo&#45;&gt;algo.mutate</title>
<path fill="none" stroke="black" d="M607.83,-163.82C651.5,-166.32 738.55,-176.34 798.71,-216 832.11,-238.02 840.06,-250.05 852.71,-288 859.63,-308.75 852.32,-332.72 844,-350.55"/>
<polygon fill="black" stroke="black" points="839.36,-359.76 839.84,-348.81 841.61,-355.3 843.86,-350.83 843.86,-350.83 843.86,-350.83 841.61,-355.3 847.88,-352.85 839.36,-359.76 839.36,-359.76"/>
</g>
<!-- algo.pmm_plans_builder -->
<g id="node8" class="node">
<title>algo.pmm_plans_builder</title>
<polygon fill="none" stroke="black" points="277.21,-396 124.21,-396 124.21,-360 277.21,-360 277.21,-396"/>
<text text-anchor="middle" x="200.71" y="-374.3" font-family="Times,serif" font-size="14.00">algo.pmm_plans_builder</text>
</g>
<!-- algo&#45;&gt;algo.pmm_plans_builder -->
<g id="edge7" class="edge">
<title>algo&#45;&gt;algo.pmm_plans_builder</title>
<path fill="none" stroke="black" d="M553.44,-164.5C485.24,-168.74 309.41,-182.68 262.71,-216 219.33,-246.96 206.3,-312.66 202.39,-349.85"/>
<polygon fill="black" stroke="black" points="201.48,-359.97 197.89,-349.61 201.93,-354.99 202.37,-350.01 202.37,-350.01 202.37,-350.01 201.93,-354.99 206.86,-350.42 201.48,-359.97 201.48,-359.97"/>
</g>
<!-- algo.random_global_plan -->
<g id="node9" class="node">
<title>algo.random_global_plan</title>
<polygon fill="none" stroke="black" points="686.71,-324 530.71,-324 530.71,-288 686.71,-288 686.71,-324"/>
<text text-anchor="middle" x="608.71" y="-302.3" font-family="Times,serif" font-size="14.00">algo.random_global_plan</text>
</g>
<!-- algo&#45;&gt;algo.random_global_plan -->
<g id="edge8" class="edge">
<title>algo&#45;&gt;algo.random_global_plan</title>
<path fill="none" stroke="black" d="M568.89,-180.12C557.87,-198.34 544.56,-227.81 554.71,-252 559.35,-263.05 567.55,-272.96 576.17,-281.14"/>
<polygon fill="black" stroke="black" points="583.78,-287.86 573.31,-284.61 580.04,-284.55 576.29,-281.24 576.29,-281.24 576.29,-281.24 580.04,-284.55 579.27,-277.87 583.78,-287.86 583.78,-287.86"/>
</g>
<!-- algo.sm_plans_builder -->
<g id="node10" class="node">
<title>algo.sm_plans_builder</title>
<polygon fill="none" stroke="black" points="678.71,-396 538.71,-396 538.71,-360 678.71,-360 678.71,-396"/>
<text text-anchor="middle" x="608.71" y="-374.3" font-family="Times,serif" font-size="14.00">algo.sm_plans_builder</text>
</g>
<!-- algo&#45;&gt;algo.sm_plans_builder -->
<g id="edge9" class="edge">
<title>algo&#45;&gt;algo.sm_plans_builder</title>
<path fill="none" stroke="black" d="M607.8,-166.21C663.58,-174.51 789.88,-202.36 835.71,-288 843.26,-302.11 845.66,-311.47 835.71,-324 817.44,-347.03 746.8,-360.99 689.12,-368.76"/>
<polygon fill="black" stroke="black" points="678.88,-370.09 688.22,-364.34 683.84,-369.44 688.8,-368.8 688.8,-368.8 688.8,-368.8 683.84,-369.44 689.38,-373.26 678.88,-370.09 678.88,-370.09"/>
</g>
<!-- algo.full_enumeration&#45;&gt;algo.event_queue_builder -->
<g id="edge10" class="edge">
<title>algo.full_enumeration&#45;&gt;algo.event_queue_builder</title>
<path fill="none" stroke="black" d="M338.64,-324.12C352.37,-333.19 369.42,-344.45 384.25,-354.24"/>
<polygon fill="black" stroke="black" points="392.68,-359.81 381.86,-358.05 388.51,-357.05 384.34,-354.3 384.34,-354.3 384.34,-354.3 388.51,-357.05 386.82,-350.54 392.68,-359.81 392.68,-359.81"/>
</g>
<!-- algo.full_enumeration&#45;&gt;algo.pmm_plans_builder -->
<g id="edge11" class="edge">
<title>algo.full_enumeration&#45;&gt;algo.pmm_plans_builder</title>
<path fill="none" stroke="black" d="M285.31,-324.12C270.8,-333.19 252.8,-344.45 237.13,-354.24"/>
<polygon fill="black" stroke="black" points="228.21,-359.81 234.31,-350.69 232.45,-357.16 236.69,-354.51 236.69,-354.51 236.69,-354.51 232.45,-357.16 239.08,-358.33 228.21,-359.81 228.21,-359.81"/>
</g>
<!-- algo.full_enumeration&#45;&gt;algo.sm_plans_builder -->
<g id="edge12" class="edge">
<title>algo.full_enumeration&#45;&gt;algo.sm_plans_builder</title>
<path fill="none" stroke="black" d="M381.36,-323.24C425.36,-333.64 482.63,-347.18 528.69,-358.08"/>
<polygon fill="black" stroke="black" points="538.63,-360.43 527.87,-362.51 533.77,-359.28 528.9,-358.13 528.9,-358.13 528.9,-358.13 533.77,-359.28 529.94,-353.75 538.63,-360.43 538.63,-360.43"/>
</g>
<!-- algo.genetic_search&#45;&gt;algo.crossingover -->
<g id="edge13" class="edge">
<title>algo.genetic_search&#45;&gt;algo.crossingover</title>
<path fill="none" stroke="black" d="M584.12,-252.12C560.68,-261.78 531.21,-273.91 506.41,-284.12"/>
<polygon fill="black" stroke="black" points="497.16,-287.93 504.7,-279.96 501.79,-286.03 506.41,-284.12 506.41,-284.12 506.41,-284.12 501.79,-286.03 508.12,-288.29 497.16,-287.93 497.16,-287.93"/>
</g>
<!-- algo.genetic_search&#45;&gt;algo.global_mutate -->
<g id="edge14" class="edge">
<title>algo.genetic_search&#45;&gt;algo.global_mutate</title>
<path fill="none" stroke="black" d="M659.96,-252.12C678.77,-261.53 702.3,-273.29 722.38,-283.33"/>
<polygon fill="black" stroke="black" points="731.33,-287.81 720.38,-287.36 726.86,-285.57 722.39,-283.34 722.39,-283.34 722.39,-283.34 726.86,-285.57 724.4,-279.31 731.33,-287.81 731.33,-287.81"/>
</g>
<!-- algo.genetic_search&#45;&gt;algo.random_global_plan -->
<g id="edge15" class="edge">
<title>algo.genetic_search&#45;&gt;algo.random_global_plan</title>
<path fill="none" stroke="black" d="M621.51,-252.3C619.62,-260.1 617.33,-269.49 615.23,-278.17"/>
<polygon fill="black" stroke="black" points="612.87,-287.9 610.85,-277.12 614.05,-283.04 615.23,-278.18 615.23,-278.18 615.23,-278.18 614.05,-283.04 619.6,-279.24 612.87,-287.9 612.87,-287.9"/>
</g>
<!-- algo.global_mutate&#45;&gt;algo.event_queue_builder -->
<g id="edge16" class="edge">
<title>algo.global_mutate&#45;&gt;algo.event_queue_builder</title>
<path fill="none" stroke="black" d="M704.67,-322.01C701.64,-322.7 698.64,-323.36 695.71,-324 632.99,-337.61 561.87,-351.18 507.4,-361.18"/>
<polygon fill="black" stroke="black" points="497.42,-363 506.45,-356.78 502.34,-362.1 507.26,-361.2 507.26,-361.2 507.26,-361.2 502.34,-362.1 508.07,-365.63 497.42,-363 497.42,-363"/>
</g>
<!-- algo.global_mutate&#45;&gt;algo.mutate -->
<g id="edge17" class="edge">
<title>algo.global_mutate&#45;&gt;algo.mutate</title>
<path fill="none" stroke="black" d="M781.28,-324.3C788.91,-332.78 798.23,-343.14 806.59,-352.42"/>
<polygon fill="black" stroke="black" points="813.32,-359.9 803.28,-355.47 809.97,-356.18 806.63,-352.46 806.63,-352.46 806.63,-352.46 809.97,-356.18 809.97,-349.45 813.32,-359.9 813.32,-359.9"/>
</g>
<!-- algo.random_global_plan&#45;&gt;algo.event_queue_builder -->
<g id="edge18" class="edge">
<title>algo.random_global_plan&#45;&gt;algo.event_queue_builder</title>
<path fill="none" stroke="black" d="M562.23,-324.12C535.8,-333.86 502.51,-346.13 474.65,-356.39"/>
<polygon fill="black" stroke="black" points="465.04,-359.93 472.87,-352.25 469.73,-358.2 474.42,-356.47 474.42,-356.47 474.42,-356.47 469.73,-358.2 475.98,-360.7 465.04,-359.93 465.04,-359.93"/>
</g>
<!-- algo.random_global_plan&#45;&gt;algo.pmm_plans_builder -->
<g id="edge19" class="edge">
<title>algo.random_global_plan&#45;&gt;algo.pmm_plans_builder</title>
<path fill="none" stroke="black" d="M530.52,-322.22C527.21,-322.83 523.93,-323.42 520.71,-324 441.92,-338.13 351.97,-352.91 287.54,-363.26"/>
<polygon fill="black" stroke="black" points="277.43,-364.88 286.59,-358.86 282.37,-364.09 287.3,-363.3 287.3,-363.3 287.3,-363.3 282.37,-364.09 288.02,-367.74 277.43,-364.88 277.43,-364.88"/>
</g>
<!-- algo.random_global_plan&#45;&gt;algo.sm_plans_builder -->
<g id="edge20" class="edge">
<title>algo.random_global_plan&#45;&gt;algo.sm_plans_builder</title>
<path fill="none" stroke="black" d="M608.71,-324.3C608.71,-332.02 608.71,-341.29 608.71,-349.89"/>
<polygon fill="black" stroke="black" points="608.71,-359.9 604.21,-349.9 608.71,-354.9 608.71,-349.9 608.71,-349.9 608.71,-349.9 608.71,-354.9 613.21,-349.9 608.71,-359.9 608.71,-359.9"/>
</g>
<!-- algo.tests -->
<g id="node11" class="node">
<title>algo.tests</title>
<polygon fill="none" stroke="black" points="1045.71,-36 977.71,-36 977.71,0 1045.71,0 1045.71,-36"/>
<text text-anchor="middle" x="1011.71" y="-14.3" font-family="Times,serif" font-size="14.00">algo.tests</text>
</g>
<!-- algo.tests.fixtures -->
<g id="node12" class="node">
<title>algo.tests.fixtures</title>
<polygon fill="none" stroke="black" points="911.21,-108 798.21,-108 798.21,-72 911.21,-72 911.21,-108"/>
<text text-anchor="middle" x="854.71" y="-86.3" font-family="Times,serif" font-size="14.00">algo.tests.fixtures</text>
</g>
<!-- algo.tests.fixtures&#45;&gt;algo -->
<g id="edge21" class="edge">
<title>algo.tests.fixtures&#45;&gt;algo</title>
<path fill="none" stroke="black" d="M798,-105.86C795.2,-106.59 792.42,-107.3 789.71,-108 729.43,-123.53 659.28,-141.24 617.51,-151.76"/>
<polygon fill="black" stroke="black" points="607.78,-154.2 616.38,-147.4 612.63,-152.98 617.48,-151.76 617.48,-151.76 617.48,-151.76 612.63,-152.98 618.58,-156.13 607.78,-154.2 607.78,-154.2"/>
</g>
<!-- algo.tests.test_crossingover -->
<g id="node13" class="node">
<title>algo.tests.test_crossingover</title>
<polygon fill="none" stroke="black" points="1095.71,-108 929.71,-108 929.71,-72 1095.71,-72 1095.71,-108"/>
<text text-anchor="middle" x="1012.71" y="-86.3" font-family="Times,serif" font-size="14.00">algo.tests.test_crossingover</text>
</g>
<!-- algo.tests.test_crossingover&#45;&gt;algo -->
<g id="edge22" class="edge">
<title>algo.tests.test_crossingover&#45;&gt;algo</title>
<path fill="none" stroke="black" d="M929.49,-106.49C926.53,-107 923.59,-107.51 920.71,-108 811.04,-126.68 681.01,-146.23 618.27,-155.5"/>
<polygon fill="black" stroke="black" points="608.08,-157 617.31,-151.09 613.02,-156.27 617.97,-155.54 617.97,-155.54 617.97,-155.54 613.02,-156.27 618.63,-159.99 608.08,-157 608.08,-157"/>
</g>
<!-- algo.tests.test_event_queue_builder -->
<g id="node14" class="node">
<title>algo.tests.test_event_queue_builder</title>
<polygon fill="none" stroke="black" points="959.71,-36 749.71,-36 749.71,0 959.71,0 959.71,-36"/>
<text text-anchor="middle" x="854.71" y="-14.3" font-family="Times,serif" font-size="14.00">algo.tests.test_event_queue_builder</text>
</g>
<!-- algo.tests.test_event_queue_builder&#45;&gt;algo.tests.fixtures -->
<g id="edge23" class="edge">
<title>algo.tests.test_event_queue_builder&#45;&gt;algo.tests.fixtures</title>
<path fill="none" stroke="black" d="M854.71,-36.3C854.71,-44.02 854.71,-53.29 854.71,-61.89"/>
<polygon fill="black" stroke="black" points="854.71,-71.9 850.21,-61.9 854.71,-66.9 854.71,-61.9 854.71,-61.9 854.71,-61.9 854.71,-66.9 859.21,-61.9 854.71,-71.9 854.71,-71.9"/>
</g>
<!-- algo.tests.test_full_enumeration -->
<g id="node15" class="node">
<title>algo.tests.test_full_enumeration</title>
<polygon fill="none" stroke="black" points="1305.21,-108 1114.21,-108 1114.21,-72 1305.21,-72 1305.21,-108"/>
<text text-anchor="middle" x="1209.71" y="-86.3" font-family="Times,serif" font-size="14.00">algo.tests.test_full_enumeration</text>
</g>
<!-- algo.tests.test_full_enumeration&#45;&gt;algo -->
<g id="edge24" class="edge">
<title>algo.tests.test_full_enumeration&#45;&gt;algo</title>
<path fill="none" stroke="black" d="M1114.18,-106.72C1110.99,-107.16 1107.82,-107.59 1104.71,-108 922.61,-131.93 703.66,-150.94 617.81,-158.01"/>
<polygon fill="black" stroke="black" points="607.77,-158.84 617.37,-153.53 612.76,-158.43 617.74,-158.02 617.74,-158.02 617.74,-158.02 612.76,-158.43 618.11,-162.5 607.77,-158.84 607.77,-158.84"/>
</g>
<!-- algo.tests.test_genetic_search -->
<g id="node16" class="node">
<title>algo.tests.test_genetic_search</title>
<polygon fill="none" stroke="black" points="207.21,-108 30.21,-108 30.21,-72 207.21,-72 207.21,-108"/>
<text text-anchor="middle" x="118.71" y="-86.3" font-family="Times,serif" font-size="14.00">algo.tests.test_genetic_search</text>
</g>
<!-- algo.tests.test_genetic_search&#45;&gt;algo -->
<g id="edge25" class="edge">
<title>algo.tests.test_genetic_search&#45;&gt;algo</title>
<path fill="none" stroke="black" d="M207.24,-106.63C210.1,-107.09 212.93,-107.55 215.71,-108 335.44,-127.18 477.76,-146.99 543.74,-156"/>
<polygon fill="black" stroke="black" points="553.65,-157.35 543.14,-160.46 548.7,-156.67 543.75,-156 543.75,-156 543.75,-156 548.7,-156.67 544.35,-151.54 553.65,-157.35 553.65,-157.35"/>
</g>
<!-- algo.tests.test_global_mutate -->
<g id="node17" class="node">
<title>algo.tests.test_global_mutate</title>
<polygon fill="none" stroke="black" points="400.21,-108 225.21,-108 225.21,-72 400.21,-72 400.21,-108"/>
<text text-anchor="middle" x="312.71" y="-86.3" font-family="Times,serif" font-size="14.00">algo.tests.test_global_mutate</text>
</g>
<!-- algo.tests.test_global_mutate&#45;&gt;algo -->
<g id="edge26" class="edge">
<title>algo.tests.test_global_mutate&#45;&gt;algo</title>
<path fill="none" stroke="black" d="M377.93,-108.03C430,-121.63 501.08,-140.2 543.78,-151.35"/>
<polygon fill="black" stroke="black" points="553.48,-153.89 542.66,-155.71 548.64,-152.62 543.8,-151.36 543.8,-151.36 543.8,-151.36 548.64,-152.62 544.94,-147.01 553.48,-153.89 553.48,-153.89"/>
</g>
<!-- algo.tests.test_mutate -->
<g id="node18" class="node">
<title>algo.tests.test_mutate</title>
<polygon fill="none" stroke="black" points="552.71,-108 418.71,-108 418.71,-72 552.71,-72 552.71,-108"/>
<text text-anchor="middle" x="485.71" y="-86.3" font-family="Times,serif" font-size="14.00">algo.tests.test_mutate</text>
</g>
<!-- algo.tests.test_mutate&#45;&gt;algo -->
<g id="edge27" class="edge">
<title>algo.tests.test_mutate&#45;&gt;algo</title>
<path fill="none" stroke="black" d="M509.19,-108.3C521.27,-117.2 536.17,-128.18 549.23,-137.8"/>
<polygon fill="black" stroke="black" points="557.5,-143.9 546.78,-141.59 553.47,-140.93 549.45,-137.96 549.45,-137.96 549.45,-137.96 553.47,-140.93 552.12,-134.34 557.5,-143.9 557.5,-143.9"/>
</g>
<!-- algo.tests.test_pmm_plans_builder -->
<g id="node19" class="node">
<title>algo.tests.test_pmm_plans_builder</title>
<polygon fill="none" stroke="black" points="418.71,-36 212.71,-36 212.71,0 418.71,0 418.71,-36"/>
<text text-anchor="middle" x="315.71" y="-14.3" font-family="Times,serif" font-size="14.00">algo.tests.test_pmm_plans_builder</text>
</g>
<!-- algo.tests.test_pmm_plans_builder&#45;&gt;algo.pmm_plans_builder -->
<g id="edge28" class="edge">
<title>algo.tests.test_pmm_plans_builder&#45;&gt;algo.pmm_plans_builder</title>
<path fill="none" stroke="black" d="M212.63,-25.37C138.74,-32.12 47.68,-45.62 20.71,-72 -8.13,-100.22 2.71,-120.64 2.71,-161 2.71,-161 2.71,-161 2.71,-235 2.71,-298.28 70.32,-336.09 126.53,-356.59"/>
<polygon fill="black" stroke="black" points="136.15,-359.98 125.23,-360.91 131.44,-358.32 126.72,-356.66 126.72,-356.66 126.72,-356.66 131.44,-358.32 128.21,-352.42 136.15,-359.98 136.15,-359.98"/>
</g>
<!-- algo.tests.test_pmm_plans_builder&#45;&gt;algo.tests.fixtures -->
<g id="edge29" class="edge">
<title>algo.tests.test_pmm_plans_builder&#45;&gt;algo.tests.fixtures</title>
<path fill="none" stroke="black" d="M418.98,-26.22C513.07,-33.8 655.93,-47.79 788.19,-71.85"/>
<polygon fill="black" stroke="black" points="798.1,-73.68 787.45,-76.29 793.18,-72.77 788.27,-71.87 788.27,-71.87 788.27,-71.87 793.18,-72.77 789.08,-67.44 798.1,-73.68 798.1,-73.68"/>
</g>
<!-- algo.tests.test_random_global_plan -->
<g id="node20" class="node">
<title>algo.tests.test_random_global_plan</title>
<polygon fill="none" stroke="black" points="780.21,-108 571.21,-108 571.21,-72 780.21,-72 780.21,-108"/>
<text text-anchor="middle" x="675.71" y="-86.3" font-family="Times,serif" font-size="14.00">algo.tests.test_random_global_plan</text>
</g>
<!-- algo.tests.test_random_global_plan&#45;&gt;algo -->
<g id="edge30" class="edge">
<title>algo.tests.test_random_global_plan&#45;&gt;algo</title>
<path fill="none" stroke="black" d="M652.23,-108.3C640.15,-117.2 625.26,-128.18 612.2,-137.8"/>
<polygon fill="black" stroke="black" points="603.92,-143.9 609.31,-134.34 607.95,-140.93 611.97,-137.96 611.97,-137.96 611.97,-137.96 607.95,-140.93 614.64,-141.59 603.92,-143.9 603.92,-143.9"/>
</g>
<!-- algo.utils -->
<g id="node21" class="node">
<title>algo.utils</title>
<polygon fill="none" stroke="black" points="1131.21,-36 1064.21,-36 1064.21,0 1131.21,0 1131.21,-36"/>
<text text-anchor="middle" x="1097.71" y="-14.3" font-family="Times,serif" font-size="14.00">algo.utils</text>
</g>
</g>
</svg>
