<?xml version="1.0" encoding="UTF-8" standalone="no"?>
<!DOCTYPE svg PUBLIC "-//W3C//DTD SVG 1.1//EN"
 "http://www.w3.org/Graphics/SVG/1.1/DTD/svg11.dtd">
<!-- Generated by graphviz version 2.43.0 (0)
 -->
<!-- Title: packages_simulation Pages: 1 -->
<svg width="751pt" height="332pt"
 viewBox="0.00 0.00 751.02 332.00" xmlns="http://www.w3.org/2000/svg" xmlns:xlink="http://www.w3.org/1999/xlink">
<g id="graph0" class="graph" transform="scale(1 1) rotate(0) translate(4 328)">
<title>packages_simulation</title>
<polygon fill="white" stroke="transparent" points="-4,4 -4,-328 747.02,-328 747.02,4 -4,4"/>
<!-- simulation -->
<g id="node1" class="node">
<title>simulation</title>
<polygon fill="none" stroke="black" points="453.5,-36 379.5,-36 379.5,0 453.5,0 453.5,-36"/>
<text text-anchor="middle" x="416.5" y="-14.3" font-family="Times,serif" font-size="14.00">simulation</text>
</g>
<!-- simulation.duration -->
<g id="node2" class="node">
<title>simulation.duration</title>
<polygon fill="none" stroke="black" points="123,-252 0,-252 0,-216 123,-216 123,-252"/>
<text text-anchor="middle" x="61.5" y="-230.3" font-family="Times,serif" font-size="14.00">simulation.duration</text>
</g>
<!-- simulation&#45;&gt;simulation.duration -->
<g id="edge1" class="edge">
<title>simulation&#45;&gt;simulation.duration</title>
<path fill="none" stroke="black" d="M379.35,-25.82C343.46,-33.47 288.37,-48.04 245.5,-72 179.02,-109.16 115.34,-173.32 83.19,-208.38"/>
<polygon fill="black" stroke="black" points="76.45,-215.81 79.84,-205.38 79.81,-212.11 83.17,-208.4 83.17,-208.4 83.17,-208.4 79.81,-212.11 86.5,-211.43 76.45,-215.81 76.45,-215.81"/>
</g>
<!-- simulation.engine -->
<g id="node3" class="node">
<title>simulation.engine</title>
<polygon fill="none" stroke="black" points="339.5,-180 225.5,-180 225.5,-144 339.5,-144 339.5,-180"/>
<text text-anchor="middle" x="282.5" y="-158.3" font-family="Times,serif" font-size="14.00">simulation.engine</text>
</g>
<!-- simulation&#45;&gt;simulation.engine -->
<g id="edge2" class="edge">
<title>simulation&#45;&gt;simulation.engine</title>
<path fill="none" stroke="black" d="M393.98,-36.14C381.53,-46.06 366.07,-59.1 353.5,-72 333.97,-92.04 314.33,-117.14 300.67,-135.57"/>
<polygon fill="black" stroke="black" points="294.65,-143.77 296.94,-133.05 297.61,-139.74 300.56,-135.71 300.56,-135.71 300.56,-135.71 297.61,-139.74 304.19,-138.37 294.65,-143.77 294.65,-143.77"/>
</g>
<!-- simulation.events -->
<g id="node4" class="node">
<title>simulation.events</title>
<polygon fill="none" stroke="black" points="254,-252 141,-252 141,-216 254,-216 254,-252"/>
<text text-anchor="middle" x="197.5" y="-230.3" font-family="Times,serif" font-size="14.00">simulation.events</text>
</g>
<!-- simulation&#45;&gt;simulation.events -->
<g id="edge3" class="edge">
<title>simulation&#45;&gt;simulation.events</title>
<path fill="none" stroke="black" d="M379.41,-31.28C333.22,-48.63 255.65,-84.96 216.5,-144 204.33,-162.36 199.78,-187.12 198.16,-205.86"/>
<polygon fill="black" stroke="black" points="197.52,-215.84 193.67,-205.57 197.84,-210.85 198.16,-205.86 198.16,-205.86 198.16,-205.86 197.84,-210.85 202.65,-206.15 197.52,-215.84 197.52,-215.84"/>
</g>
<!-- simulation.exceptions -->
<g id="node5" class="node">
<title>simulation.exceptions</title>
<polygon fill="none" stroke="black" points="572.5,-252 436.5,-252 436.5,-216 572.5,-216 572.5,-252"/>
<text text-anchor="middle" x="504.5" y="-230.3" font-family="Times,serif" font-size="14.00">simulation.exceptions</text>
</g>
<!-- simulation&#45;&gt;simulation.exceptions -->
<g id="edge4" class="edge">
<title>simulation&#45;&gt;simulation.exceptions</title>
<path fill="none" stroke="black" d="M453.83,-33.29C490.63,-47.55 541.78,-67.93 544.5,-72 572.44,-113.81 543.67,-173.47 522.54,-207.19"/>
<polygon fill="black" stroke="black" points="516.84,-215.98 518.51,-205.14 519.56,-211.78 522.28,-207.59 522.28,-207.59 522.28,-207.59 519.56,-211.78 526.06,-210.04 516.84,-215.98 516.84,-215.98"/>
</g>
<!-- simulation.experiment -->
<g id="node6" class="node">
<title>simulation.experiment</title>
<polygon fill="none" stroke="black" points="535.5,-108 395.5,-108 395.5,-72 535.5,-72 535.5,-108"/>
<text text-anchor="middle" x="465.5" y="-86.3" font-family="Times,serif" font-size="14.00">simulation.experiment</text>
</g>
<!-- simulation&#45;&gt;simulation.experiment -->
<g id="edge5" class="edge">
<title>simulation&#45;&gt;simulation.experiment</title>
<path fill="none" stroke="black" d="M428.61,-36.3C434.37,-44.53 441.36,-54.52 447.71,-63.58"/>
<polygon fill="black" stroke="black" points="453.53,-71.9 444.11,-66.28 450.66,-67.8 447.79,-63.7 447.79,-63.7 447.79,-63.7 450.66,-67.8 451.48,-61.12 453.53,-71.9 453.53,-71.9"/>
</g>
<!-- simulation.metrics -->
<g id="node7" class="node">
<title>simulation.metrics</title>
<polygon fill="none" stroke="black" points="424,-324 305,-324 305,-288 424,-288 424,-324"/>
<text text-anchor="middle" x="364.5" y="-302.3" font-family="Times,serif" font-size="14.00">simulation.metrics</text>
</g>
<!-- simulation&#45;&gt;simulation.metrics -->
<g id="edge6" class="edge">
<title>simulation&#45;&gt;simulation.metrics</title>
<path fill="none" stroke="black" d="M453.56,-33.01C456.58,-34.05 459.58,-35.06 462.5,-36 519.98,-54.48 542.1,-40.32 593.5,-72 677.51,-123.78 787.98,-177.3 723.5,-252 686.94,-294.35 528.34,-303.45 434.61,-305.05"/>
<polygon fill="black" stroke="black" points="424.36,-305.2 434.29,-300.55 429.36,-305.12 434.36,-305.05 434.36,-305.05 434.36,-305.05 429.36,-305.12 434.42,-309.55 424.36,-305.2 424.36,-305.2"/>
</g>
<!-- simulation.result -->
<g id="node8" class="node">
<title>simulation.result</title>
<polygon fill="none" stroke="black" points="418.5,-252 310.5,-252 310.5,-216 418.5,-216 418.5,-252"/>
<text text-anchor="middle" x="364.5" y="-230.3" font-family="Times,serif" font-size="14.00">simulation.result</text>
</g>
<!-- simulation&#45;&gt;simulation.result -->
<g id="edge7" class="edge">
<title>simulation&#45;&gt;simulation.result</title>
<path fill="none" stroke="black" d="M404.44,-36.36C398.09,-46.34 390.76,-59.38 386.5,-72 371.27,-117.15 366.56,-172.81 365.12,-205.45"/>
<polygon fill="black" stroke="black" points="364.74,-215.59 360.61,-205.43 364.93,-210.6 365.11,-205.6 365.11,-205.6 365.11,-205.6 364.93,-210.6 369.61,-205.77 364.74,-215.59 364.74,-215.59"/>
</g>
<!-- simulation.scenario -->
<g id="node9" class="node">
<title>simulation.scenario</title>
<polygon fill="none" stroke="black" points="714,-252 591,-252 591,-216 714,-216 714,-252"/>
<text text-anchor="middle" x="652.5" y="-230.3" font-family="Times,serif" font-size="14.00">simulation.scenario</text>
</g>
<!-- simulation&#45;&gt;simulation.scenario -->
<g id="edge8" class="edge">
<title>simulation&#45;&gt;simulation.scenario</title>
<path fill="none" stroke="black" d="M453.64,-32.78C456.64,-33.87 459.62,-34.96 462.5,-36 507.71,-52.33 527.88,-40.85 564.5,-72 607.12,-108.26 632.68,-170.56 644.53,-206.1"/>
<polygon fill="black" stroke="black" points="647.64,-215.79 640.3,-207.64 646.11,-211.02 644.59,-206.26 644.59,-206.26 644.59,-206.26 646.11,-211.02 648.87,-204.89 647.64,-215.79 647.64,-215.79"/>
</g>
<!-- simulation.engine&#45;&gt;simulation.duration -->
<g id="edge9" class="edge">
<title>simulation.engine&#45;&gt;simulation.duration</title>
<path fill="none" stroke="black" d="M228.72,-180.03C197.57,-189.9 158.18,-202.38 125.45,-212.75"/>
<polygon fill="black" stroke="black" points="115.52,-215.89 123.7,-208.58 120.29,-214.38 125.05,-212.87 125.05,-212.87 125.05,-212.87 120.29,-214.38 126.41,-217.16 115.52,-215.89 115.52,-215.89"/>
</g>
<!-- simulation.engine&#45;&gt;simulation.events -->
<g id="edge10" class="edge">
<title>simulation.engine&#45;&gt;simulation.events</title>
<path fill="none" stroke="black" d="M261.49,-180.3C250.78,-189.12 237.61,-199.97 226,-209.53"/>
<polygon fill="black" stroke="black" points="218.27,-215.9 223.13,-206.06 222.13,-212.72 225.99,-209.54 225.99,-209.54 225.99,-209.54 222.13,-212.72 228.85,-213.01 218.27,-215.9 218.27,-215.9"/>
</g>
<!-- simulation.engine&#45;&gt;simulation.exceptions -->
<g id="edge11" class="edge">
<title>simulation.engine&#45;&gt;simulation.exceptions</title>
<path fill="none" stroke="black" d="M336.52,-180.03C367.95,-189.94 407.73,-202.49 440.69,-212.88"/>
<polygon fill="black" stroke="black" points="450.23,-215.89 439.34,-217.17 445.47,-214.39 440.7,-212.88 440.7,-212.88 440.7,-212.88 445.47,-214.39 442.05,-208.59 450.23,-215.89 450.23,-215.89"/>
</g>
<!-- simulation.engine&#45;&gt;simulation.metrics -->
<g id="edge12" class="edge">
<title>simulation.engine&#45;&gt;simulation.metrics</title>
<path fill="none" stroke="black" d="M282.91,-180.27C284.06,-199.14 288.08,-229.65 301.5,-252 308.29,-263.31 318.38,-273.36 328.5,-281.58"/>
<polygon fill="black" stroke="black" points="336.56,-287.77 325.89,-285.25 332.6,-284.73 328.63,-281.68 328.63,-281.68 328.63,-281.68 332.6,-284.73 331.37,-278.11 336.56,-287.77 336.56,-287.77"/>
</g>
<!-- simulation.engine&#45;&gt;simulation.result -->
<g id="edge13" class="edge">
<title>simulation.engine&#45;&gt;simulation.result</title>
<path fill="none" stroke="black" d="M302.77,-180.3C313,-189.03 325.56,-199.76 336.68,-209.25"/>
<polygon fill="black" stroke="black" points="344.46,-215.9 333.94,-212.83 340.66,-212.65 336.86,-209.4 336.86,-209.4 336.86,-209.4 340.66,-212.65 339.78,-205.98 344.46,-215.9 344.46,-215.9"/>
</g>
<!-- simulation.engine&#45;&gt;simulation.scenario -->
<g id="edge14" class="edge">
<title>simulation.engine&#45;&gt;simulation.scenario</title>
<path fill="none" stroke="black" d="M339.74,-172.1C397.94,-181.6 490.94,-197.41 581.13,-215.99"/>
<polygon fill="black" stroke="black" points="590.98,-218.03 580.27,-220.41 586.08,-217.02 581.19,-216 581.19,-216 581.19,-216 586.08,-217.02 582.1,-211.6 590.98,-218.03 590.98,-218.03"/>
</g>
<!-- simulation.experiment&#45;&gt;simulation.engine -->
<g id="edge15" class="edge">
<title>simulation.experiment&#45;&gt;simulation.engine</title>
<path fill="none" stroke="black" d="M420.73,-108.12C395.38,-117.82 363.49,-130.02 336.73,-140.26"/>
<polygon fill="black" stroke="black" points="327.12,-143.93 334.85,-136.16 331.79,-142.15 336.46,-140.36 336.46,-140.36 336.46,-140.36 331.79,-142.15 338.07,-144.56 327.12,-143.93 327.12,-143.93"/>
</g>
<!-- simulation.experiment&#45;&gt;simulation.exceptions -->
<g id="edge16" class="edge">
<title>simulation.experiment&#45;&gt;simulation.exceptions</title>
<path fill="none" stroke="black" d="M470.2,-108.13C476.88,-132.44 489.17,-177.18 497.08,-205.99"/>
<polygon fill="black" stroke="black" points="499.78,-215.81 492.79,-207.36 498.45,-210.99 497.13,-206.17 497.13,-206.17 497.13,-206.17 498.45,-210.99 501.47,-204.98 499.78,-215.81 499.78,-215.81"/>
</g>
<!-- simulation.experiment&#45;&gt;simulation.result -->
<g id="edge17" class="edge">
<title>simulation.experiment&#45;&gt;simulation.result</title>
<path fill="none" stroke="black" d="M453.32,-108.13C435.72,-132.86 403.08,-178.76 382.65,-207.49"/>
<polygon fill="black" stroke="black" points="376.73,-215.81 378.86,-205.05 379.62,-211.74 382.52,-207.66 382.52,-207.66 382.52,-207.66 379.62,-211.74 386.19,-210.27 376.73,-215.81 376.73,-215.81"/>
</g>
<!-- simulation.experiment&#45;&gt;simulation.scenario -->
<g id="edge18" class="edge">
<title>simulation.experiment&#45;&gt;simulation.scenario</title>
<path fill="none" stroke="black" d="M488.06,-108.13C521.47,-133.5 584.21,-181.15 621.79,-209.68"/>
<polygon fill="black" stroke="black" points="629.86,-215.81 619.18,-213.35 625.88,-212.79 621.9,-209.76 621.9,-209.76 621.9,-209.76 625.88,-212.79 624.62,-206.18 629.86,-215.81 629.86,-215.81"/>
</g>
<!-- simulation.result&#45;&gt;simulation.metrics -->
<g id="edge19" class="edge">
<title>simulation.result&#45;&gt;simulation.metrics</title>
<path fill="none" stroke="black" d="M364.5,-252.3C364.5,-260.02 364.5,-269.29 364.5,-277.89"/>
<polygon fill="black" stroke="black" points="364.5,-287.9 360,-277.9 364.5,-282.9 364.5,-277.9 364.5,-277.9 364.5,-277.9 364.5,-282.9 369,-277.9 364.5,-287.9 364.5,-287.9"/>
</g>
<!-- simulation.state -->
<g id="node10" class="node">
<title>simulation.state</title>
<polygon fill="none" stroke="black" points="575,-36 472,-36 472,0 575,0 575,-36"/>
<text text-anchor="middle" x="523.5" y="-14.3" font-family="Times,serif" font-size="14.00">simulation.state</text>
</g>
</g>
</svg>
