<?xml version="1.0" encoding="UTF-8" standalone="no"?>
<!DOCTYPE svg PUBLIC "-//W3C//DTD SVG 1.1//EN"
 "http://www.w3.org/Graphics/SVG/1.1/DTD/svg11.dtd">
<!-- Generated by graphviz version 2.43.0 (0)
 -->
<!-- Title: packages_models Pages: 1 -->
<svg width="1502pt" height="764pt"
 viewBox="0.00 0.00 1502.00 764.00" xmlns="http://www.w3.org/2000/svg" xmlns:xlink="http://www.w3.org/1999/xlink">
<g id="graph0" class="graph" transform="scale(1 1) rotate(0) translate(4 760)">
<title>packages_models</title>
<polygon fill="white" stroke="transparent" points="-4,4 -4,-760 1498,-760 1498,4 -4,4"/>
<!-- models -->
<g id="node1" class="node">
<title>models</title>
<polygon fill="none" stroke="black" points="802,-180 746,-180 746,-144 802,-144 802,-180"/>
<text text-anchor="middle" x="774" y="-158.3" font-family="Times,serif" font-size="14.00">models</text>
</g>
<!-- models.cutting_layout -->
<g id="node2" class="node">
<title>models.cutting_layout</title>
<polygon fill="none" stroke="black" points="1167,-468 1029,-468 1029,-432 1167,-432 1167,-468"/>
<text text-anchor="middle" x="1098" y="-446.3" font-family="Times,serif" font-size="14.00">models.cutting_layout</text>
</g>
<!-- models&#45;&gt;models.cutting_layout -->
<g id="edge1" class="edge">
<title>models&#45;&gt;models.cutting_layout</title>
<path fill="none" stroke="black" d="M802.09,-164.19C846.93,-167.21 936.12,-177.95 1000,-216 1073.57,-259.82 1097.57,-279.96 1128,-360 1135.99,-381.03 1126.66,-405.24 1116.35,-423.09"/>
<polygon fill="black" stroke="black" points="1110.96,-431.8 1112.4,-420.93 1113.59,-427.55 1116.23,-423.3 1116.23,-423.3 1116.23,-423.3 1113.59,-427.55 1120.05,-425.67 1110.96,-431.8 1110.96,-431.8"/>
</g>
<!-- models.cutting_plan -->
<g id="node3" class="node">
<title>models.cutting_plan</title>
<polygon fill="none" stroke="black" points="1119,-396 991,-396 991,-360 1119,-360 1119,-396"/>
<text text-anchor="middle" x="1055" y="-374.3" font-family="Times,serif" font-size="14.00">models.cutting_plan</text>
</g>
<!-- models&#45;&gt;models.cutting_plan -->
<g id="edge2" class="edge">
<title>models&#45;&gt;models.cutting_plan</title>
<path fill="none" stroke="black" d="M802.29,-163.67C843.66,-166.05 921.14,-175.98 971,-216 1014.41,-250.85 1037.9,-314.21 1048.3,-350.18"/>
<polygon fill="black" stroke="black" points="1051,-359.98 1044,-351.54 1049.67,-355.16 1048.34,-350.34 1048.34,-350.34 1048.34,-350.34 1049.67,-355.16 1052.68,-349.14 1051,-359.98 1051,-359.98"/>
</g>
<!-- models.event_queue -->
<g id="node4" class="node">
<title>models.event_queue</title>
<polygon fill="none" stroke="black" points="651,-324 523,-324 523,-288 651,-288 651,-324"/>
<text text-anchor="middle" x="587" y="-302.3" font-family="Times,serif" font-size="14.00">models.event_queue</text>
</g>
<!-- models&#45;&gt;models.event_queue -->
<g id="edge3" class="edge">
<title>models&#45;&gt;models.event_queue</title>
<path fill="none" stroke="black" d="M745.85,-173.07C722.76,-182.15 689.92,-196.98 665,-216 641.24,-234.13 619.3,-260.4 604.78,-279.7"/>
<polygon fill="black" stroke="black" points="598.84,-287.76 601.15,-277.04 601.8,-283.73 604.77,-279.71 604.77,-279.71 604.77,-279.71 601.8,-283.73 608.39,-282.38 598.84,-287.76 598.84,-287.76"/>
</g>
<!-- models.format -->
<g id="node5" class="node">
<title>models.format</title>
<polygon fill="none" stroke="black" points="1131.5,-756 1034.5,-756 1034.5,-720 1131.5,-720 1131.5,-756"/>
<text text-anchor="middle" x="1083" y="-734.3" font-family="Times,serif" font-size="14.00">models.format</text>
</g>
<!-- models&#45;&gt;models.format -->
<g id="edge4" class="edge">
<title>models&#45;&gt;models.format</title>
<path fill="none" stroke="black" d="M802.18,-162.19C858.69,-161.74 988.4,-166.68 1082,-216 1138.74,-245.9 1299,-402.28 1299,-449 1299,-449 1299,-449 1299,-595 1299,-670.51 1205.7,-708.1 1141.74,-725"/>
<polygon fill="black" stroke="black" points="1131.74,-727.54 1140.33,-720.71 1136.59,-726.31 1141.44,-725.08 1141.44,-725.08 1141.44,-725.08 1136.59,-726.31 1142.54,-729.44 1131.74,-727.54 1131.74,-727.54"/>
</g>
<!-- models.global_plan -->
<g id="node6" class="node">
<title>models.global_plan</title>
<polygon fill="none" stroke="black" points="557,-252 433,-252 433,-216 557,-216 557,-252"/>
<text text-anchor="middle" x="495" y="-230.3" font-family="Times,serif" font-size="14.00">models.global_plan</text>
</g>
<!-- models&#45;&gt;models.global_plan -->
<g id="edge5" class="edge">
<title>models&#45;&gt;models.global_plan</title>
<path fill="none" stroke="black" d="M745.97,-170.03C704.5,-180.44 625.4,-200.28 567.05,-214.92"/>
<polygon fill="black" stroke="black" points="557.14,-217.41 565.75,-210.61 561.99,-216.19 566.84,-214.98 566.84,-214.98 566.84,-214.98 561.99,-216.19 567.94,-219.34 557.14,-217.41 557.14,-217.41"/>
</g>
<!-- models.making_plan -->
<g id="node7" class="node">
<title>models.making_plan</title>
<polygon fill="none" stroke="black" points="740.5,-468 609.5,-468 609.5,-432 740.5,-432 740.5,-468"/>
<text text-anchor="middle" x="675" y="-446.3" font-family="Times,serif" font-size="14.00">models.making_plan</text>
</g>
<!-- models&#45;&gt;models.making_plan -->
<g id="edge6" class="edge">
<title>models&#45;&gt;models.making_plan</title>
<path fill="none" stroke="black" d="M778.58,-180.05C785.91,-211.23 796.83,-278.41 769,-324 751.79,-352.19 725.02,-334.53 704,-360 689.42,-377.66 682.11,-402.84 678.48,-421.92"/>
<polygon fill="black" stroke="black" points="676.81,-431.8 674.03,-421.19 677.64,-426.87 678.47,-421.94 678.47,-421.94 678.47,-421.94 677.64,-426.87 682.91,-422.68 676.81,-431.8 676.81,-431.8"/>
</g>
<!-- models.order -->
<g id="node8" class="node">
<title>models.order</title>
<polygon fill="none" stroke="black" points="987.5,-612 898.5,-612 898.5,-576 987.5,-576 987.5,-612"/>
<text text-anchor="middle" x="943" y="-590.3" font-family="Times,serif" font-size="14.00">models.order</text>
</g>
<!-- models&#45;&gt;models.order -->
<g id="edge7" class="edge">
<title>models&#45;&gt;models.order</title>
<path fill="none" stroke="black" d="M791.36,-180.03C823.2,-212.24 891.04,-285.54 928,-360 961.62,-427.73 954.21,-520.47 947.71,-565.81"/>
<polygon fill="black" stroke="black" points="946.19,-575.76 943.25,-565.2 946.94,-570.82 947.7,-565.88 947.7,-565.88 947.7,-565.88 946.94,-570.82 952.15,-566.56 946.19,-575.76 946.19,-575.76"/>
</g>
<!-- models.pm_machine -->
<g id="node9" class="node">
<title>models.pm_machine</title>
<polygon fill="none" stroke="black" points="595.5,-612 464.5,-612 464.5,-576 595.5,-576 595.5,-612"/>
<text text-anchor="middle" x="530" y="-590.3" font-family="Times,serif" font-size="14.00">models.pm_machine</text>
</g>
<!-- models&#45;&gt;models.pm_machine -->
<g id="edge8" class="edge">
<title>models&#45;&gt;models.pm_machine</title>
<path fill="none" stroke="black" d="M745.82,-162.78C670.19,-162.85 465.62,-167.6 424,-216 400.08,-243.82 304.96,-246.84 468,-540 474.35,-551.43 484.19,-561.5 494.17,-569.72"/>
<polygon fill="black" stroke="black" points="502.14,-575.9 491.48,-573.33 498.18,-572.83 494.23,-569.77 494.23,-569.77 494.23,-569.77 498.18,-572.83 496.99,-566.21 502.14,-575.9 502.14,-575.9"/>
</g>
<!-- models.problem -->
<g id="node10" class="node">
<title>models.problem</title>
<polygon fill="none" stroke="black" points="583,-540 477,-540 477,-504 583,-504 583,-540"/>
<text text-anchor="middle" x="530" y="-518.3" font-family="Times,serif" font-size="14.00">models.problem</text>
</g>
<!-- models&#45;&gt;models.problem -->
<g id="edge9" class="edge">
<title>models&#45;&gt;models.problem</title>
<path fill="none" stroke="black" d="M762.77,-180.08C736.81,-219.37 673.82,-313.6 660,-324 621.26,-353.17 588.25,-322.92 557,-360 525.22,-397.71 524.17,-458.53 526.75,-493.63"/>
<polygon fill="black" stroke="black" points="527.64,-503.65 522.28,-494.08 527.2,-498.66 526.76,-493.68 526.76,-493.68 526.76,-493.68 527.2,-498.66 531.24,-493.29 527.64,-503.65 527.64,-503.65"/>
</g>
<!-- models.roll -->
<g id="node11" class="node">
<title>models.roll</title>
<polygon fill="none" stroke="black" points="890.5,-684 811.5,-684 811.5,-648 890.5,-648 890.5,-684"/>
<text text-anchor="middle" x="851" y="-662.3" font-family="Times,serif" font-size="14.00">models.roll</text>
</g>
<!-- models&#45;&gt;models.roll -->
<g id="edge10" class="edge">
<title>models&#45;&gt;models.roll</title>
<path fill="none" stroke="black" d="M802.21,-163.48C852.87,-165.41 961.38,-174.5 1041,-216 1141.39,-268.32 1153.8,-320.99 1176,-432 1193.86,-521.32 1153.11,-560.47 1078,-612 1024.72,-648.55 949.62,-660.13 900.63,-663.66"/>
<polygon fill="black" stroke="black" points="890.58,-664.3 900.28,-659.17 895.57,-663.98 900.56,-663.66 900.56,-663.66 900.56,-663.66 895.57,-663.98 900.85,-668.16 890.58,-664.3 890.58,-664.3"/>
</g>
<!-- models.slitting_machine -->
<g id="node12" class="node">
<title>models.slitting_machine</title>
<polygon fill="none" stroke="black" points="803.5,-612 652.5,-612 652.5,-576 803.5,-576 803.5,-612"/>
<text text-anchor="middle" x="728" y="-590.3" font-family="Times,serif" font-size="14.00">models.slitting_machine</text>
</g>
<!-- models&#45;&gt;models.slitting_machine -->
<g id="edge11" class="edge">
<title>models&#45;&gt;models.slitting_machine</title>
<path fill="none" stroke="black" d="M769.11,-180.32C763.57,-198.7 753.65,-228.3 741,-252 722.41,-286.82 713.12,-292.75 689,-324 650.99,-373.24 621.01,-373.46 600,-432 579.36,-489.5 643.48,-542.06 688.29,-570.59"/>
<polygon fill="black" stroke="black" points="696.96,-575.97 686.09,-574.53 692.71,-573.34 688.46,-570.7 688.46,-570.7 688.46,-570.7 692.71,-573.34 690.84,-566.88 696.96,-575.97 696.96,-575.97"/>
</g>
<!-- models.storage -->
<g id="node13" class="node">
<title>models.storage</title>
<polygon fill="none" stroke="black" points="446.5,-612 347.5,-612 347.5,-576 446.5,-576 446.5,-612"/>
<text text-anchor="middle" x="397" y="-590.3" font-family="Times,serif" font-size="14.00">models.storage</text>
</g>
<!-- models&#45;&gt;models.storage -->
<g id="edge12" class="edge">
<title>models&#45;&gt;models.storage</title>
<path fill="none" stroke="black" d="M745.89,-163.76C666.52,-166.39 442.53,-177.13 382,-216 306.57,-264.43 271.14,-308.59 291,-396 306.23,-463.03 351.07,-531.55 377.3,-567.45"/>
<polygon fill="black" stroke="black" points="383.54,-575.85 373.96,-570.5 380.56,-571.84 377.58,-567.82 377.58,-567.82 377.58,-567.82 380.56,-571.84 381.19,-565.14 383.54,-575.85 383.54,-575.85"/>
</g>
<!-- models.workshop -->
<g id="node22" class="node">
<title>models.workshop</title>
<polygon fill="none" stroke="black" points="329.5,-612 216.5,-612 216.5,-576 329.5,-576 329.5,-612"/>
<text text-anchor="middle" x="273" y="-590.3" font-family="Times,serif" font-size="14.00">models.workshop</text>
</g>
<!-- models&#45;&gt;models.workshop -->
<g id="edge13" class="edge">
<title>models&#45;&gt;models.workshop</title>
<path fill="none" stroke="black" d="M745.72,-163.41C659.38,-165.11 400.71,-173.72 330,-216 262.91,-256.12 252.54,-285.45 229,-360 205.9,-433.17 239.77,-523.32 259.89,-566.93"/>
<polygon fill="black" stroke="black" points="264.19,-575.99 255.84,-568.88 262.05,-571.47 259.9,-566.96 259.9,-566.96 259.9,-566.96 262.05,-571.47 263.97,-565.03 264.19,-575.99 264.19,-575.99"/>
</g>
<!-- models.cutting_layout&#45;&gt;models.order -->
<g id="edge14" class="edge">
<title>models.cutting_layout&#45;&gt;models.order</title>
<path fill="none" stroke="black" d="M1079.3,-468.13C1051.84,-493.29 1000.47,-540.35 969.24,-568.96"/>
<polygon fill="black" stroke="black" points="961.76,-575.81 966.1,-565.74 965.45,-572.43 969.14,-569.06 969.14,-569.06 969.14,-569.06 965.45,-572.43 972.18,-572.37 961.76,-575.81 961.76,-575.81"/>
</g>
<!-- models.cutting_layout&#45;&gt;models.problem -->
<g id="edge15" class="edge">
<title>models.cutting_layout&#45;&gt;models.problem</title>
<path fill="none" stroke="black" d="M1028.92,-459.51C917.65,-473.23 700.38,-500 593.07,-513.23"/>
<polygon fill="black" stroke="black" points="583.03,-514.46 592.41,-508.77 588,-513.85 592.96,-513.24 592.96,-513.24 592.96,-513.24 588,-513.85 593.51,-517.71 583.03,-514.46 583.03,-514.46"/>
</g>
<!-- models.cutting_layout&#45;&gt;models.roll -->
<g id="edge16" class="edge">
<title>models.cutting_layout&#45;&gt;models.roll</title>
<path fill="none" stroke="black" d="M1098.42,-468.06C1098.25,-500.78 1093.03,-572.61 1053,-612 1012.72,-651.64 946.62,-662.66 901.06,-665.21"/>
<polygon fill="black" stroke="black" points="890.81,-665.66 900.6,-660.73 895.8,-665.44 900.8,-665.22 900.8,-665.22 900.8,-665.22 895.8,-665.44 901,-669.72 890.81,-665.66 890.81,-665.66"/>
</g>
<!-- models.cutting_plan&#45;&gt;models.cutting_layout -->
<g id="edge17" class="edge">
<title>models.cutting_plan&#45;&gt;models.cutting_layout</title>
<path fill="none" stroke="black" d="M1065.63,-396.3C1070.63,-404.44 1076.69,-414.31 1082.21,-423.3"/>
<polygon fill="black" stroke="black" points="1087.49,-431.9 1078.42,-425.73 1084.88,-427.64 1082.26,-423.37 1082.26,-423.37 1082.26,-423.37 1084.88,-427.64 1086.09,-421.02 1087.49,-431.9 1087.49,-431.9"/>
</g>
<!-- models.cutting_plan&#45;&gt;models.problem -->
<g id="edge18" class="edge">
<title>models.cutting_plan&#45;&gt;models.problem</title>
<path fill="none" stroke="black" d="M1007.08,-396.1C952.38,-415.24 859.99,-446.38 779,-468 716.48,-484.69 644.02,-499.62 593.45,-509.35"/>
<polygon fill="black" stroke="black" points="583.32,-511.29 592.3,-504.99 588.23,-510.35 593.14,-509.41 593.14,-509.41 593.14,-509.41 588.23,-510.35 593.99,-513.83 583.32,-511.29 583.32,-511.29"/>
</g>
<!-- models.cutting_plan&#45;&gt;models.roll -->
<g id="edge19" class="edge">
<title>models.cutting_plan&#45;&gt;models.roll</title>
<path fill="none" stroke="black" d="M1040.83,-396.04C1033.39,-405.93 1024.83,-418.97 1020,-432 991.94,-507.61 1047.39,-549.03 997,-612 973.82,-640.97 933.37,-654.11 900.92,-660.07"/>
<polygon fill="black" stroke="black" points="890.7,-661.76 899.83,-655.69 895.63,-660.94 900.56,-660.13 900.56,-660.13 900.56,-660.13 895.63,-660.94 901.3,-664.57 890.7,-661.76 890.7,-661.76"/>
</g>
<!-- models.event_queue&#45;&gt;models.cutting_plan -->
<g id="edge20" class="edge">
<title>models.event_queue&#45;&gt;models.cutting_plan</title>
<path fill="none" stroke="black" d="M651.09,-316.59C737.23,-329.47 890.03,-352.32 980.97,-365.93"/>
<polygon fill="black" stroke="black" points="990.93,-367.42 980.38,-370.39 985.99,-366.68 981.04,-365.94 981.04,-365.94 981.04,-365.94 985.99,-366.68 981.71,-361.49 990.93,-367.42 990.93,-367.42"/>
</g>
<!-- models.event_queue&#45;&gt;models.making_plan -->
<g id="edge21" class="edge">
<title>models.event_queue&#45;&gt;models.making_plan</title>
<path fill="none" stroke="black" d="M599.3,-324.47C606.4,-334.71 615.4,-347.96 623,-360 636.17,-380.88 650.25,-405.1 660.43,-423"/>
<polygon fill="black" stroke="black" points="665.37,-431.73 656.53,-425.25 662.91,-427.38 660.44,-423.03 660.44,-423.03 660.44,-423.03 662.91,-427.38 664.36,-420.81 665.37,-431.73 665.37,-431.73"/>
</g>
<!-- models.event_queue&#45;&gt;models.problem -->
<g id="edge22" class="edge">
<title>models.event_queue&#45;&gt;models.problem</title>
<path fill="none" stroke="black" d="M553.64,-324.14C540.29,-332.91 526.36,-344.94 519,-360 497.92,-403.16 510.01,-460.72 520.29,-494.04"/>
<polygon fill="black" stroke="black" points="523.52,-503.95 516.15,-495.84 521.98,-499.2 520.43,-494.44 520.43,-494.44 520.43,-494.44 521.98,-499.2 524.7,-493.05 523.52,-503.95 523.52,-503.95"/>
</g>
<!-- models.event_queue&#45;&gt;models.storage -->
<g id="edge23" class="edge">
<title>models.event_queue&#45;&gt;models.storage</title>
<path fill="none" stroke="black" d="M552.93,-324.21C500.44,-352.99 402.17,-416.47 367,-504 358.61,-524.87 367.98,-549.09 378.4,-566.99"/>
<polygon fill="black" stroke="black" points="383.85,-575.73 374.74,-569.63 381.2,-571.49 378.55,-567.25 378.55,-567.25 378.55,-567.25 381.2,-571.49 382.37,-564.86 383.85,-575.73 383.85,-575.73"/>
</g>
<!-- models.global_plan&#45;&gt;models.cutting_plan -->
<g id="edge24" class="edge">
<title>models.global_plan&#45;&gt;models.cutting_plan</title>
<path fill="none" stroke="black" d="M557.3,-248.15C604.99,-258.42 672.33,-273.36 731,-288 819.56,-310.09 920.9,-338.43 986.31,-357.12"/>
<polygon fill="black" stroke="black" points="996.1,-359.92 985.25,-361.5 991.29,-358.54 986.48,-357.17 986.48,-357.17 986.48,-357.17 991.29,-358.54 987.72,-352.84 996.1,-359.92 996.1,-359.92"/>
</g>
<!-- models.global_plan&#45;&gt;models.event_queue -->
<g id="edge25" class="edge">
<title>models.global_plan&#45;&gt;models.event_queue</title>
<path fill="none" stroke="black" d="M517.74,-252.3C529.44,-261.2 543.86,-272.18 556.51,-281.8"/>
<polygon fill="black" stroke="black" points="564.52,-287.9 553.84,-285.42 560.54,-284.87 556.56,-281.84 556.56,-281.84 556.56,-281.84 560.54,-284.87 559.29,-278.26 564.52,-287.9 564.52,-287.9"/>
</g>
<!-- models.global_plan&#45;&gt;models.making_plan -->
<g id="edge26" class="edge">
<title>models.global_plan&#45;&gt;models.making_plan</title>
<path fill="none" stroke="black" d="M495.22,-252.03C496.21,-270.96 500.06,-301.79 514,-324 542.79,-369.87 594.69,-405.57 631.78,-426.86"/>
<polygon fill="black" stroke="black" points="640.87,-431.96 629.95,-430.99 636.51,-429.52 632.15,-427.07 632.15,-427.07 632.15,-427.07 636.51,-429.52 634.36,-423.14 640.87,-431.96 640.87,-431.96"/>
</g>
<!-- models.global_plan&#45;&gt;models.order -->
<g id="edge27" class="edge">
<title>models.global_plan&#45;&gt;models.order</title>
<path fill="none" stroke="black" d="M557.15,-234.58C648.62,-237.59 818.2,-257.68 907,-360 933.35,-390.36 940.46,-511.28 942.34,-565.93"/>
<polygon fill="black" stroke="black" points="942.65,-575.94 937.84,-566.08 942.49,-570.94 942.34,-565.94 942.34,-565.94 942.34,-565.94 942.49,-570.94 946.84,-565.8 942.65,-575.94 942.65,-575.94"/>
</g>
<!-- models.global_plan&#45;&gt;models.problem -->
<g id="edge28" class="edge">
<title>models.global_plan&#45;&gt;models.problem</title>
<path fill="none" stroke="black" d="M493.4,-252.01C490.22,-290.96 485.06,-389.31 505,-468 507.32,-477.17 511.26,-486.67 515.33,-495.06"/>
<polygon fill="black" stroke="black" points="519.9,-503.97 511.33,-497.12 517.62,-499.52 515.33,-495.07 515.33,-495.07 515.33,-495.07 517.62,-499.52 519.34,-493.02 519.9,-503.97 519.9,-503.97"/>
</g>
<!-- models.global_plan&#45;&gt;models.roll -->
<g id="edge29" class="edge">
<title>models.global_plan&#45;&gt;models.roll</title>
<path fill="none" stroke="black" d="M463.97,-252.18C352.44,-314.91 -17.71,-532.14 57,-612 107.79,-666.3 634.62,-666.75 800.96,-665.53"/>
<polygon fill="black" stroke="black" points="811.39,-665.44 801.43,-670.02 806.39,-665.48 801.39,-665.52 801.39,-665.52 801.39,-665.52 806.39,-665.48 801.36,-661.02 811.39,-665.44 811.39,-665.44"/>
</g>
<!-- models.global_plan&#45;&gt;models.workshop -->
<g id="edge30" class="edge">
<title>models.global_plan&#45;&gt;models.workshop</title>
<path fill="none" stroke="black" d="M484.29,-252.27C448.32,-310.28 331.66,-498.41 288.9,-567.36"/>
<polygon fill="black" stroke="black" points="283.6,-575.91 285.05,-565.04 286.24,-571.66 288.87,-567.41 288.87,-567.41 288.87,-567.41 286.24,-571.66 292.69,-569.78 283.6,-575.91 283.6,-575.91"/>
</g>
<!-- models.making_plan&#45;&gt;models.problem -->
<g id="edge31" class="edge">
<title>models.making_plan&#45;&gt;models.problem</title>
<path fill="none" stroke="black" d="M639.53,-468.12C619.88,-477.61 595.28,-489.49 574.37,-499.58"/>
<polygon fill="black" stroke="black" points="565.36,-503.93 572.4,-495.53 569.86,-501.76 574.36,-499.58 574.36,-499.58 574.36,-499.58 569.86,-501.76 576.32,-503.64 565.36,-503.93 565.36,-503.93"/>
</g>
<!-- models.making_plan&#45;&gt;models.roll -->
<g id="edge32" class="edge">
<title>models.making_plan&#45;&gt;models.roll</title>
<path fill="none" stroke="black" d="M699.66,-468.11C729.83,-490.1 780.83,-530.85 813,-576 826.57,-595.05 836.62,-619.7 842.97,-638.23"/>
<polygon fill="black" stroke="black" points="846.11,-647.82 838.72,-639.71 844.55,-643.06 842.99,-638.31 842.99,-638.31 842.99,-638.31 844.55,-643.06 847.27,-636.91 846.11,-647.82 846.11,-647.82"/>
</g>
<!-- models.order&#45;&gt;models.roll -->
<g id="edge33" class="edge">
<title>models.order&#45;&gt;models.roll</title>
<path fill="none" stroke="black" d="M920.26,-612.3C908.56,-621.2 894.14,-632.18 881.49,-641.8"/>
<polygon fill="black" stroke="black" points="873.48,-647.9 878.71,-638.26 877.46,-644.87 881.44,-641.84 881.44,-641.84 881.44,-641.84 877.46,-644.87 884.16,-645.42 873.48,-647.9 873.48,-647.9"/>
</g>
<!-- models.pm_machine&#45;&gt;models.roll -->
<g id="edge34" class="edge">
<title>models.pm_machine&#45;&gt;models.roll</title>
<path fill="none" stroke="black" d="M595.73,-609.33C656.69,-622.63 746.05,-642.11 801.27,-654.16"/>
<polygon fill="black" stroke="black" points="811.17,-656.31 800.44,-658.58 806.28,-655.25 801.4,-654.18 801.4,-654.18 801.4,-654.18 806.28,-655.25 802.36,-649.79 811.17,-656.31 811.17,-656.31"/>
</g>
<!-- models.problem&#45;&gt;models.order -->
<g id="edge35" class="edge">
<title>models.problem&#45;&gt;models.order</title>
<path fill="none" stroke="black" d="M583.15,-532.01C661.75,-545.33 808.27,-570.16 887.95,-583.67"/>
<polygon fill="black" stroke="black" points="898.27,-585.42 887.66,-588.18 893.34,-584.58 888.41,-583.75 888.41,-583.75 888.41,-583.75 893.34,-584.58 889.16,-579.31 898.27,-585.42 898.27,-585.42"/>
</g>
<!-- models.problem&#45;&gt;models.pm_machine -->
<g id="edge36" class="edge">
<title>models.problem&#45;&gt;models.pm_machine</title>
<path fill="none" stroke="black" d="M530,-540.3C530,-548.02 530,-557.29 530,-565.89"/>
<polygon fill="black" stroke="black" points="530,-575.9 525.5,-565.9 530,-570.9 530,-565.9 530,-565.9 530,-565.9 530,-570.9 534.5,-565.9 530,-575.9 530,-575.9"/>
</g>
<!-- models.problem&#45;&gt;models.roll -->
<g id="edge37" class="edge">
<title>models.problem&#45;&gt;models.roll</title>
<path fill="none" stroke="black" d="M555.58,-540.16C570.11,-550.18 588.44,-563.33 604,-576 622.29,-590.9 622.27,-600.74 643,-612 693.02,-639.16 757.41,-652.78 801.2,-659.35"/>
<polygon fill="black" stroke="black" points="811.32,-660.79 800.78,-663.83 806.37,-660.09 801.42,-659.38 801.42,-659.38 801.42,-659.38 806.37,-660.09 802.06,-654.92 811.32,-660.79 811.32,-660.79"/>
</g>
<!-- models.problem&#45;&gt;models.slitting_machine -->
<g id="edge38" class="edge">
<title>models.problem&#45;&gt;models.slitting_machine</title>
<path fill="none" stroke="black" d="M578.18,-540.03C605.85,-549.81 640.78,-562.16 669.95,-572.48"/>
<polygon fill="black" stroke="black" points="679.6,-575.89 668.67,-576.8 674.89,-574.22 670.17,-572.56 670.17,-572.56 670.17,-572.56 674.89,-574.22 671.67,-568.31 679.6,-575.89 679.6,-575.89"/>
</g>
<!-- models.problem&#45;&gt;models.storage -->
<g id="edge39" class="edge">
<title>models.problem&#45;&gt;models.storage</title>
<path fill="none" stroke="black" d="M497.46,-540.12C479.75,-549.45 457.65,-561.08 438.68,-571.06"/>
<polygon fill="black" stroke="black" points="429.66,-575.81 436.41,-567.17 434.09,-573.48 438.51,-571.15 438.51,-571.15 438.51,-571.15 434.09,-573.48 440.61,-575.13 429.66,-575.81 429.66,-575.81"/>
</g>
<!-- models.problem&#45;&gt;models.workshop -->
<g id="edge40" class="edge">
<title>models.problem&#45;&gt;models.workshop</title>
<path fill="none" stroke="black" d="M476.75,-537.5C436.92,-548.35 382.2,-563.26 339.5,-574.89"/>
<polygon fill="black" stroke="black" points="329.75,-577.54 338.21,-570.57 334.57,-576.23 339.4,-574.92 339.4,-574.92 339.4,-574.92 334.57,-576.23 340.58,-579.26 329.75,-577.54 329.75,-577.54"/>
</g>
<!-- models.roll&#45;&gt;models.format -->
<g id="edge41" class="edge">
<title>models.roll&#45;&gt;models.format</title>
<path fill="none" stroke="black" d="M890.62,-678.95C927.4,-690.05 982.63,-706.72 1024.49,-719.35"/>
<polygon fill="black" stroke="black" points="1034.28,-722.3 1023.41,-723.72 1029.49,-720.86 1024.71,-719.41 1024.71,-719.41 1024.71,-719.41 1029.49,-720.86 1026.01,-715.1 1034.28,-722.3 1034.28,-722.3"/>
</g>
<!-- models.storage&#45;&gt;models.roll -->
<g id="edge42" class="edge">
<title>models.storage&#45;&gt;models.roll</title>
<path fill="none" stroke="black" d="M446.55,-610.06C449.4,-610.76 452.23,-611.41 455,-612 578.13,-638.13 725.67,-653.84 801.15,-660.78"/>
<polygon fill="black" stroke="black" points="811.32,-661.7 800.95,-665.28 806.34,-661.25 801.36,-660.8 801.36,-660.8 801.36,-660.8 806.34,-661.25 801.76,-656.32 811.32,-661.7 811.32,-661.7"/>
</g>
<!-- models.tests -->
<g id="node14" class="node">
<title>models.tests</title>
<polygon fill="none" stroke="black" points="1494,-36 1410,-36 1410,0 1494,0 1494,-36"/>
<text text-anchor="middle" x="1452" y="-14.3" font-family="Times,serif" font-size="14.00">models.tests</text>
</g>
<!-- models.tests.fixtures -->
<g id="node15" class="node">
<title>models.tests.fixtures</title>
<polygon fill="none" stroke="black" points="1377.5,-108 1248.5,-108 1248.5,-72 1377.5,-72 1377.5,-108"/>
<text text-anchor="middle" x="1313" y="-86.3" font-family="Times,serif" font-size="14.00">models.tests.fixtures</text>
</g>
<!-- models.tests.fixtures&#45;&gt;models -->
<g id="edge43" class="edge">
<title>models.tests.fixtures&#45;&gt;models</title>
<path fill="none" stroke="black" d="M1248.25,-99.41C1134.84,-114.14 903.65,-144.16 812.34,-156.02"/>
<polygon fill="black" stroke="black" points="802.16,-157.34 811.5,-151.59 807.12,-156.7 812.08,-156.05 812.08,-156.05 812.08,-156.05 807.12,-156.7 812.66,-160.52 802.16,-157.34 802.16,-157.34"/>
</g>
<!-- models.tests.fixtures&#45;&gt;models.cutting_layout -->
<g id="edge44" class="edge">
<title>models.tests.fixtures&#45;&gt;models.cutting_layout</title>
<path fill="none" stroke="black" d="M1313.92,-108.02C1315.69,-158.7 1313.98,-310.37 1237,-396 1221.21,-413.57 1198.96,-425.35 1176.88,-433.23"/>
<polygon fill="black" stroke="black" points="1167.11,-436.48 1175.18,-429.06 1171.85,-434.9 1176.6,-433.33 1176.6,-433.33 1176.6,-433.33 1171.85,-434.9 1178.02,-437.6 1167.11,-436.48 1167.11,-436.48"/>
</g>
<!-- models.tests.fixtures&#45;&gt;models.cutting_plan -->
<g id="edge45" class="edge">
<title>models.tests.fixtures&#45;&gt;models.cutting_plan</title>
<path fill="none" stroke="black" d="M1297.63,-108.03C1253.91,-156.5 1128.67,-295.33 1077.35,-352.23"/>
<polygon fill="black" stroke="black" points="1070.61,-359.69 1073.97,-349.25 1073.96,-355.98 1077.31,-352.27 1077.31,-352.27 1077.31,-352.27 1073.96,-355.98 1080.65,-355.28 1070.61,-359.69 1070.61,-359.69"/>
</g>
<!-- models.tests.fixtures&#45;&gt;models.roll -->
<g id="edge46" class="edge">
<title>models.tests.fixtures&#45;&gt;models.roll</title>
<path fill="none" stroke="black" d="M1317.86,-108.33C1324.87,-134.92 1337,-187.5 1337,-233 1337,-233 1337,-233 1337,-307 1337,-474.66 1261.04,-529.64 1115,-612 1047.48,-650.08 956.67,-661.06 901.07,-664.08"/>
<polygon fill="black" stroke="black" points="890.77,-664.57 900.55,-659.6 895.77,-664.33 900.76,-664.09 900.76,-664.09 900.76,-664.09 895.77,-664.33 900.98,-668.59 890.77,-664.57 890.77,-664.57"/>
</g>
<!-- models.tests.test_cutting_layout -->
<g id="node16" class="node">
<title>models.tests.test_cutting_layout</title>
<polygon fill="none" stroke="black" points="763.5,-108 572.5,-108 572.5,-72 763.5,-72 763.5,-108"/>
<text text-anchor="middle" x="668" y="-86.3" font-family="Times,serif" font-size="14.00">models.tests.test_cutting_layout</text>
</g>
<!-- models.tests.test_cutting_layout&#45;&gt;models -->
<g id="edge47" class="edge">
<title>models.tests.test_cutting_layout&#45;&gt;models</title>
<path fill="none" stroke="black" d="M693.93,-108.12C707.66,-117.19 724.71,-128.45 739.54,-138.24"/>
<polygon fill="black" stroke="black" points="747.97,-143.81 737.15,-142.05 743.8,-141.05 739.63,-138.3 739.63,-138.3 739.63,-138.3 743.8,-141.05 742.1,-134.54 747.97,-143.81 747.97,-143.81"/>
</g>
<!-- models.tests.test_cutting_plan -->
<g id="node17" class="node">
<title>models.tests.test_cutting_plan</title>
<polygon fill="none" stroke="black" points="962.5,-108 781.5,-108 781.5,-72 962.5,-72 962.5,-108"/>
<text text-anchor="middle" x="872" y="-86.3" font-family="Times,serif" font-size="14.00">models.tests.test_cutting_plan</text>
</g>
<!-- models.tests.test_cutting_plan&#45;&gt;models -->
<g id="edge48" class="edge">
<title>models.tests.test_cutting_plan&#45;&gt;models</title>
<path fill="none" stroke="black" d="M848.03,-108.12C835.45,-117.11 819.87,-128.24 806.25,-137.97"/>
<polygon fill="black" stroke="black" points="798.07,-143.81 803.59,-134.34 802.13,-140.9 806.2,-138 806.2,-138 806.2,-138 802.13,-140.9 808.82,-141.66 798.07,-143.81 798.07,-143.81"/>
</g>
<!-- models.tests.test_global_plan -->
<g id="node18" class="node">
<title>models.tests.test_global_plan</title>
<polygon fill="none" stroke="black" points="454.5,-36 277.5,-36 277.5,0 454.5,0 454.5,-36"/>
<text text-anchor="middle" x="366" y="-14.3" font-family="Times,serif" font-size="14.00">models.tests.test_global_plan</text>
</g>
<!-- models.tests.test_global_plan&#45;&gt;models.cutting_layout -->
<g id="edge49" class="edge">
<title>models.tests.test_global_plan&#45;&gt;models.cutting_layout</title>
<path fill="none" stroke="black" d="M454.53,-19.61C609.5,-21.75 923.07,-31.17 1024,-72 1117.37,-109.78 1155.99,-124.92 1199,-216 1234.44,-291.06 1163.12,-381.75 1122.9,-424.47"/>
<polygon fill="black" stroke="black" points="1115.79,-431.88 1119.47,-421.55 1119.25,-428.27 1122.72,-424.66 1122.72,-424.66 1122.72,-424.66 1119.25,-428.27 1125.96,-427.78 1115.79,-431.88 1115.79,-431.88"/>
</g>
<!-- models.tests.test_global_plan&#45;&gt;models.cutting_plan -->
<g id="edge50" class="edge">
<title>models.tests.test_global_plan&#45;&gt;models.cutting_plan</title>
<path fill="none" stroke="black" d="M454.6,-19.9C599.82,-22.51 881.43,-32.66 972,-72 1026.27,-95.57 1071,-101.83 1071,-161 1071,-161 1071,-161 1071,-235 1071,-275.04 1064.64,-321.03 1059.94,-349.55"/>
<polygon fill="black" stroke="black" points="1058.24,-359.58 1055.48,-348.97 1059.08,-354.65 1059.91,-349.72 1059.91,-349.72 1059.91,-349.72 1059.08,-354.65 1064.35,-350.48 1058.24,-359.58 1058.24,-359.58"/>
</g>
<!-- models.tests.test_global_plan&#45;&gt;models.global_plan -->
<g id="edge51" class="edge">
<title>models.tests.test_global_plan&#45;&gt;models.global_plan</title>
<path fill="none" stroke="black" d="M376.34,-36.15C398.89,-73.56 452.61,-162.68 479.34,-207.02"/>
<polygon fill="black" stroke="black" points="484.61,-215.77 475.6,-209.53 482.03,-211.49 479.45,-207.2 479.45,-207.2 479.45,-207.2 482.03,-211.49 483.3,-204.88 484.61,-215.77 484.61,-215.77"/>
</g>
<!-- models.tests.test_global_plan&#45;&gt;models.problem -->
<g id="edge52" class="edge">
<title>models.tests.test_global_plan&#45;&gt;models.problem</title>
<path fill="none" stroke="black" d="M353.06,-36.34C335.16,-62.12 305,-112.7 305,-161 305,-161 305,-161 305,-307 305,-402.38 412.47,-468.14 478.86,-499.66"/>
<polygon fill="black" stroke="black" points="487.94,-503.88 476.98,-503.75 483.41,-501.77 478.87,-499.67 478.87,-499.67 478.87,-499.67 483.41,-501.77 480.77,-495.59 487.94,-503.88 487.94,-503.88"/>
</g>
<!-- models.tests.test_global_plan&#45;&gt;models.roll -->
<g id="edge53" class="edge">
<title>models.tests.test_global_plan&#45;&gt;models.roll</title>
<path fill="none" stroke="black" d="M277.28,-29.97C230.82,-37.83 173.81,-50.87 126,-72 63.29,-99.72 0,-92.44 0,-161 0,-161 0,-161 0,-523 0,-567.13 7.3,-587.5 44,-612 106.85,-653.95 634.65,-662.83 801,-664.59"/>
<polygon fill="black" stroke="black" points="811.42,-664.69 801.38,-669.09 806.42,-664.64 801.42,-664.59 801.42,-664.59 801.42,-664.59 806.42,-664.64 801.47,-660.09 811.42,-664.69 811.42,-664.69"/>
</g>
<!-- models.tests.test_global_plan&#45;&gt;models.storage -->
<g id="edge54" class="edge">
<title>models.tests.test_global_plan&#45;&gt;models.storage</title>
<path fill="none" stroke="black" d="M291.5,-36.07C230.08,-55.07 153,-92.56 153,-161 153,-161 153,-161 153,-307 153,-430.99 287.36,-528.45 356.68,-570.48"/>
<polygon fill="black" stroke="black" points="365.6,-575.8 354.71,-574.55 361.31,-573.24 357.01,-570.68 357.01,-570.68 357.01,-570.68 361.31,-573.24 359.32,-566.82 365.6,-575.8 365.6,-575.8"/>
</g>
<!-- models.tests.test_global_plan&#45;&gt;models.tests.fixtures -->
<g id="edge55" class="edge">
<title>models.tests.test_global_plan&#45;&gt;models.tests.fixtures</title>
<path fill="none" stroke="black" d="M454.53,-20C612.02,-22.76 950.94,-33.13 1234,-72 1235.48,-72.2 1236.97,-72.42 1238.47,-72.64"/>
<polygon fill="black" stroke="black" points="1248.47,-74.28 1237.88,-77.11 1243.54,-73.48 1238.6,-72.67 1238.6,-72.67 1238.6,-72.67 1243.54,-73.48 1239.33,-68.23 1248.47,-74.28 1248.47,-74.28"/>
</g>
<!-- models.tests.test_global_plan&#45;&gt;models.workshop -->
<g id="edge56" class="edge">
<title>models.tests.test_global_plan&#45;&gt;models.workshop</title>
<path fill="none" stroke="black" d="M277.21,-27.91C240.54,-35.16 199.36,-48.28 168,-72 131.28,-99.77 115,-114.96 115,-161 115,-161 115,-161 115,-451 115,-508.79 174.2,-549.04 220.13,-571.57"/>
<polygon fill="black" stroke="black" points="229.41,-575.97 218.44,-575.75 224.89,-573.83 220.37,-571.68 220.37,-571.68 220.37,-571.68 224.89,-573.83 222.3,-567.62 229.41,-575.97 229.41,-575.97"/>
</g>
<!-- models.tests.test_making_plan -->
<g id="node19" class="node">
<title>models.tests.test_making_plan</title>
<polygon fill="none" stroke="black" points="897.5,-396 712.5,-396 712.5,-360 897.5,-360 897.5,-396"/>
<text text-anchor="middle" x="805" y="-374.3" font-family="Times,serif" font-size="14.00">models.tests.test_making_plan</text>
</g>
<!-- models.tests.test_making_plan&#45;&gt;models.making_plan -->
<g id="edge57" class="edge">
<title>models.tests.test_making_plan&#45;&gt;models.making_plan</title>
<path fill="none" stroke="black" d="M773.2,-396.12C755.89,-405.45 734.28,-417.08 715.74,-427.06"/>
<polygon fill="black" stroke="black" points="706.92,-431.81 713.6,-423.11 711.33,-429.44 715.73,-427.07 715.73,-427.07 715.73,-427.07 711.33,-429.44 717.86,-431.03 706.92,-431.81 706.92,-431.81"/>
</g>
<!-- models.tests.test_making_plan&#45;&gt;models.problem -->
<g id="edge58" class="edge">
<title>models.tests.test_making_plan&#45;&gt;models.problem</title>
<path fill="none" stroke="black" d="M798.82,-396.25C790.63,-416.58 774.2,-449.88 749,-468 703.43,-500.76 640.15,-513.45 593.33,-518.27"/>
<polygon fill="black" stroke="black" points="583.3,-519.21 592.84,-513.8 588.28,-518.74 593.26,-518.28 593.26,-518.28 593.26,-518.28 588.28,-518.74 593.68,-522.76 583.3,-519.21 583.3,-519.21"/>
</g>
<!-- models.tests.test_making_plan&#45;&gt;models.roll -->
<g id="edge59" class="edge">
<title>models.tests.test_making_plan&#45;&gt;models.roll</title>
<path fill="none" stroke="black" d="M807.74,-396.03C815.42,-443.81 837.23,-579.38 846.61,-637.73"/>
<polygon fill="black" stroke="black" points="848.22,-647.69 842.19,-638.54 847.42,-642.76 846.63,-637.82 846.63,-637.82 846.63,-637.82 847.42,-642.76 851.07,-637.11 848.22,-647.69 848.22,-647.69"/>
</g>
<!-- models.tests.test_problem -->
<g id="node20" class="node">
<title>models.tests.test_problem</title>
<polygon fill="none" stroke="black" points="1392.5,-36 1233.5,-36 1233.5,0 1392.5,0 1392.5,-36"/>
<text text-anchor="middle" x="1313" y="-14.3" font-family="Times,serif" font-size="14.00">models.tests.test_problem</text>
</g>
<!-- models.tests.test_problem&#45;&gt;models.tests.fixtures -->
<g id="edge60" class="edge">
<title>models.tests.test_problem&#45;&gt;models.tests.fixtures</title>
<path fill="none" stroke="black" d="M1313,-36.3C1313,-44.02 1313,-53.29 1313,-61.89"/>
<polygon fill="black" stroke="black" points="1313,-71.9 1308.5,-61.9 1313,-66.9 1313,-61.9 1313,-61.9 1313,-61.9 1313,-66.9 1317.5,-61.9 1313,-71.9 1313,-71.9"/>
</g>
<!-- models.tests.test_roll -->
<g id="node21" class="node">
<title>models.tests.test_roll</title>
<polygon fill="none" stroke="black" points="198,-612 66,-612 66,-576 198,-576 198,-612"/>
<text text-anchor="middle" x="132" y="-590.3" font-family="Times,serif" font-size="14.00">models.tests.test_roll</text>
</g>
<!-- models.tests.test_roll&#45;&gt;models.roll -->
<g id="edge61" class="edge">
<title>models.tests.test_roll&#45;&gt;models.roll</title>
<path fill="none" stroke="black" d="M198.16,-610.53C201.14,-611.06 204.1,-611.55 207,-612 426.94,-645.8 692.67,-659.04 801.19,-663.29"/>
<polygon fill="black" stroke="black" points="811.2,-663.67 801.03,-667.79 806.2,-663.48 801.21,-663.29 801.21,-663.29 801.21,-663.29 806.2,-663.48 801.38,-658.79 811.2,-663.67 811.2,-663.67"/>
</g>
</g>
</svg>
