<?xml version="1.0" encoding="UTF-8" standalone="no"?>
<!DOCTYPE svg PUBLIC "-//W3C//DTD SVG 1.1//EN"
 "http://www.w3.org/Graphics/SVG/1.1/DTD/svg11.dtd">
<!-- Generated by graphviz version 2.43.0 (0)
 -->
<!-- Title: packages_models Pages: 1 -->
<svg width="1378pt" height="764pt"
 viewBox="0.00 0.00 1377.50 764.00" xmlns="http://www.w3.org/2000/svg" xmlns:xlink="http://www.w3.org/1999/xlink">
<g id="graph0" class="graph" transform="scale(1 1) rotate(0) translate(4 760)">
<title>packages_models</title>
<polygon fill="white" stroke="transparent" points="-4,4 -4,-760 1373.5,-760 1373.5,4 -4,4"/>
<!-- models -->
<g id="node1" class="node">
<title>models</title>
<polygon fill="none" stroke="black" points="489.5,-180 433.5,-180 433.5,-144 489.5,-144 489.5,-180"/>
<text text-anchor="middle" x="461.5" y="-158.3" font-family="Times,serif" font-size="14.00">models</text>
</g>
<!-- models.cutting_layout -->
<g id="node2" class="node">
<title>models.cutting_layout</title>
<polygon fill="none" stroke="black" points="1303.5,-468 1165.5,-468 1165.5,-432 1303.5,-432 1303.5,-468"/>
<text text-anchor="middle" x="1234.5" y="-446.3" font-family="Times,serif" font-size="14.00">models.cutting_layout</text>
</g>
<!-- models&#45;&gt;models.cutting_layout -->
<g id="edge1" class="edge">
<title>models&#45;&gt;models.cutting_layout</title>
<path fill="none" stroke="black" d="M489.68,-163.53C598.5,-165.83 991.05,-176.75 1108.5,-216 1165.34,-234.99 1191.64,-236.63 1222.5,-288 1247.25,-329.19 1244.23,-387.42 1239.54,-421.39"/>
<polygon fill="black" stroke="black" points="1237.99,-431.52 1235.05,-420.95 1238.74,-426.57 1239.5,-421.63 1239.5,-421.63 1239.5,-421.63 1238.74,-426.57 1243.95,-422.31 1237.99,-431.52 1237.99,-431.52"/>
</g>
<!-- models.cutting_plan -->
<g id="node3" class="node">
<title>models.cutting_plan</title>
<polygon fill="none" stroke="black" points="1104.5,-396 976.5,-396 976.5,-360 1104.5,-360 1104.5,-396"/>
<text text-anchor="middle" x="1040.5" y="-374.3" font-family="Times,serif" font-size="14.00">models.cutting_plan</text>
</g>
<!-- models&#45;&gt;models.cutting_plan -->
<g id="edge2" class="edge">
<title>models&#45;&gt;models.cutting_plan</title>
<path fill="none" stroke="black" d="M489.71,-163.54C548.43,-165.5 687.2,-174.55 794.5,-216 881.5,-249.61 969.63,-317.26 1012.96,-353.24"/>
<polygon fill="black" stroke="black" points="1020.76,-359.78 1010.21,-356.81 1016.93,-356.57 1013.1,-353.36 1013.1,-353.36 1013.1,-353.36 1016.93,-356.57 1015.99,-349.91 1020.76,-359.78 1020.76,-359.78"/>
</g>
<!-- models.event_queue -->
<g id="node4" class="node">
<title>models.event_queue</title>
<polygon fill="none" stroke="black" points="736.5,-324 608.5,-324 608.5,-288 736.5,-288 736.5,-324"/>
<text text-anchor="middle" x="672.5" y="-302.3" font-family="Times,serif" font-size="14.00">models.event_queue</text>
</g>
<!-- models&#45;&gt;models.event_queue -->
<g id="edge3" class="edge">
<title>models&#45;&gt;models.event_queue</title>
<path fill="none" stroke="black" d="M486.95,-180.13C524.89,-205.66 596.34,-253.75 638.65,-282.22"/>
<polygon fill="black" stroke="black" points="646.96,-287.81 636.15,-285.96 642.81,-285.02 638.66,-282.23 638.66,-282.23 638.66,-282.23 642.81,-285.02 641.17,-278.49 646.96,-287.81 646.96,-287.81"/>
</g>
<!-- models.format -->
<g id="node5" class="node">
<title>models.format</title>
<polygon fill="none" stroke="black" points="631,-756 534,-756 534,-720 631,-720 631,-756"/>
<text text-anchor="middle" x="582.5" y="-734.3" font-family="Times,serif" font-size="14.00">models.format</text>
</g>
<!-- models&#45;&gt;models.format -->
<g id="edge4" class="edge">
<title>models&#45;&gt;models.format</title>
<path fill="none" stroke="black" d="M433.45,-168.95C405.72,-176.06 363.5,-190.35 335.5,-216 302.51,-246.21 288.5,-260.27 288.5,-305 288.5,-305 288.5,-305 288.5,-595 288.5,-698.49 438.04,-726.59 523.82,-734.2"/>
<polygon fill="black" stroke="black" points="533.95,-735.03 523.62,-738.7 528.97,-734.62 523.99,-734.21 523.99,-734.21 523.99,-734.21 528.97,-734.62 524.35,-729.73 533.95,-735.03 533.95,-735.03"/>
</g>
<!-- models.global_plan -->
<g id="node6" class="node">
<title>models.global_plan</title>
<polygon fill="none" stroke="black" points="1036.5,-252 912.5,-252 912.5,-216 1036.5,-216 1036.5,-252"/>
<text text-anchor="middle" x="974.5" y="-230.3" font-family="Times,serif" font-size="14.00">models.global_plan</text>
</g>
<!-- models&#45;&gt;models.global_plan -->
<g id="edge5" class="edge">
<title>models&#45;&gt;models.global_plan</title>
<path fill="none" stroke="black" d="M489.52,-166.02C556.99,-173.42 733.74,-193.46 880.5,-216 887.6,-217.09 894.99,-218.3 902.36,-219.55"/>
<polygon fill="black" stroke="black" points="912.39,-221.29 901.76,-224.02 907.46,-220.43 902.53,-219.58 902.53,-219.58 902.53,-219.58 907.46,-220.43 903.3,-215.15 912.39,-221.29 912.39,-221.29"/>
</g>
<!-- models.making_plan -->
<g id="node7" class="node">
<title>models.making_plan</title>
<polygon fill="none" stroke="black" points="941,-468 810,-468 810,-432 941,-432 941,-468"/>
<text text-anchor="middle" x="875.5" y="-446.3" font-family="Times,serif" font-size="14.00">models.making_plan</text>
</g>
<!-- models&#45;&gt;models.making_plan -->
<g id="edge6" class="edge">
<title>models&#45;&gt;models.making_plan</title>
<path fill="none" stroke="black" d="M489.75,-165.97C568.74,-176.02 791.64,-216.53 876.5,-360 887.47,-378.54 886.19,-403.28 882.76,-421.97"/>
<polygon fill="black" stroke="black" points="880.63,-431.92 878.32,-421.2 881.67,-427.03 882.72,-422.14 882.72,-422.14 882.72,-422.14 881.67,-427.03 887.12,-423.09 880.63,-431.92 880.63,-431.92"/>
</g>
<!-- models.order -->
<g id="node8" class="node">
<title>models.order</title>
<polygon fill="none" stroke="black" points="1182,-612 1093,-612 1093,-576 1182,-576 1182,-612"/>
<text text-anchor="middle" x="1137.5" y="-590.3" font-family="Times,serif" font-size="14.00">models.order</text>
</g>
<!-- models&#45;&gt;models.order -->
<g id="edge7" class="edge">
<title>models&#45;&gt;models.order</title>
<path fill="none" stroke="black" d="M489.71,-164.06C599.99,-168.4 998.13,-186.03 1045.5,-216 1163.56,-290.68 1150.73,-491.72 1141.59,-565.43"/>
<polygon fill="black" stroke="black" points="1140.23,-575.74 1137.07,-565.23 1140.88,-570.78 1141.53,-565.82 1141.53,-565.82 1141.53,-565.82 1140.88,-570.78 1145.99,-566.41 1140.23,-575.74 1140.23,-575.74"/>
</g>
<!-- models.pm_machine -->
<g id="node9" class="node">
<title>models.pm_machine</title>
<polygon fill="none" stroke="black" points="486,-612 355,-612 355,-576 486,-576 486,-612"/>
<text text-anchor="middle" x="420.5" y="-590.3" font-family="Times,serif" font-size="14.00">models.pm_machine</text>
</g>
<!-- models&#45;&gt;models.pm_machine -->
<g id="edge8" class="edge">
<title>models&#45;&gt;models.pm_machine</title>
<path fill="none" stroke="black" d="M433.24,-177.94C418.48,-187.08 401.3,-200.09 390.5,-216 367.49,-249.89 366.5,-264.03 366.5,-305 366.5,-305 366.5,-305 366.5,-451 366.5,-493.89 388.29,-539.59 404.19,-567.22"/>
<polygon fill="black" stroke="black" points="409.31,-575.87 400.34,-569.56 406.76,-571.57 404.21,-567.27 404.21,-567.27 404.21,-567.27 406.76,-571.57 408.08,-564.97 409.31,-575.87 409.31,-575.87"/>
</g>
<!-- models.problem -->
<g id="node10" class="node">
<title>models.problem</title>
<polygon fill="none" stroke="black" points="749.5,-540 643.5,-540 643.5,-504 749.5,-504 749.5,-540"/>
<text text-anchor="middle" x="696.5" y="-518.3" font-family="Times,serif" font-size="14.00">models.problem</text>
</g>
<!-- models&#45;&gt;models.problem -->
<g id="edge9" class="edge">
<title>models&#45;&gt;models.problem</title>
<path fill="none" stroke="black" d="M460.83,-180.11C459.79,-231.05 463.75,-383.37 542.5,-468 565.96,-493.21 601.97,-506.43 633.26,-513.36"/>
<polygon fill="black" stroke="black" points="643.24,-515.4 632.54,-517.81 638.34,-514.4 633.44,-513.4 633.44,-513.4 633.44,-513.4 638.34,-514.4 634.34,-508.99 643.24,-515.4 643.24,-515.4"/>
</g>
<!-- models.roll -->
<g id="node11" class="node">
<title>models.roll</title>
<polygon fill="none" stroke="black" points="916,-684 837,-684 837,-648 916,-648 916,-684"/>
<text text-anchor="middle" x="876.5" y="-662.3" font-family="Times,serif" font-size="14.00">models.roll</text>
</g>
<!-- models&#45;&gt;models.roll -->
<g id="edge10" class="edge">
<title>models&#45;&gt;models.roll</title>
<path fill="none" stroke="black" d="M433.26,-173.65C413.08,-182.45 386.43,-196.64 368.5,-216 338.79,-248.1 326.5,-261.26 326.5,-305 326.5,-305 326.5,-305 326.5,-523 326.5,-563.45 315.36,-585.03 345.5,-612 380.96,-643.74 701.58,-658.67 826.76,-663.33"/>
<polygon fill="black" stroke="black" points="836.84,-663.7 826.68,-667.83 831.84,-663.52 826.84,-663.33 826.84,-663.33 826.84,-663.33 831.84,-663.52 827.01,-658.84 836.84,-663.7 836.84,-663.7"/>
</g>
<!-- models.slitting_machine -->
<g id="node12" class="node">
<title>models.slitting_machine</title>
<polygon fill="none" stroke="black" points="772,-612 621,-612 621,-576 772,-576 772,-612"/>
<text text-anchor="middle" x="696.5" y="-590.3" font-family="Times,serif" font-size="14.00">models.slitting_machine</text>
</g>
<!-- models&#45;&gt;models.slitting_machine -->
<g id="edge11" class="edge">
<title>models&#45;&gt;models.slitting_machine</title>
<path fill="none" stroke="black" d="M458.94,-180.29C452.43,-231.06 440.6,-381.57 513.5,-468 551.93,-513.57 610.87,-549.76 651.42,-571.24"/>
<polygon fill="black" stroke="black" points="660.54,-575.99 649.6,-575.36 656.11,-573.68 651.67,-571.37 651.67,-571.37 651.67,-571.37 656.11,-573.68 653.75,-567.38 660.54,-575.99 660.54,-575.99"/>
</g>
<!-- models.storage -->
<g id="node13" class="node">
<title>models.storage</title>
<polygon fill="none" stroke="black" points="603,-612 504,-612 504,-576 603,-576 603,-612"/>
<text text-anchor="middle" x="553.5" y="-590.3" font-family="Times,serif" font-size="14.00">models.storage</text>
</g>
<!-- models&#45;&gt;models.storage -->
<g id="edge12" class="edge">
<title>models&#45;&gt;models.storage</title>
<path fill="none" stroke="black" d="M448.83,-180.43C442.03,-190.44 433.95,-203.48 428.5,-216 412.16,-253.57 404.5,-264.03 404.5,-305 404.5,-305 404.5,-305 404.5,-451 404.5,-507.38 461.1,-548.2 504.53,-571.23"/>
<polygon fill="black" stroke="black" points="513.57,-575.87 502.62,-575.31 509.12,-573.59 504.67,-571.3 504.67,-571.3 504.67,-571.3 509.12,-573.59 506.73,-567.3 513.57,-575.87 513.57,-575.87"/>
</g>
<!-- models.cutting_layout&#45;&gt;models.order -->
<g id="edge13" class="edge">
<title>models.cutting_layout&#45;&gt;models.order</title>
<path fill="none" stroke="black" d="M1222.8,-468.13C1205.9,-492.86 1174.55,-538.76 1154.93,-567.49"/>
<polygon fill="black" stroke="black" points="1149.24,-575.81 1151.17,-565.02 1152.06,-571.68 1154.88,-567.55 1154.88,-567.55 1154.88,-567.55 1152.06,-571.68 1158.6,-570.09 1149.24,-575.81 1149.24,-575.81"/>
</g>
<!-- models.cutting_layout&#45;&gt;models.problem -->
<g id="edge14" class="edge">
<title>models.cutting_layout&#45;&gt;models.problem</title>
<path fill="none" stroke="black" d="M1165.27,-460.01C1060.04,-473.7 861.4,-499.55 759.81,-512.76"/>
<polygon fill="black" stroke="black" points="749.69,-514.08 759.03,-508.33 754.65,-513.43 759.61,-512.79 759.61,-512.79 759.61,-512.79 754.65,-513.43 760.19,-517.25 749.69,-514.08 749.69,-514.08"/>
</g>
<!-- models.cutting_layout&#45;&gt;models.roll -->
<g id="edge15" class="edge">
<title>models.cutting_layout&#45;&gt;models.roll</title>
<path fill="none" stroke="black" d="M1235.46,-468.11C1236.3,-501.24 1233.01,-574.23 1191.5,-612 1153.47,-646.6 1005.27,-658.88 926.45,-663.03"/>
<polygon fill="black" stroke="black" points="916.27,-663.54 926.03,-658.54 921.26,-663.29 926.26,-663.04 926.26,-663.04 926.26,-663.04 921.26,-663.29 926.48,-667.53 916.27,-663.54 916.27,-663.54"/>
</g>
<!-- models.cutting_plan&#45;&gt;models.cutting_layout -->
<g id="edge16" class="edge">
<title>models.cutting_plan&#45;&gt;models.cutting_layout</title>
<path fill="none" stroke="black" d="M1087.96,-396.12C1115.07,-405.91 1149.24,-418.23 1177.76,-428.53"/>
<polygon fill="black" stroke="black" points="1187.2,-431.93 1176.26,-432.77 1182.49,-430.23 1177.79,-428.54 1177.79,-428.54 1177.79,-428.54 1182.49,-430.23 1179.32,-424.3 1187.2,-431.93 1187.2,-431.93"/>
</g>
<!-- models.cutting_plan&#45;&gt;models.problem -->
<g id="edge17" class="edge">
<title>models.cutting_plan&#45;&gt;models.problem</title>
<path fill="none" stroke="black" d="M1025.14,-396.17C1004.07,-419.33 966.85,-458.74 949.5,-468 889.99,-499.77 813.14,-512.5 759.83,-517.6"/>
<polygon fill="black" stroke="black" points="749.83,-518.5 759.39,-513.12 754.81,-518.05 759.79,-517.61 759.79,-517.61 759.79,-517.61 754.81,-518.05 760.19,-522.09 749.83,-518.5 749.83,-518.5"/>
</g>
<!-- models.cutting_plan&#45;&gt;models.roll -->
<g id="edge18" class="edge">
<title>models.cutting_plan&#45;&gt;models.roll</title>
<path fill="none" stroke="black" d="M1030.73,-396.03C1003.17,-444.11 924.63,-581.07 891.52,-638.81"/>
<polygon fill="black" stroke="black" points="886.42,-647.69 887.49,-636.78 888.91,-643.36 891.4,-639.02 891.4,-639.02 891.4,-639.02 888.91,-643.36 895.3,-641.26 886.42,-647.69 886.42,-647.69"/>
</g>
<!-- models.event_queue&#45;&gt;models.cutting_plan -->
<g id="edge19" class="edge">
<title>models.event_queue&#45;&gt;models.cutting_plan</title>
<path fill="none" stroke="black" d="M736.6,-319.19C800.55,-331.36 898.73,-350.03 966.09,-362.85"/>
<polygon fill="black" stroke="black" points="976.21,-364.77 965.54,-367.32 971.3,-363.84 966.38,-362.9 966.38,-362.9 966.38,-362.9 971.3,-363.84 967.23,-358.48 976.21,-364.77 976.21,-364.77"/>
</g>
<!-- models.event_queue&#45;&gt;models.making_plan -->
<g id="edge20" class="edge">
<title>models.event_queue&#45;&gt;models.making_plan</title>
<path fill="none" stroke="black" d="M736.75,-318.78C781.96,-328.34 837.19,-342.98 853.5,-360 869.2,-376.39 874.24,-402.13 875.62,-421.72"/>
<polygon fill="black" stroke="black" points="876.05,-431.88 871.13,-422.08 875.84,-426.88 875.63,-421.89 875.63,-421.89 875.63,-421.89 875.84,-426.88 880.12,-421.7 876.05,-431.88 876.05,-431.88"/>
</g>
<!-- models.event_queue&#45;&gt;models.problem -->
<g id="edge21" class="edge">
<title>models.event_queue&#45;&gt;models.problem</title>
<path fill="none" stroke="black" d="M647.57,-324.14C636.44,-333.33 624.5,-345.71 618.5,-360 599.92,-404.26 596.04,-425.58 618.5,-468 625.1,-480.46 636.08,-490.53 647.75,-498.41"/>
<polygon fill="black" stroke="black" points="656.32,-503.77 645.45,-502.29 652.08,-501.12 647.84,-498.47 647.84,-498.47 647.84,-498.47 652.08,-501.12 650.23,-494.65 656.32,-503.77 656.32,-503.77"/>
</g>
<!-- models.event_queue&#45;&gt;models.storage -->
<g id="edge22" class="edge">
<title>models.event_queue&#45;&gt;models.storage</title>
<path fill="none" stroke="black" d="M640.73,-324.05C626.96,-333 611.89,-345.19 602.5,-360 561.01,-425.45 554.01,-519.99 553.23,-565.92"/>
<polygon fill="black" stroke="black" points="553.15,-575.99 548.73,-565.95 553.19,-570.99 553.23,-565.99 553.23,-565.99 553.23,-565.99 553.19,-570.99 557.73,-566.02 553.15,-575.99 553.15,-575.99"/>
</g>
<!-- models.global_plan&#45;&gt;models.cutting_plan -->
<g id="edge23" class="edge">
<title>models.global_plan&#45;&gt;models.cutting_plan</title>
<path fill="none" stroke="black" d="M982.46,-252.13C993.86,-276.65 1014.92,-321.97 1028.3,-350.74"/>
<polygon fill="black" stroke="black" points="1032.51,-359.81 1024.21,-352.64 1030.4,-355.28 1028.3,-350.74 1028.3,-350.74 1028.3,-350.74 1030.4,-355.28 1032.38,-348.85 1032.51,-359.81 1032.51,-359.81"/>
</g>
<!-- models.global_plan&#45;&gt;models.event_queue -->
<g id="edge24" class="edge">
<title>models.global_plan&#45;&gt;models.event_queue</title>
<path fill="none" stroke="black" d="M912.29,-249.42C864.21,-260.56 797.51,-276.02 746.66,-287.81"/>
<polygon fill="black" stroke="black" points="736.71,-290.12 745.44,-283.47 741.58,-288.99 746.45,-287.86 746.45,-287.86 746.45,-287.86 741.58,-288.99 747.47,-292.24 736.71,-290.12 736.71,-290.12"/>
</g>
<!-- models.global_plan&#45;&gt;models.making_plan -->
<g id="edge25" class="edge">
<title>models.global_plan&#45;&gt;models.making_plan</title>
<path fill="none" stroke="black" d="M971.7,-252.47C966.23,-283.17 952.16,-348.1 924.5,-396 918.55,-406.3 910.28,-416.25 902.22,-424.7"/>
<polygon fill="black" stroke="black" points="894.95,-431.99 898.82,-421.73 898.48,-428.45 902.01,-424.91 902.01,-424.91 902.01,-424.91 898.48,-428.45 905.2,-428.08 894.95,-431.99 894.95,-431.99"/>
</g>
<!-- models.global_plan&#45;&gt;models.order -->
<g id="edge26" class="edge">
<title>models.global_plan&#45;&gt;models.order</title>
<path fill="none" stroke="black" d="M1004.73,-252.1C1038.06,-272.82 1090.07,-311.12 1113.5,-360 1130.81,-396.13 1117.24,-500.43 1123.5,-540 1124.84,-548.46 1126.97,-557.52 1129.16,-565.72"/>
<polygon fill="black" stroke="black" points="1131.93,-575.52 1124.88,-567.12 1130.57,-570.71 1129.21,-565.9 1129.21,-565.9 1129.21,-565.9 1130.57,-570.71 1133.54,-564.68 1131.93,-575.52 1131.93,-575.52"/>
</g>
<!-- models.global_plan&#45;&gt;models.problem -->
<g id="edge27" class="edge">
<title>models.global_plan&#45;&gt;models.problem</title>
<path fill="none" stroke="black" d="M931.07,-252.01C885.04,-270 810.21,-299.16 745.5,-324 703.35,-340.18 676.15,-322.84 650.5,-360 621.54,-401.94 653.83,-461.95 677.05,-495.61"/>
<polygon fill="black" stroke="black" points="683.01,-503.97 673.54,-498.44 680.11,-499.9 677.2,-495.83 677.2,-495.83 677.2,-495.83 680.11,-499.9 680.87,-493.21 683.01,-503.97 683.01,-503.97"/>
</g>
<!-- models.global_plan&#45;&gt;models.roll -->
<g id="edge28" class="edge">
<title>models.global_plan&#45;&gt;models.roll</title>
<path fill="none" stroke="black" d="M1036.8,-247.32C1144.77,-272.26 1351.58,-337.79 1312.5,-468 1290.46,-541.44 1282.01,-570.57 1217.5,-612 1170.18,-642.39 1008.9,-656.71 926.24,-662.19"/>
<polygon fill="black" stroke="black" points="916.07,-662.84 925.76,-657.71 921.06,-662.52 926.05,-662.2 926.05,-662.2 926.05,-662.2 921.06,-662.52 926.34,-666.69 916.07,-662.84 916.07,-662.84"/>
</g>
<!-- models.making_plan&#45;&gt;models.problem -->
<g id="edge29" class="edge">
<title>models.making_plan&#45;&gt;models.problem</title>
<path fill="none" stroke="black" d="M831.71,-468.12C806.92,-477.82 775.72,-490.02 749.54,-500.26"/>
<polygon fill="black" stroke="black" points="740.15,-503.93 747.82,-496.1 744.8,-502.11 749.46,-500.29 749.46,-500.29 749.46,-500.29 744.8,-502.11 751.1,-504.48 740.15,-503.93 740.15,-503.93"/>
</g>
<!-- models.making_plan&#45;&gt;models.roll -->
<g id="edge30" class="edge">
<title>models.making_plan&#45;&gt;models.roll</title>
<path fill="none" stroke="black" d="M875.58,-468.15C875.75,-505.17 876.16,-592.82 876.37,-637.61"/>
<polygon fill="black" stroke="black" points="876.42,-647.77 871.87,-637.79 876.4,-642.77 876.37,-637.77 876.37,-637.77 876.37,-637.77 876.4,-642.77 880.87,-637.75 876.42,-647.77 876.42,-647.77"/>
</g>
<!-- models.order&#45;&gt;models.roll -->
<g id="edge31" class="edge">
<title>models.order&#45;&gt;models.roll</title>
<path fill="none" stroke="black" d="M1092.77,-609.29C1089.64,-610.22 1086.52,-611.14 1083.5,-612 1030,-627.26 968.14,-642.83 926.08,-653.11"/>
<polygon fill="black" stroke="black" points="916.36,-655.48 925.01,-648.74 921.21,-654.29 926.07,-653.11 926.07,-653.11 926.07,-653.11 921.21,-654.29 927.14,-657.48 916.36,-655.48 916.36,-655.48"/>
</g>
<!-- models.pm_machine&#45;&gt;models.roll -->
<g id="edge32" class="edge">
<title>models.pm_machine&#45;&gt;models.roll</title>
<path fill="none" stroke="black" d="M486.21,-610.41C489,-610.97 491.78,-611.5 494.5,-612 612.97,-633.78 753.58,-651.12 826.71,-659.51"/>
<polygon fill="black" stroke="black" points="837,-660.68 826.55,-664.02 832.03,-660.11 827.06,-659.55 827.06,-659.55 827.06,-659.55 832.03,-660.11 827.57,-655.08 837,-660.68 837,-660.68"/>
</g>
<!-- models.problem&#45;&gt;models.order -->
<g id="edge33" class="edge">
<title>models.problem&#45;&gt;models.order</title>
<path fill="none" stroke="black" d="M749.58,-527.41C822.65,-534.1 958.32,-548.79 1082.78,-576.07"/>
<polygon fill="black" stroke="black" points="1092.87,-578.31 1082.13,-580.53 1087.99,-577.23 1083.11,-576.14 1083.11,-576.14 1083.11,-576.14 1087.99,-577.23 1084.09,-571.75 1092.87,-578.31 1092.87,-578.31"/>
</g>
<!-- models.problem&#45;&gt;models.pm_machine -->
<g id="edge34" class="edge">
<title>models.problem&#45;&gt;models.pm_machine</title>
<path fill="none" stroke="black" d="M643.28,-536.5C601.46,-547.1 542.67,-562.02 495.98,-573.86"/>
<polygon fill="black" stroke="black" points="486.21,-576.33 494.8,-569.51 491.06,-575.1 495.91,-573.87 495.91,-573.87 495.91,-573.87 491.06,-575.1 497.01,-578.24 486.21,-576.33 486.21,-576.33"/>
</g>
<!-- models.problem&#45;&gt;models.roll -->
<g id="edge35" class="edge">
<title>models.problem&#45;&gt;models.roll</title>
<path fill="none" stroke="black" d="M726.55,-540.11C742.98,-549.92 763.41,-562.87 780.5,-576 806.52,-595.99 833.72,-621.74 852.5,-640.4"/>
<polygon fill="black" stroke="black" points="860,-647.92 849.76,-644.02 856.47,-644.38 852.94,-640.84 852.94,-640.84 852.94,-640.84 856.47,-644.38 856.13,-637.66 860,-647.92 860,-647.92"/>
</g>
<!-- models.problem&#45;&gt;models.slitting_machine -->
<g id="edge36" class="edge">
<title>models.problem&#45;&gt;models.slitting_machine</title>
<path fill="none" stroke="black" d="M696.5,-540.3C696.5,-548.02 696.5,-557.29 696.5,-565.89"/>
<polygon fill="black" stroke="black" points="696.5,-575.9 692,-565.9 696.5,-570.9 696.5,-565.9 696.5,-565.9 696.5,-565.9 696.5,-570.9 701,-565.9 696.5,-575.9 696.5,-575.9"/>
</g>
<!-- models.problem&#45;&gt;models.storage -->
<g id="edge37" class="edge">
<title>models.problem&#45;&gt;models.storage</title>
<path fill="none" stroke="black" d="M661.52,-540.12C642.3,-549.53 618.27,-561.29 597.76,-571.33"/>
<polygon fill="black" stroke="black" points="588.62,-575.81 595.62,-567.37 593.11,-573.61 597.6,-571.41 597.6,-571.41 597.6,-571.41 593.11,-573.61 599.58,-575.46 588.62,-575.81 588.62,-575.81"/>
</g>
<!-- models.roll&#45;&gt;models.format -->
<g id="edge38" class="edge">
<title>models.roll&#45;&gt;models.format</title>
<path fill="none" stroke="black" d="M836.85,-676.44C786.4,-688.45 698.86,-709.3 640.8,-723.12"/>
<polygon fill="black" stroke="black" points="631.03,-725.44 639.72,-718.75 635.9,-724.29 640.76,-723.13 640.76,-723.13 640.76,-723.13 635.9,-724.29 641.8,-727.51 631.03,-725.44 631.03,-725.44"/>
</g>
<!-- models.storage&#45;&gt;models.roll -->
<g id="edge39" class="edge">
<title>models.storage&#45;&gt;models.roll</title>
<path fill="none" stroke="black" d="M603.1,-609.85C605.93,-610.6 608.75,-611.32 611.5,-612 685.97,-630.32 773.39,-646.86 826.85,-656.41"/>
<polygon fill="black" stroke="black" points="836.75,-658.17 826.12,-660.85 831.83,-657.3 826.91,-656.42 826.91,-656.42 826.91,-656.42 831.83,-657.3 827.69,-651.99 836.75,-658.17 836.75,-658.17"/>
</g>
<!-- models.tests -->
<g id="node14" class="node">
<title>models.tests</title>
<polygon fill="none" stroke="black" points="1273.5,-36 1189.5,-36 1189.5,0 1273.5,0 1273.5,-36"/>
<text text-anchor="middle" x="1231.5" y="-14.3" font-family="Times,serif" font-size="14.00">models.tests</text>
</g>
<!-- models.tests.fixtures -->
<g id="node15" class="node">
<title>models.tests.fixtures</title>
<polygon fill="none" stroke="black" points="144,-108 15,-108 15,-72 144,-72 144,-108"/>
<text text-anchor="middle" x="79.5" y="-86.3" font-family="Times,serif" font-size="14.00">models.tests.fixtures</text>
</g>
<!-- models.tests.fixtures&#45;&gt;models -->
<g id="edge40" class="edge">
<title>models.tests.fixtures&#45;&gt;models</title>
<path fill="none" stroke="black" d="M144.34,-106.31C147.09,-106.89 149.82,-107.46 152.5,-108 249.64,-127.62 364.9,-146.14 423.38,-155.2"/>
<polygon fill="black" stroke="black" points="433.28,-156.73 422.71,-159.65 428.34,-155.97 423.39,-155.2 423.39,-155.2 423.39,-155.2 428.34,-155.97 424.08,-150.76 433.28,-156.73 433.28,-156.73"/>
</g>
<!-- models.tests.test_cutting_layout -->
<g id="node16" class="node">
<title>models.tests.test_cutting_layout</title>
<polygon fill="none" stroke="black" points="353,-108 162,-108 162,-72 353,-72 353,-108"/>
<text text-anchor="middle" x="257.5" y="-86.3" font-family="Times,serif" font-size="14.00">models.tests.test_cutting_layout</text>
</g>
<!-- models.tests.test_cutting_layout&#45;&gt;models -->
<g id="edge41" class="edge">
<title>models.tests.test_cutting_layout&#45;&gt;models</title>
<path fill="none" stroke="black" d="M307.14,-108.03C343.06,-120.36 390.85,-136.76 423.69,-148.02"/>
<polygon fill="black" stroke="black" points="433.37,-151.35 422.45,-152.36 428.64,-149.72 423.91,-148.1 423.91,-148.1 423.91,-148.1 428.64,-149.72 425.37,-143.85 433.37,-151.35 433.37,-151.35"/>
</g>
<!-- models.tests.test_cutting_plan -->
<g id="node17" class="node">
<title>models.tests.test_cutting_plan</title>
<polygon fill="none" stroke="black" points="552,-108 371,-108 371,-72 552,-72 552,-108"/>
<text text-anchor="middle" x="461.5" y="-86.3" font-family="Times,serif" font-size="14.00">models.tests.test_cutting_plan</text>
</g>
<!-- models.tests.test_cutting_plan&#45;&gt;models -->
<g id="edge42" class="edge">
<title>models.tests.test_cutting_plan&#45;&gt;models</title>
<path fill="none" stroke="black" d="M461.5,-108.3C461.5,-116.02 461.5,-125.29 461.5,-133.89"/>
<polygon fill="black" stroke="black" points="461.5,-143.9 457,-133.9 461.5,-138.9 461.5,-133.9 461.5,-133.9 461.5,-133.9 461.5,-138.9 466,-133.9 461.5,-143.9 461.5,-143.9"/>
</g>
<!-- models.tests.test_global_plan -->
<g id="node18" class="node">
<title>models.tests.test_global_plan</title>
<polygon fill="none" stroke="black" points="1172,-36 995,-36 995,0 1172,0 1172,-36"/>
<text text-anchor="middle" x="1083.5" y="-14.3" font-family="Times,serif" font-size="14.00">models.tests.test_global_plan</text>
</g>
<!-- models.tests.test_global_plan&#45;&gt;models.cutting_layout -->
<g id="edge43" class="edge">
<title>models.tests.test_global_plan&#45;&gt;models.cutting_layout</title>
<path fill="none" stroke="black" d="M1149.87,-36C1208.42,-55.47 1284.5,-93.71 1284.5,-161 1284.5,-161 1284.5,-161 1284.5,-307 1284.5,-349.32 1264.5,-394.91 1249.8,-422.7"/>
<polygon fill="black" stroke="black" points="1244.86,-431.76 1245.7,-420.82 1247.25,-427.37 1249.65,-422.98 1249.65,-422.98 1249.65,-422.98 1247.25,-427.37 1253.6,-425.13 1244.86,-431.76 1244.86,-431.76"/>
</g>
<!-- models.tests.test_global_plan&#45;&gt;models.cutting_plan -->
<g id="edge44" class="edge">
<title>models.tests.test_global_plan&#45;&gt;models.cutting_plan</title>
<path fill="none" stroke="black" d="M1093.65,-36.27C1108.01,-62.36 1132.5,-113.8 1132.5,-161 1132.5,-161 1132.5,-161 1132.5,-235 1132.5,-282.53 1095.75,-326.7 1068.71,-352.77"/>
<polygon fill="black" stroke="black" points="1061.38,-359.63 1065.6,-349.51 1065.03,-356.22 1068.68,-352.8 1068.68,-352.8 1068.68,-352.8 1065.03,-356.22 1071.75,-356.08 1061.38,-359.63 1061.38,-359.63"/>
</g>
<!-- models.tests.test_global_plan&#45;&gt;models.global_plan -->
<g id="edge45" class="edge">
<title>models.tests.test_global_plan&#45;&gt;models.global_plan</title>
<path fill="none" stroke="black" d="M1074.76,-36.15C1055.75,-73.48 1010.51,-162.31 987.87,-206.74"/>
<polygon fill="black" stroke="black" points="983.28,-215.77 983.81,-204.81 985.55,-211.31 987.82,-206.86 987.82,-206.86 987.82,-206.86 985.55,-211.31 991.83,-208.9 983.28,-215.77 983.28,-215.77"/>
</g>
<!-- models.tests.test_global_plan&#45;&gt;models.problem -->
<g id="edge46" class="edge">
<title>models.tests.test_global_plan&#45;&gt;models.problem</title>
<path fill="none" stroke="black" d="M1005.93,-36.12C893.14,-65.65 687.73,-138.03 599.5,-288 581.37,-318.83 531.85,-351.24 601.5,-468 609.36,-481.17 621.79,-491.32 635.1,-499.04"/>
<polygon fill="black" stroke="black" points="643.94,-503.77 633,-503.02 639.53,-501.41 635.12,-499.05 635.12,-499.05 635.12,-499.05 639.53,-501.41 637.25,-495.08 643.94,-503.77 643.94,-503.77"/>
</g>
<!-- models.tests.test_global_plan&#45;&gt;models.roll -->
<g id="edge47" class="edge">
<title>models.tests.test_global_plan&#45;&gt;models.roll</title>
<path fill="none" stroke="black" d="M1164.54,-36.09C1195.63,-44.46 1230.75,-56.21 1260.5,-72 1315.75,-101.31 1369.5,-98.46 1369.5,-161 1369.5,-161 1369.5,-161 1369.5,-523 1369.5,-587.98 1313.43,-586.87 1253.5,-612 1143.18,-658.26 1000.42,-665.6 926.22,-665.93"/>
<polygon fill="black" stroke="black" points="916.22,-665.93 926.22,-661.43 921.22,-665.93 926.22,-665.93 926.22,-665.93 926.22,-665.93 921.22,-665.93 926.22,-670.43 916.22,-665.93 916.22,-665.93"/>
</g>
<!-- models.tests.test_global_plan&#45;&gt;models.tests.fixtures -->
<g id="edge48" class="edge">
<title>models.tests.test_global_plan&#45;&gt;models.tests.fixtures</title>
<path fill="none" stroke="black" d="M994.75,-18.99C830.36,-20.08 467.47,-27.67 154.45,-71.86"/>
<polygon fill="black" stroke="black" points="144.27,-73.31 153.53,-67.44 149.22,-72.6 154.17,-71.9 154.17,-71.9 154.17,-71.9 149.22,-72.6 154.8,-76.35 144.27,-73.31 144.27,-73.31"/>
</g>
<!-- models.tests.test_making_plan -->
<g id="node19" class="node">
<title>models.tests.test_making_plan</title>
<polygon fill="none" stroke="black" points="845,-396 660,-396 660,-360 845,-360 845,-396"/>
<text text-anchor="middle" x="752.5" y="-374.3" font-family="Times,serif" font-size="14.00">models.tests.test_making_plan</text>
</g>
<!-- models.tests.test_making_plan&#45;&gt;models.making_plan -->
<g id="edge49" class="edge">
<title>models.tests.test_making_plan&#45;&gt;models.making_plan</title>
<path fill="none" stroke="black" d="M782.59,-396.12C798.82,-405.36 819.04,-416.87 836.47,-426.79"/>
<polygon fill="black" stroke="black" points="845.3,-431.81 834.38,-430.78 840.95,-429.34 836.6,-426.86 836.6,-426.86 836.6,-426.86 840.95,-429.34 838.83,-422.95 845.3,-431.81 845.3,-431.81"/>
</g>
<!-- models.tests.test_making_plan&#45;&gt;models.problem -->
<g id="edge50" class="edge">
<title>models.tests.test_making_plan&#45;&gt;models.problem</title>
<path fill="none" stroke="black" d="M745.75,-396.13C736.12,-420.54 718.36,-465.57 707,-494.36"/>
<polygon fill="black" stroke="black" points="703.28,-503.81 702.76,-492.86 705.11,-499.16 706.95,-494.51 706.95,-494.51 706.95,-494.51 705.11,-499.16 711.13,-496.16 703.28,-503.81 703.28,-503.81"/>
</g>
<!-- models.tests.test_making_plan&#45;&gt;models.roll -->
<g id="edge51" class="edge">
<title>models.tests.test_making_plan&#45;&gt;models.roll</title>
<path fill="none" stroke="black" d="M759.89,-396.03C780.68,-444.01 839.87,-580.5 864.99,-638.46"/>
<polygon fill="black" stroke="black" points="869,-647.69 860.89,-640.31 867.01,-643.11 865.02,-638.52 865.02,-638.52 865.02,-638.52 867.01,-643.11 869.15,-636.73 869,-647.69 869,-647.69"/>
</g>
<!-- models.tests.test_problem -->
<g id="node20" class="node">
<title>models.tests.test_problem</title>
<polygon fill="none" stroke="black" points="159,-36 0,-36 0,0 159,0 159,-36"/>
<text text-anchor="middle" x="79.5" y="-14.3" font-family="Times,serif" font-size="14.00">models.tests.test_problem</text>
</g>
<!-- models.tests.test_problem&#45;&gt;models.tests.fixtures -->
<g id="edge52" class="edge">
<title>models.tests.test_problem&#45;&gt;models.tests.fixtures</title>
<path fill="none" stroke="black" d="M79.5,-36.3C79.5,-44.02 79.5,-53.29 79.5,-61.89"/>
<polygon fill="black" stroke="black" points="79.5,-71.9 75,-61.9 79.5,-66.9 79.5,-61.9 79.5,-61.9 79.5,-61.9 79.5,-66.9 84,-61.9 79.5,-71.9 79.5,-71.9"/>
</g>
<!-- models.tests.test_roll -->
<g id="node21" class="node">
<title>models.tests.test_roll</title>
<polygon fill="none" stroke="black" points="1074.5,-612 942.5,-612 942.5,-576 1074.5,-576 1074.5,-612"/>
<text text-anchor="middle" x="1008.5" y="-590.3" font-family="Times,serif" font-size="14.00">models.tests.test_roll</text>
</g>
<!-- models.tests.test_roll&#45;&gt;models.roll -->
<g id="edge53" class="edge">
<title>models.tests.test_roll&#45;&gt;models.roll</title>
<path fill="none" stroke="black" d="M976.21,-612.12C958.63,-621.45 936.69,-633.08 917.87,-643.06"/>
<polygon fill="black" stroke="black" points="908.91,-647.81 915.64,-639.15 913.33,-645.47 917.75,-643.13 917.75,-643.13 917.75,-643.13 913.33,-645.47 919.86,-647.1 908.91,-647.81 908.91,-647.81"/>
</g>
</g>
</svg>
