<?xml version="1.0" encoding="UTF-8" standalone="no"?>
<!DOCTYPE svg PUBLIC "-//W3C//DTD SVG 1.1//EN"
 "http://www.w3.org/Graphics/SVG/1.1/DTD/svg11.dtd">
<!-- Generated by graphviz version 2.43.0 (0)
 -->
<!-- Title: packages_algo Pages: 1 -->
<svg width="1445pt" height="404pt"
 viewBox="0.00 0.00 1444.50 404.00" xmlns="http://www.w3.org/2000/svg" xmlns:xlink="http://www.w3.org/1999/xlink">
<g id="graph0" class="graph" transform="scale(1 1) rotate(0) translate(4 400)">
<title>packages_algo</title>
<polygon fill="white" stroke="transparent" points="-4,4 -4,-400 1440.5,-400 1440.5,4 -4,4"/>
<!-- algo -->
<g id="node1" class="node">
<title>algo</title>
<polygon fill="none" stroke="black" points="802,-180 748,-180 748,-144 802,-144 802,-180"/>
<text text-anchor="middle" x="775" y="-158.3" font-family="Times,serif" font-size="14.00">algo</text>
</g>
<!-- algo.crossingover -->
<g id="node2" class="node">
<title>algo.crossingover</title>
<polygon fill="none" stroke="black" points="741.5,-324 628.5,-324 628.5,-288 741.5,-288 741.5,-324"/>
<text text-anchor="middle" x="685" y="-302.3" font-family="Times,serif" font-size="14.00">algo.crossingover</text>
</g>
<!-- algo&#45;&gt;algo.crossingover -->
<g id="edge1" class="edge">
<title>algo&#45;&gt;algo.crossingover</title>
<path fill="none" stroke="black" d="M747.82,-176.85C732.65,-185.97 714.71,-199.29 704,-216 692.17,-234.46 687.58,-259.06 685.86,-277.71"/>
<polygon fill="black" stroke="black" points="685.15,-287.92 681.36,-277.63 685.5,-282.93 685.85,-277.95 685.85,-277.95 685.85,-277.95 685.5,-282.93 690.33,-278.26 685.15,-287.92 685.15,-287.92"/>
</g>
<!-- algo.event_queue_builder -->
<g id="node3" class="node">
<title>algo.event_queue_builder</title>
<polygon fill="none" stroke="black" points="967.5,-396 810.5,-396 810.5,-360 967.5,-360 967.5,-396"/>
<text text-anchor="middle" x="889" y="-374.3" font-family="Times,serif" font-size="14.00">algo.event_queue_builder</text>
</g>
<!-- algo&#45;&gt;algo.event_queue_builder -->
<g id="edge2" class="edge">
<title>algo&#45;&gt;algo.event_queue_builder</title>
<path fill="none" stroke="black" d="M802.19,-174.81C839.46,-192.83 904.17,-231.19 925,-288 930.51,-303.02 929.7,-308.71 925,-324 921.99,-333.78 916.49,-343.38 910.68,-351.67"/>
<polygon fill="black" stroke="black" points="904.61,-359.77 907,-349.07 907.61,-355.77 910.61,-351.77 910.61,-351.77 910.61,-351.77 907.61,-355.77 914.21,-354.47 904.61,-359.77 904.61,-359.77"/>
</g>
<!-- algo.full_enumeration -->
<g id="node4" class="node">
<title>algo.full_enumeration</title>
<polygon fill="none" stroke="black" points="571.5,-324 434.5,-324 434.5,-288 571.5,-288 571.5,-324"/>
<text text-anchor="middle" x="503" y="-302.3" font-family="Times,serif" font-size="14.00">algo.full_enumeration</text>
</g>
<!-- algo&#45;&gt;algo.full_enumeration -->
<g id="edge3" class="edge">
<title>algo&#45;&gt;algo.full_enumeration</title>
<path fill="none" stroke="black" d="M747.81,-165.93C709.35,-171.08 637.96,-184.37 586,-216 559.16,-232.34 535.48,-259.74 520.36,-279.83"/>
<polygon fill="black" stroke="black" points="514.42,-287.94 516.7,-277.21 517.38,-283.91 520.33,-279.87 520.33,-279.87 520.33,-279.87 517.38,-283.91 523.96,-282.53 514.42,-287.94 514.42,-287.94"/>
</g>
<!-- algo.genetic_search -->
<g id="node5" class="node">
<title>algo.genetic_search</title>
<polygon fill="none" stroke="black" points="837,-252 713,-252 713,-216 837,-216 837,-252"/>
<text text-anchor="middle" x="775" y="-230.3" font-family="Times,serif" font-size="14.00">algo.genetic_search</text>
</g>
<!-- algo&#45;&gt;algo.genetic_search -->
<g id="edge4" class="edge">
<title>algo&#45;&gt;algo.genetic_search</title>
<path fill="none" stroke="black" d="M775,-180.3C775,-188.02 775,-197.29 775,-205.89"/>
<polygon fill="black" stroke="black" points="775,-215.9 770.5,-205.9 775,-210.9 775,-205.9 775,-205.9 775,-205.9 775,-210.9 779.5,-205.9 775,-215.9 775,-215.9"/>
</g>
<!-- algo.global_mutate -->
<g id="node6" class="node">
<title>algo.global_mutate</title>
<polygon fill="none" stroke="black" points="1094,-324 972,-324 972,-288 1094,-288 1094,-324"/>
<text text-anchor="middle" x="1033" y="-302.3" font-family="Times,serif" font-size="14.00">algo.global_mutate</text>
</g>
<!-- algo&#45;&gt;algo.global_mutate -->
<g id="edge5" class="edge">
<title>algo&#45;&gt;algo.global_mutate</title>
<path fill="none" stroke="black" d="M802.18,-165.87C839.83,-170.9 908.77,-184.01 958,-216 982.98,-232.23 1004.06,-259.28 1017.45,-279.31"/>
<polygon fill="black" stroke="black" points="1023.05,-287.95 1013.83,-282.01 1020.33,-283.76 1017.61,-279.56 1017.61,-279.56 1017.61,-279.56 1020.33,-283.76 1021.39,-277.11 1023.05,-287.95 1023.05,-287.95"/>
</g>
<!-- algo.mutate -->
<g id="node7" class="node">
<title>algo.mutate</title>
<polygon fill="none" stroke="black" points="1117.5,-396 1036.5,-396 1036.5,-360 1117.5,-360 1117.5,-396"/>
<text text-anchor="middle" x="1077" y="-374.3" font-family="Times,serif" font-size="14.00">algo.mutate</text>
</g>
<!-- algo&#45;&gt;algo.mutate -->
<g id="edge6" class="edge">
<title>algo&#45;&gt;algo.mutate</title>
<path fill="none" stroke="black" d="M802.23,-162.86C869.67,-164.23 1043.28,-178.62 1103,-288 1113.82,-307.82 1104.97,-332.65 1094.76,-351.04"/>
<polygon fill="black" stroke="black" points="1089.56,-359.76 1090.82,-348.86 1092.12,-355.46 1094.69,-351.17 1094.69,-351.17 1094.69,-351.17 1092.12,-355.46 1098.55,-353.48 1089.56,-359.76 1089.56,-359.76"/>
</g>
<!-- algo.pmm_plans_builder -->
<g id="node8" class="node">
<title>algo.pmm_plans_builder</title>
<polygon fill="none" stroke="black" points="545.5,-396 392.5,-396 392.5,-360 545.5,-360 545.5,-396"/>
<text text-anchor="middle" x="469" y="-374.3" font-family="Times,serif" font-size="14.00">algo.pmm_plans_builder</text>
</g>
<!-- algo&#45;&gt;algo.pmm_plans_builder -->
<g id="edge7" class="edge">
<title>algo&#45;&gt;algo.pmm_plans_builder</title>
<path fill="none" stroke="black" d="M747.84,-162.17C677.41,-161.71 489.92,-171.83 425,-288 413.19,-309.14 427.59,-333.88 442.99,-351.9"/>
<polygon fill="black" stroke="black" points="450.05,-359.67 440,-355.29 446.69,-355.97 443.33,-352.27 443.33,-352.27 443.33,-352.27 446.69,-355.97 446.66,-349.24 450.05,-359.67 450.05,-359.67"/>
</g>
<!-- algo.random_global_plan -->
<g id="node9" class="node">
<title>algo.random_global_plan</title>
<polygon fill="none" stroke="black" points="916,-324 760,-324 760,-288 916,-288 916,-324"/>
<text text-anchor="middle" x="838" y="-302.3" font-family="Times,serif" font-size="14.00">algo.random_global_plan</text>
</g>
<!-- algo&#45;&gt;algo.random_global_plan -->
<g id="edge8" class="edge">
<title>algo&#45;&gt;algo.random_global_plan</title>
<path fill="none" stroke="black" d="M802.07,-175.28C818.02,-184.12 836.83,-197.71 846,-216 855.64,-235.22 852.5,-259.71 847.59,-278.13"/>
<polygon fill="black" stroke="black" points="844.66,-287.93 843.21,-277.06 846.09,-283.14 847.52,-278.35 847.52,-278.35 847.52,-278.35 846.09,-283.14 851.83,-279.64 844.66,-287.93 844.66,-287.93"/>
</g>
<!-- algo.sm_plans_builder -->
<g id="node10" class="node">
<title>algo.sm_plans_builder</title>
<polygon fill="none" stroke="black" points="704,-396 564,-396 564,-360 704,-360 704,-396"/>
<text text-anchor="middle" x="634" y="-374.3" font-family="Times,serif" font-size="14.00">algo.sm_plans_builder</text>
</g>
<!-- algo&#45;&gt;algo.sm_plans_builder -->
<g id="edge9" class="edge">
<title>algo&#45;&gt;algo.sm_plans_builder</title>
<path fill="none" stroke="black" d="M747.7,-174.31C709.45,-191.95 642.02,-230.11 619,-288 611.04,-308.03 615.96,-332.22 622.22,-350.33"/>
<polygon fill="black" stroke="black" points="625.76,-359.69 618.02,-351.93 623.99,-355.02 622.23,-350.34 622.23,-350.34 622.23,-350.34 623.99,-355.02 626.44,-348.75 625.76,-359.69 625.76,-359.69"/>
</g>
<!-- algo.full_enumeration&#45;&gt;algo.event_queue_builder -->
<g id="edge10" class="edge">
<title>algo.full_enumeration&#45;&gt;algo.event_queue_builder</title>
<path fill="none" stroke="black" d="M571.56,-319.43C635.37,-331 730.8,-348.31 800.37,-360.93"/>
<polygon fill="black" stroke="black" points="810.44,-362.75 799.79,-365.4 805.52,-361.86 800.6,-360.97 800.6,-360.97 800.6,-360.97 805.52,-361.86 801.4,-356.54 810.44,-362.75 810.44,-362.75"/>
</g>
<!-- algo.full_enumeration&#45;&gt;algo.pmm_plans_builder -->
<g id="edge11" class="edge">
<title>algo.full_enumeration&#45;&gt;algo.pmm_plans_builder</title>
<path fill="none" stroke="black" d="M494.6,-324.3C490.73,-332.27 486.05,-341.9 481.76,-350.74"/>
<polygon fill="black" stroke="black" points="477.31,-359.9 477.63,-348.93 479.49,-355.4 481.68,-350.9 481.68,-350.9 481.68,-350.9 479.49,-355.4 485.72,-352.87 477.31,-359.9 477.31,-359.9"/>
</g>
<!-- algo.full_enumeration&#45;&gt;algo.sm_plans_builder -->
<g id="edge12" class="edge">
<title>algo.full_enumeration&#45;&gt;algo.sm_plans_builder</title>
<path fill="none" stroke="black" d="M535.05,-324.12C552.49,-333.45 574.27,-345.08 592.94,-355.06"/>
<polygon fill="black" stroke="black" points="601.83,-359.81 590.89,-359.07 597.42,-357.45 593.01,-355.1 593.01,-355.1 593.01,-355.1 597.42,-357.45 595.13,-351.13 601.83,-359.81 601.83,-359.81"/>
</g>
<!-- algo.genetic_search&#45;&gt;algo.crossingover -->
<g id="edge13" class="edge">
<title>algo.genetic_search&#45;&gt;algo.crossingover</title>
<path fill="none" stroke="black" d="M752.75,-252.3C741.42,-261.12 727.47,-271.97 715.18,-281.53"/>
<polygon fill="black" stroke="black" points="706.99,-287.9 712.12,-278.2 710.94,-284.83 714.88,-281.76 714.88,-281.76 714.88,-281.76 710.94,-284.83 717.65,-285.31 706.99,-287.9 706.99,-287.9"/>
</g>
<!-- algo.genetic_search&#45;&gt;algo.global_mutate -->
<g id="edge14" class="edge">
<title>algo.genetic_search&#45;&gt;algo.global_mutate</title>
<path fill="none" stroke="black" d="M837.13,-251.86C874.79,-262.07 922.96,-275.15 962.11,-285.77"/>
<polygon fill="black" stroke="black" points="971.86,-288.41 961.03,-290.14 967.03,-287.1 962.21,-285.79 962.21,-285.79 962.21,-285.79 967.03,-287.1 963.39,-281.45 971.86,-288.41 971.86,-288.41"/>
</g>
<!-- algo.genetic_search&#45;&gt;algo.random_global_plan -->
<g id="edge15" class="edge">
<title>algo.genetic_search&#45;&gt;algo.random_global_plan</title>
<path fill="none" stroke="black" d="M790.57,-252.3C798.2,-260.78 807.52,-271.14 815.88,-280.42"/>
<polygon fill="black" stroke="black" points="822.61,-287.9 812.57,-283.47 819.26,-284.18 815.92,-280.46 815.92,-280.46 815.92,-280.46 819.26,-284.18 819.26,-277.45 822.61,-287.9 822.61,-287.9"/>
</g>
<!-- algo.global_mutate&#45;&gt;algo.event_queue_builder -->
<g id="edge16" class="edge">
<title>algo.global_mutate&#45;&gt;algo.event_queue_builder</title>
<path fill="none" stroke="black" d="M997.77,-324.12C978.42,-333.53 954.23,-345.29 933.57,-355.33"/>
<polygon fill="black" stroke="black" points="924.36,-359.81 931.39,-351.39 928.86,-357.62 933.36,-355.44 933.36,-355.44 933.36,-355.44 928.86,-357.62 935.32,-359.49 924.36,-359.81 924.36,-359.81"/>
</g>
<!-- algo.global_mutate&#45;&gt;algo.mutate -->
<g id="edge17" class="edge">
<title>algo.global_mutate&#45;&gt;algo.mutate</title>
<path fill="none" stroke="black" d="M1043.88,-324.3C1048.99,-332.44 1055.2,-342.31 1060.84,-351.3"/>
<polygon fill="black" stroke="black" points="1066.25,-359.9 1057.12,-353.82 1063.59,-355.66 1060.93,-351.43 1060.93,-351.43 1060.93,-351.43 1063.59,-355.66 1064.74,-349.03 1066.25,-359.9 1066.25,-359.9"/>
</g>
<!-- algo.random_global_plan&#45;&gt;algo.event_queue_builder -->
<g id="edge18" class="edge">
<title>algo.random_global_plan&#45;&gt;algo.event_queue_builder</title>
<path fill="none" stroke="black" d="M850.61,-324.3C856.6,-332.53 863.88,-342.52 870.48,-351.58"/>
<polygon fill="black" stroke="black" points="876.54,-359.9 867.01,-354.46 873.59,-355.85 870.65,-351.81 870.65,-351.81 870.65,-351.81 873.59,-355.85 874.29,-349.16 876.54,-359.9 876.54,-359.9"/>
</g>
<!-- algo.random_global_plan&#45;&gt;algo.pmm_plans_builder -->
<g id="edge19" class="edge">
<title>algo.random_global_plan&#45;&gt;algo.pmm_plans_builder</title>
<path fill="none" stroke="black" d="M759.8,-322.14C756.49,-322.77 753.21,-323.39 750,-324 666.44,-339.78 643.18,-343.22 555.71,-359.88"/>
<polygon fill="black" stroke="black" points="545.88,-361.75 554.86,-355.46 550.8,-360.81 555.71,-359.88 555.71,-359.88 555.71,-359.88 550.8,-360.81 556.55,-364.3 545.88,-361.75 545.88,-361.75"/>
</g>
<!-- algo.random_global_plan&#45;&gt;algo.sm_plans_builder -->
<g id="edge20" class="edge">
<title>algo.random_global_plan&#45;&gt;algo.sm_plans_builder</title>
<path fill="none" stroke="black" d="M788.36,-324.03C759.73,-333.86 723.55,-346.27 693.42,-356.61"/>
<polygon fill="black" stroke="black" points="683.87,-359.89 691.86,-352.39 688.6,-358.27 693.32,-356.64 693.32,-356.64 693.32,-356.64 688.6,-358.27 694.78,-360.9 683.87,-359.89 683.87,-359.89"/>
</g>
<!-- algo.tests -->
<g id="node11" class="node">
<title>algo.tests</title>
<polygon fill="none" stroke="black" points="520,-36 452,-36 452,0 520,0 520,-36"/>
<text text-anchor="middle" x="486" y="-14.3" font-family="Times,serif" font-size="14.00">algo.tests</text>
</g>
<!-- algo.tests.fixtures -->
<g id="node12" class="node">
<title>algo.tests.fixtures</title>
<polygon fill="none" stroke="black" points="274.5,-108 161.5,-108 161.5,-72 274.5,-72 274.5,-108"/>
<text text-anchor="middle" x="218" y="-86.3" font-family="Times,serif" font-size="14.00">algo.tests.fixtures</text>
</g>
<!-- algo.tests.fixtures&#45;&gt;algo -->
<g id="edge21" class="edge">
<title>algo.tests.fixtures&#45;&gt;algo</title>
<path fill="none" stroke="black" d="M274.77,-106.18C277.88,-106.84 280.97,-107.45 284,-108 451.89,-138.52 655.5,-153.62 737.81,-158.83"/>
<polygon fill="black" stroke="black" points="747.93,-159.46 737.67,-163.33 742.93,-159.15 737.94,-158.84 737.94,-158.84 737.94,-158.84 742.93,-159.15 738.22,-154.34 747.93,-159.46 747.93,-159.46"/>
</g>
<!-- algo.tests.test_crossingover -->
<g id="node13" class="node">
<title>algo.tests.test_crossingover</title>
<polygon fill="none" stroke="black" points="459,-108 293,-108 293,-72 459,-72 459,-108"/>
<text text-anchor="middle" x="376" y="-86.3" font-family="Times,serif" font-size="14.00">algo.tests.test_crossingover</text>
</g>
<!-- algo.tests.test_crossingover&#45;&gt;algo -->
<g id="edge22" class="edge">
<title>algo.tests.test_crossingover&#45;&gt;algo</title>
<path fill="none" stroke="black" d="M459.24,-106.43C462.19,-106.96 465.12,-107.49 468,-108 565.24,-125.38 679.98,-144.93 737.77,-154.72"/>
<polygon fill="black" stroke="black" points="747.88,-156.43 737.27,-159.2 742.95,-155.59 738.02,-154.76 738.02,-154.76 738.02,-154.76 742.95,-155.59 738.77,-150.32 747.88,-156.43 747.88,-156.43"/>
</g>
<!-- algo.tests.test_event_queue_builder -->
<g id="node14" class="node">
<title>algo.tests.test_event_queue_builder</title>
<polygon fill="none" stroke="black" points="210,-36 0,-36 0,0 210,0 210,-36"/>
<text text-anchor="middle" x="105" y="-14.3" font-family="Times,serif" font-size="14.00">algo.tests.test_event_queue_builder</text>
</g>
<!-- algo.tests.test_event_queue_builder&#45;&gt;algo.tests.fixtures -->
<g id="edge23" class="edge">
<title>algo.tests.test_event_queue_builder&#45;&gt;algo.tests.fixtures</title>
<path fill="none" stroke="black" d="M132.64,-36.12C147.42,-45.28 165.79,-56.66 181.7,-66.52"/>
<polygon fill="black" stroke="black" points="190.25,-71.81 179.38,-70.37 186,-69.18 181.75,-66.54 181.75,-66.54 181.75,-66.54 186,-69.18 184.12,-62.72 190.25,-71.81 190.25,-71.81"/>
</g>
<!-- algo.tests.test_full_enumeration -->
<g id="node15" class="node">
<title>algo.tests.test_full_enumeration</title>
<polygon fill="none" stroke="black" points="668.5,-108 477.5,-108 477.5,-72 668.5,-72 668.5,-108"/>
<text text-anchor="middle" x="573" y="-86.3" font-family="Times,serif" font-size="14.00">algo.tests.test_full_enumeration</text>
</g>
<!-- algo.tests.test_full_enumeration&#45;&gt;algo -->
<g id="edge24" class="edge">
<title>algo.tests.test_full_enumeration&#45;&gt;algo</title>
<path fill="none" stroke="black" d="M622.16,-108.03C657.93,-120.43 705.6,-136.95 738.14,-148.23"/>
<polygon fill="black" stroke="black" points="747.72,-151.55 736.79,-152.52 742.99,-149.91 738.27,-148.27 738.27,-148.27 738.27,-148.27 742.99,-149.91 739.74,-144.02 747.72,-151.55 747.72,-151.55"/>
</g>
<!-- algo.tests.test_genetic_search -->
<g id="node16" class="node">
<title>algo.tests.test_genetic_search</title>
<polygon fill="none" stroke="black" points="863.5,-108 686.5,-108 686.5,-72 863.5,-72 863.5,-108"/>
<text text-anchor="middle" x="775" y="-86.3" font-family="Times,serif" font-size="14.00">algo.tests.test_genetic_search</text>
</g>
<!-- algo.tests.test_genetic_search&#45;&gt;algo -->
<g id="edge25" class="edge">
<title>algo.tests.test_genetic_search&#45;&gt;algo</title>
<path fill="none" stroke="black" d="M775,-108.3C775,-116.02 775,-125.29 775,-133.89"/>
<polygon fill="black" stroke="black" points="775,-143.9 770.5,-133.9 775,-138.9 775,-133.9 775,-133.9 775,-133.9 775,-138.9 779.5,-133.9 775,-143.9 775,-143.9"/>
</g>
<!-- algo.tests.test_global_mutate -->
<g id="node17" class="node">
<title>algo.tests.test_global_mutate</title>
<polygon fill="none" stroke="black" points="1056.5,-108 881.5,-108 881.5,-72 1056.5,-72 1056.5,-108"/>
<text text-anchor="middle" x="969" y="-86.3" font-family="Times,serif" font-size="14.00">algo.tests.test_global_mutate</text>
</g>
<!-- algo.tests.test_global_mutate&#45;&gt;algo -->
<g id="edge26" class="edge">
<title>algo.tests.test_global_mutate&#45;&gt;algo</title>
<path fill="none" stroke="black" d="M921.54,-108.12C887.73,-120.32 842.95,-136.48 811.83,-147.71"/>
<polygon fill="black" stroke="black" points="802.24,-151.17 810.11,-143.55 806.94,-149.48 811.64,-147.78 811.64,-147.78 811.64,-147.78 806.94,-149.48 813.17,-152.01 802.24,-151.17 802.24,-151.17"/>
</g>
<!-- algo.tests.test_mutate -->
<g id="node18" class="node">
<title>algo.tests.test_mutate</title>
<polygon fill="none" stroke="black" points="1209,-108 1075,-108 1075,-72 1209,-72 1209,-108"/>
<text text-anchor="middle" x="1142" y="-86.3" font-family="Times,serif" font-size="14.00">algo.tests.test_mutate</text>
</g>
<!-- algo.tests.test_mutate&#45;&gt;algo -->
<g id="edge27" class="edge">
<title>algo.tests.test_mutate&#45;&gt;algo</title>
<path fill="none" stroke="black" d="M1074.84,-105.98C1071.51,-106.67 1068.22,-107.35 1065,-108 974.5,-126.25 867.56,-145.1 812.28,-154.64"/>
<polygon fill="black" stroke="black" points="802.25,-156.36 811.34,-150.23 807.18,-155.51 812.11,-154.67 812.11,-154.67 812.11,-154.67 807.18,-155.51 812.87,-159.1 802.25,-156.36 802.25,-156.36"/>
</g>
<!-- algo.tests.test_pmm_plans_builder -->
<g id="node19" class="node">
<title>algo.tests.test_pmm_plans_builder</title>
<polygon fill="none" stroke="black" points="434,-36 228,-36 228,0 434,0 434,-36"/>
<text text-anchor="middle" x="331" y="-14.3" font-family="Times,serif" font-size="14.00">algo.tests.test_pmm_plans_builder</text>
</g>
<!-- algo.tests.test_pmm_plans_builder&#45;&gt;algo.tests.fixtures -->
<g id="edge28" class="edge">
<title>algo.tests.test_pmm_plans_builder&#45;&gt;algo.tests.fixtures</title>
<path fill="none" stroke="black" d="M303.36,-36.12C288.58,-45.28 270.21,-56.66 254.3,-66.52"/>
<polygon fill="black" stroke="black" points="245.75,-71.81 251.88,-62.72 250,-69.18 254.25,-66.54 254.25,-66.54 254.25,-66.54 250,-69.18 256.62,-70.37 245.75,-71.81 245.75,-71.81"/>
</g>
<!-- algo.tests.test_random_global_plan -->
<g id="node20" class="node">
<title>algo.tests.test_random_global_plan</title>
<polygon fill="none" stroke="black" points="1436.5,-108 1227.5,-108 1227.5,-72 1436.5,-72 1436.5,-108"/>
<text text-anchor="middle" x="1332" y="-86.3" font-family="Times,serif" font-size="14.00">algo.tests.test_random_global_plan</text>
</g>
<!-- algo.tests.test_random_global_plan&#45;&gt;algo -->
<g id="edge29" class="edge">
<title>algo.tests.test_random_global_plan&#45;&gt;algo</title>
<path fill="none" stroke="black" d="M1227.34,-106.73C1224.19,-107.16 1221.07,-107.59 1218,-108 1067.69,-128.19 888.17,-148.5 812.04,-156.94"/>
<polygon fill="black" stroke="black" points="802,-158.05 811.45,-152.47 806.97,-157.5 811.94,-156.95 811.94,-156.95 811.94,-156.95 806.97,-157.5 812.44,-161.42 802,-158.05 802,-158.05"/>
</g>
<!-- algo.utils -->
<g id="node21" class="node">
<title>algo.utils</title>
<polygon fill="none" stroke="black" points="605.5,-36 538.5,-36 538.5,0 605.5,0 605.5,-36"/>
<text text-anchor="middle" x="572" y="-14.3" font-family="Times,serif" font-size="14.00">algo.utils</text>
</g>
</g>
</svg>
